<svg width="800" height="1600" xmlns="http://www.w3.org/2000/svg">
    <style>
        .exe { fill: #d9e6f2; stroke: #1f3a93; stroke-width: 0.5; }
        .table { fill: #f3d9e6; stroke: #c0392b; stroke-width: 0.5; }
        .magic { fill: #f2f4cb; stroke: #f39c12; stroke-width: 0.5; }
        text { font-family: Arial, sans-serif; font-size: 10px; text-anchor: middle; }
        .caption { font-family: Arial, sans-serif; font-size: 40px; font-weight: bold; text-anchor: middle; fill: #000000; 
            text-shadow: 1px 1px 4px white, -1px -1px 4px white, 1px -1px 4px white, -1px 1px 4px white; }
    </style>
    <!-- Drawing the grid of 32 rows and 16 columns -->
    <rect x="0" y="0" width="800" height="1600" fill="white" stroke="black" stroke-width="1" />
    <!-- Loop through each byte and draw a square -->
    <rect x="0" y="0" width="50" height="50" class="exe" />
    <rect x="50" y="0" width="50" height="50" class="exe" />
    <rect x="100" y="0" width="50" height="50" class="exe" />
    <rect x="150" y="0" width="50" height="50" class="exe" />
    <rect x="200" y="0" width="50" height="50" class="exe" />
    <rect x="250" y="0" width="50" height="50" class="exe" />
    <rect x="300" y="0" width="50" height="50" class="exe" />
    <rect x="350" y="0" width="50" height="50" class="exe" />
    <rect x="400" y="0" width="50" height="50" class="exe" />
    <rect x="450" y="0" width="50" height="50" class="exe" />
    <rect x="500" y="0" width="50" height="50" class="exe" />
    <rect x="550" y="0" width="50" height="50" class="exe" />
    <rect x="600" y="0" width="50" height="50" class="exe" />
    <rect x="650" y="0" width="50" height="50" class="exe" />
    <rect x="700" y="0" width="50" height="50" class="exe" />
    <rect x="750" y="0" width="50" height="50" class="exe" />
    <rect x="0" y="50" width="50" height="50" class="exe" />
    <rect x="50" y="50" width="50" height="50" class="exe" />
    <rect x="100" y="50" width="50" height="50" class="exe" />
    <rect x="150" y="50" width="50" height="50" class="exe" />
    <rect x="200" y="50" width="50" height="50" class="exe" />
    <rect x="250" y="50" width="50" height="50" class="exe" />
    <rect x="300" y="50" width="50" height="50" class="exe" />
    <rect x="350" y="50" width="50" height="50" class="exe" />
    <rect x="400" y="50" width="50" height="50" class="exe" />
    <rect x="450" y="50" width="50" height="50" class="exe" />
    <rect x="500" y="50" width="50" height="50" class="exe" />
    <rect x="550" y="50" width="50" height="50" class="exe" />
    <rect x="600" y="50" width="50" height="50" class="exe" />
    <rect x="650" y="50" width="50" height="50" class="exe" />
    <rect x="700" y="50" width="50" height="50" class="exe" />
    <rect x="750" y="50" width="50" height="50" class="exe" />
    <rect x="0" y="100" width="50" height="50" class="exe" />
    <rect x="50" y="100" width="50" height="50" class="exe" />
    <rect x="100" y="100" width="50" height="50" class="exe" />
    <rect x="150" y="100" width="50" height="50" class="exe" />
    <rect x="200" y="100" width="50" height="50" class="exe" />
    <rect x="250" y="100" width="50" height="50" class="exe" />
    <rect x="300" y="100" width="50" height="50" class="exe" />
    <rect x="350" y="100" width="50" height="50" class="exe" />
    <rect x="400" y="100" width="50" height="50" class="exe" />
    <rect x="450" y="100" width="50" height="50" class="exe" />
    <rect x="500" y="100" width="50" height="50" class="exe" />
    <rect x="550" y="100" width="50" height="50" class="exe" />
    <rect x="600" y="100" width="50" height="50" class="exe" />
    <rect x="650" y="100" width="50" height="50" class="exe" />
    <rect x="700" y="100" width="50" height="50" class="exe" />
    <rect x="750" y="100" width="50" height="50" class="exe" />
    <rect x="0" y="150" width="50" height="50" class="exe" />
    <rect x="50" y="150" width="50" height="50" class="exe" />
    <rect x="100" y="150" width="50" height="50" class="exe" />
    <rect x="150" y="150" width="50" height="50" class="exe" />
    <rect x="200" y="150" width="50" height="50" class="exe" />
    <rect x="250" y="150" width="50" height="50" class="exe" />
    <rect x="300" y="150" width="50" height="50" class="exe" />
    <rect x="350" y="150" width="50" height="50" class="exe" />
    <rect x="400" y="150" width="50" height="50" class="exe" />
    <rect x="450" y="150" width="50" height="50" class="exe" />
    <rect x="500" y="150" width="50" height="50" class="exe" />
    <rect x="550" y="150" width="50" height="50" class="exe" />
    <rect x="600" y="150" width="50" height="50" class="exe" />
    <rect x="650" y="150" width="50" height="50" class="exe" />
    <rect x="700" y="150" width="50" height="50" class="exe" />
    <rect x="750" y="150" width="50" height="50" class="exe" />
    <rect x="0" y="200" width="50" height="50" class="exe" />
    <rect x="50" y="200" width="50" height="50" class="exe" />
    <rect x="100" y="200" width="50" height="50" class="exe" />
    <rect x="150" y="200" width="50" height="50" class="exe" />
    <rect x="200" y="200" width="50" height="50" class="exe" />
    <rect x="250" y="200" width="50" height="50" class="exe" />
    <rect x="300" y="200" width="50" height="50" class="exe" />
    <rect x="350" y="200" width="50" height="50" class="exe" />
    <rect x="400" y="200" width="50" height="50" class="exe" />
    <rect x="450" y="200" width="50" height="50" class="exe" />
    <rect x="500" y="200" width="50" height="50" class="exe" />
    <rect x="550" y="200" width="50" height="50" class="exe" />
    <rect x="600" y="200" width="50" height="50" class="exe" />
    <rect x="650" y="200" width="50" height="50" class="exe" />
    <rect x="700" y="200" width="50" height="50" class="exe" />
    <rect x="750" y="200" width="50" height="50" class="exe" />
    <rect x="0" y="250" width="50" height="50" class="exe" />
    <rect x="50" y="250" width="50" height="50" class="exe" />
    <rect x="100" y="250" width="50" height="50" class="exe" />
    <rect x="150" y="250" width="50" height="50" class="exe" />
    <rect x="200" y="250" width="50" height="50" class="exe" />
    <rect x="250" y="250" width="50" height="50" class="exe" />
    <rect x="300" y="250" width="50" height="50" class="exe" />
    <rect x="350" y="250" width="50" height="50" class="exe" />
    <rect x="400" y="250" width="50" height="50" class="exe" />
    <rect x="450" y="250" width="50" height="50" class="exe" />
    <rect x="500" y="250" width="50" height="50" class="exe" />
    <rect x="550" y="250" width="50" height="50" class="exe" />
    <rect x="600" y="250" width="50" height="50" class="exe" />
    <rect x="650" y="250" width="50" height="50" class="exe" />
    <rect x="700" y="250" width="50" height="50" class="exe" />
    <rect x="750" y="250" width="50" height="50" class="exe" />
    <rect x="0" y="300" width="50" height="50" class="exe" />
    <rect x="50" y="300" width="50" height="50" class="exe" />
    <rect x="100" y="300" width="50" height="50" class="exe" />
    <rect x="150" y="300" width="50" height="50" class="exe" />
    <rect x="200" y="300" width="50" height="50" class="exe" />
    <rect x="250" y="300" width="50" height="50" class="exe" />
    <rect x="300" y="300" width="50" height="50" class="exe" />
    <rect x="350" y="300" width="50" height="50" class="exe" />
    <rect x="400" y="300" width="50" height="50" class="exe" />
    <rect x="450" y="300" width="50" height="50" class="exe" />
    <rect x="500" y="300" width="50" height="50" class="exe" />
    <rect x="550" y="300" width="50" height="50" class="exe" />
    <rect x="600" y="300" width="50" height="50" class="exe" />
    <rect x="650" y="300" width="50" height="50" class="exe" />
    <rect x="700" y="300" width="50" height="50" class="exe" />
    <rect x="750" y="300" width="50" height="50" class="exe" />
    <rect x="0" y="350" width="50" height="50" class="exe" />
    <rect x="50" y="350" width="50" height="50" class="exe" />
    <rect x="100" y="350" width="50" height="50" class="exe" />
    <rect x="150" y="350" width="50" height="50" class="exe" />
    <rect x="200" y="350" width="50" height="50" class="exe" />
    <rect x="250" y="350" width="50" height="50" class="exe" />
    <rect x="300" y="350" width="50" height="50" class="exe" />
    <rect x="350" y="350" width="50" height="50" class="exe" />
    <rect x="400" y="350" width="50" height="50" class="exe" />
    <rect x="450" y="350" width="50" height="50" class="exe" />
    <rect x="500" y="350" width="50" height="50" class="exe" />
    <rect x="550" y="350" width="50" height="50" class="exe" />
    <rect x="600" y="350" width="50" height="50" class="exe" />
    <rect x="650" y="350" width="50" height="50" class="exe" />
    <rect x="700" y="350" width="50" height="50" class="exe" />
    <rect x="750" y="350" width="50" height="50" class="exe" />
    <rect x="0" y="400" width="50" height="50" class="exe" />
    <rect x="50" y="400" width="50" height="50" class="exe" />
    <rect x="100" y="400" width="50" height="50" class="exe" />
    <rect x="150" y="400" width="50" height="50" class="exe" />
    <rect x="200" y="400" width="50" height="50" class="exe" />
    <rect x="250" y="400" width="50" height="50" class="exe" />
    <rect x="300" y="400" width="50" height="50" class="exe" />
    <rect x="350" y="400" width="50" height="50" class="exe" />
    <rect x="400" y="400" width="50" height="50" class="exe" />
    <rect x="450" y="400" width="50" height="50" class="exe" />
    <rect x="500" y="400" width="50" height="50" class="exe" />
    <rect x="550" y="400" width="50" height="50" class="exe" />
    <rect x="600" y="400" width="50" height="50" class="exe" />
    <rect x="650" y="400" width="50" height="50" class="exe" />
    <rect x="700" y="400" width="50" height="50" class="exe" />
    <rect x="750" y="400" width="50" height="50" class="exe" />
    <rect x="0" y="450" width="50" height="50" class="exe" />
    <rect x="50" y="450" width="50" height="50" class="exe" />
    <rect x="100" y="450" width="50" height="50" class="exe" />
    <rect x="150" y="450" width="50" height="50" class="exe" />
    <rect x="200" y="450" width="50" height="50" class="exe" />
    <rect x="250" y="450" width="50" height="50" class="exe" />
    <rect x="300" y="450" width="50" height="50" class="exe" />
    <rect x="350" y="450" width="50" height="50" class="exe" />
    <rect x="400" y="450" width="50" height="50" class="exe" />
    <rect x="450" y="450" width="50" height="50" class="exe" />
    <rect x="500" y="450" width="50" height="50" class="exe" />
    <rect x="550" y="450" width="50" height="50" class="exe" />
    <rect x="600" y="450" width="50" height="50" class="exe" />
    <rect x="650" y="450" width="50" height="50" class="exe" />
    <rect x="700" y="450" width="50" height="50" class="exe" />
    <rect x="750" y="450" width="50" height="50" class="exe" />
    <rect x="0" y="500" width="50" height="50" class="exe" />
    <rect x="50" y="500" width="50" height="50" class="exe" />
    <rect x="100" y="500" width="50" height="50" class="exe" />
    <rect x="150" y="500" width="50" height="50" class="exe" />
    <rect x="200" y="500" width="50" height="50" class="exe" />
    <rect x="250" y="500" width="50" height="50" class="exe" />
    <rect x="300" y="500" width="50" height="50" class="exe" />
    <rect x="350" y="500" width="50" height="50" class="exe" />
    <rect x="400" y="500" width="50" height="50" class="exe" />
    <rect x="450" y="500" width="50" height="50" class="exe" />
    <rect x="500" y="500" width="50" height="50" class="exe" />
    <rect x="550" y="500" width="50" height="50" class="exe" />
    <rect x="600" y="500" width="50" height="50" class="exe" />
    <rect x="650" y="500" width="50" height="50" class="exe" />
    <rect x="700" y="500" width="50" height="50" class="exe" />
    <rect x="750" y="500" width="50" height="50" class="exe" />
    <rect x="0" y="550" width="50" height="50" class="exe" />
    <rect x="50" y="550" width="50" height="50" class="exe" />
    <rect x="100" y="550" width="50" height="50" class="exe" />
    <rect x="150" y="550" width="50" height="50" class="exe" />
    <rect x="200" y="550" width="50" height="50" class="exe" />
    <rect x="250" y="550" width="50" height="50" class="exe" />
    <rect x="300" y="550" width="50" height="50" class="exe" />
    <rect x="350" y="550" width="50" height="50" class="exe" />
    <rect x="400" y="550" width="50" height="50" class="exe" />
    <rect x="450" y="550" width="50" height="50" class="exe" />
    <rect x="500" y="550" width="50" height="50" class="exe" />
    <rect x="550" y="550" width="50" height="50" class="exe" />
    <rect x="600" y="550" width="50" height="50" class="exe" />
    <rect x="650" y="550" width="50" height="50" class="exe" />
    <rect x="700" y="550" width="50" height="50" class="exe" />
    <rect x="750" y="550" width="50" height="50" class="exe" />
    <rect x="0" y="600" width="50" height="50" class="exe" />
    <rect x="50" y="600" width="50" height="50" class="exe" />
    <rect x="100" y="600" width="50" height="50" class="exe" />
    <rect x="150" y="600" width="50" height="50" class="exe" />
    <rect x="200" y="600" width="50" height="50" class="exe" />
    <rect x="250" y="600" width="50" height="50" class="exe" />
    <rect x="300" y="600" width="50" height="50" class="exe" />
    <rect x="350" y="600" width="50" height="50" class="exe" />
    <rect x="400" y="600" width="50" height="50" class="exe" />
    <rect x="450" y="600" width="50" height="50" class="exe" />
    <rect x="500" y="600" width="50" height="50" class="exe" />
    <rect x="550" y="600" width="50" height="50" class="exe" />
    <rect x="600" y="600" width="50" height="50" class="exe" />
    <rect x="650" y="600" width="50" height="50" class="exe" />
    <rect x="700" y="600" width="50" height="50" class="exe" />
    <rect x="750" y="600" width="50" height="50" class="exe" />
    <rect x="0" y="650" width="50" height="50" class="exe" />
    <rect x="50" y="650" width="50" height="50" class="exe" />
    <rect x="100" y="650" width="50" height="50" class="exe" />
    <rect x="150" y="650" width="50" height="50" class="exe" />
    <rect x="200" y="650" width="50" height="50" class="exe" />
    <rect x="250" y="650" width="50" height="50" class="exe" />
    <rect x="300" y="650" width="50" height="50" class="exe" />
    <rect x="350" y="650" width="50" height="50" class="exe" />
    <rect x="400" y="650" width="50" height="50" class="exe" />
    <rect x="450" y="650" width="50" height="50" class="exe" />
    <rect x="500" y="650" width="50" height="50" class="exe" />
    <rect x="550" y="650" width="50" height="50" class="exe" />
    <rect x="600" y="650" width="50" height="50" class="exe" />
    <rect x="650" y="650" width="50" height="50" class="exe" />
    <rect x="700" y="650" width="50" height="50" class="exe" />
    <rect x="750" y="650" width="50" height="50" class="exe" />
    <rect x="0" y="700" width="50" height="50" class="exe" />
    <rect x="50" y="700" width="50" height="50" class="exe" />
    <rect x="100" y="700" width="50" height="50" class="exe" />
    <rect x="150" y="700" width="50" height="50" class="exe" />
    <rect x="200" y="700" width="50" height="50" class="exe" />
    <rect x="250" y="700" width="50" height="50" class="exe" />
    <rect x="300" y="700" width="50" height="50" class="exe" />
    <rect x="350" y="700" width="50" height="50" class="exe" />
    <rect x="400" y="700" width="50" height="50" class="exe" />
    <rect x="450" y="700" width="50" height="50" class="exe" />
    <rect x="500" y="700" width="50" height="50" class="exe" />
    <rect x="550" y="700" width="50" height="50" class="exe" />
    <rect x="600" y="700" width="50" height="50" class="exe" />
    <rect x="650" y="700" width="50" height="50" class="exe" />
    <rect x="700" y="700" width="50" height="50" class="exe" />
    <rect x="750" y="700" width="50" height="50" class="exe" />
    <rect x="0" y="750" width="50" height="50" class="exe" />
    <rect x="50" y="750" width="50" height="50" class="exe" />
    <rect x="100" y="750" width="50" height="50" class="exe" />
    <rect x="150" y="750" width="50" height="50" class="exe" />
    <rect x="200" y="750" width="50" height="50" class="exe" />
    <rect x="250" y="750" width="50" height="50" class="exe" />
    <rect x="300" y="750" width="50" height="50" class="exe" />
    <rect x="350" y="750" width="50" height="50" class="exe" />
    <rect x="400" y="750" width="50" height="50" class="exe" />
    <rect x="450" y="750" width="50" height="50" class="exe" />
    <rect x="500" y="750" width="50" height="50" class="exe" />
    <rect x="550" y="750" width="50" height="50" class="exe" />
    <rect x="600" y="750" width="50" height="50" class="exe" />
    <rect x="650" y="750" width="50" height="50" class="exe" />
    <rect x="700" y="750" width="50" height="50" class="exe" />
    <rect x="750" y="750" width="50" height="50" class="exe" />
    <rect x="0" y="800" width="50" height="50" class="exe" />
    <rect x="50" y="800" width="50" height="50" class="exe" />
    <rect x="100" y="800" width="50" height="50" class="exe" />
    <rect x="150" y="800" width="50" height="50" class="exe" />
    <rect x="200" y="800" width="50" height="50" class="exe" />
    <rect x="250" y="800" width="50" height="50" class="exe" />
    <rect x="300" y="800" width="50" height="50" class="exe" />
    <rect x="350" y="800" width="50" height="50" class="exe" />
    <rect x="400" y="800" width="50" height="50" class="exe" />
    <rect x="450" y="800" width="50" height="50" class="exe" />
    <rect x="500" y="800" width="50" height="50" class="exe" />
    <rect x="550" y="800" width="50" height="50" class="exe" />
    <rect x="600" y="800" width="50" height="50" class="exe" />
    <rect x="650" y="800" width="50" height="50" class="exe" />
    <rect x="700" y="800" width="50" height="50" class="exe" />
    <rect x="750" y="800" width="50" height="50" class="exe" />
    <rect x="0" y="850" width="50" height="50" class="exe" />
    <rect x="50" y="850" width="50" height="50" class="exe" />
    <rect x="100" y="850" width="50" height="50" class="exe" />
    <rect x="150" y="850" width="50" height="50" class="exe" />
    <rect x="200" y="850" width="50" height="50" class="exe" />
    <rect x="250" y="850" width="50" height="50" class="exe" />
    <rect x="300" y="850" width="50" height="50" class="exe" />
    <rect x="350" y="850" width="50" height="50" class="exe" />
    <rect x="400" y="850" width="50" height="50" class="exe" />
    <rect x="450" y="850" width="50" height="50" class="exe" />
    <rect x="500" y="850" width="50" height="50" class="exe" />
    <rect x="550" y="850" width="50" height="50" class="exe" />
    <rect x="600" y="850" width="50" height="50" class="exe" />
    <rect x="650" y="850" width="50" height="50" class="exe" />
    <rect x="700" y="850" width="50" height="50" class="exe" />
    <rect x="750" y="850" width="50" height="50" class="exe" />
    <rect x="0" y="900" width="50" height="50" class="exe" />
    <rect x="50" y="900" width="50" height="50" class="exe" />
    <rect x="100" y="900" width="50" height="50" class="exe" />
    <rect x="150" y="900" width="50" height="50" class="exe" />
    <rect x="200" y="900" width="50" height="50" class="exe" />
    <rect x="250" y="900" width="50" height="50" class="exe" />
    <rect x="300" y="900" width="50" height="50" class="exe" />
    <rect x="350" y="900" width="50" height="50" class="exe" />
    <rect x="400" y="900" width="50" height="50" class="exe" />
    <rect x="450" y="900" width="50" height="50" class="exe" />
    <rect x="500" y="900" width="50" height="50" class="exe" />
    <rect x="550" y="900" width="50" height="50" class="exe" />
    <rect x="600" y="900" width="50" height="50" class="exe" />
    <rect x="650" y="900" width="50" height="50" class="exe" />
    <rect x="700" y="900" width="50" height="50" class="exe" />
    <rect x="750" y="900" width="50" height="50" class="exe" />
    <rect x="0" y="950" width="50" height="50" class="exe" />
    <rect x="50" y="950" width="50" height="50" class="exe" />
    <rect x="100" y="950" width="50" height="50" class="exe" />
    <rect x="150" y="950" width="50" height="50" class="exe" />
    <rect x="200" y="950" width="50" height="50" class="exe" />
    <rect x="250" y="950" width="50" height="50" class="exe" />
    <rect x="300" y="950" width="50" height="50" class="exe" />
    <rect x="350" y="950" width="50" height="50" class="exe" />
    <rect x="400" y="950" width="50" height="50" class="exe" />
    <rect x="450" y="950" width="50" height="50" class="exe" />
    <rect x="500" y="950" width="50" height="50" class="exe" />
    <rect x="550" y="950" width="50" height="50" class="exe" />
    <rect x="600" y="950" width="50" height="50" class="exe" />
    <rect x="650" y="950" width="50" height="50" class="exe" />
    <rect x="700" y="950" width="50" height="50" class="exe" />
    <rect x="750" y="950" width="50" height="50" class="exe" />
    <rect x="0" y="1000" width="50" height="50" class="exe" />
    <rect x="50" y="1000" width="50" height="50" class="exe" />
    <rect x="100" y="1000" width="50" height="50" class="exe" />
    <rect x="150" y="1000" width="50" height="50" class="exe" />
    <rect x="200" y="1000" width="50" height="50" class="exe" />
    <rect x="250" y="1000" width="50" height="50" class="exe" />
    <rect x="300" y="1000" width="50" height="50" class="exe" />
    <rect x="350" y="1000" width="50" height="50" class="exe" />
    <rect x="400" y="1000" width="50" height="50" class="exe" />
    <rect x="450" y="1000" width="50" height="50" class="exe" />
    <rect x="500" y="1000" width="50" height="50" class="exe" />
    <rect x="550" y="1000" width="50" height="50" class="exe" />
    <rect x="600" y="1000" width="50" height="50" class="exe" />
    <rect x="650" y="1000" width="50" height="50" class="exe" />
    <rect x="700" y="1000" width="50" height="50" class="exe" />
    <rect x="750" y="1000" width="50" height="50" class="exe" />
    <rect x="0" y="1050" width="50" height="50" class="exe" />
    <rect x="50" y="1050" width="50" height="50" class="exe" />
    <rect x="100" y="1050" width="50" height="50" class="exe" />
    <rect x="150" y="1050" width="50" height="50" class="exe" />
    <rect x="200" y="1050" width="50" height="50" class="exe" />
    <rect x="250" y="1050" width="50" height="50" class="exe" />
    <rect x="300" y="1050" width="50" height="50" class="exe" />
    <rect x="350" y="1050" width="50" height="50" class="exe" />
    <rect x="400" y="1050" width="50" height="50" class="exe" />
    <rect x="450" y="1050" width="50" height="50" class="exe" />
    <rect x="500" y="1050" width="50" height="50" class="exe" />
    <rect x="550" y="1050" width="50" height="50" class="exe" />
    <rect x="600" y="1050" width="50" height="50" class="exe" />
    <rect x="650" y="1050" width="50" height="50" class="exe" />
    <rect x="700" y="1050" width="50" height="50" class="exe" />
    <rect x="750" y="1050" width="50" height="50" class="exe" />
    <rect x="0" y="1100" width="50" height="50" class="exe" />
    <rect x="50" y="1100" width="50" height="50" class="exe" />
    <rect x="100" y="1100" width="50" height="50" class="exe" />
    <rect x="150" y="1100" width="50" height="50" class="exe" />
    <rect x="200" y="1100" width="50" height="50" class="exe" />
    <rect x="250" y="1100" width="50" height="50" class="exe" />
    <rect x="300" y="1100" width="50" height="50" class="exe" />
    <rect x="350" y="1100" width="50" height="50" class="exe" />
    <rect x="400" y="1100" width="50" height="50" class="exe" />
    <rect x="450" y="1100" width="50" height="50" class="exe" />
    <rect x="500" y="1100" width="50" height="50" class="exe" />
    <rect x="550" y="1100" width="50" height="50" class="exe" />
    <rect x="600" y="1100" width="50" height="50" class="exe" />
    <rect x="650" y="1100" width="50" height="50" class="exe" />
    <rect x="700" y="1100" width="50" height="50" class="exe" />
    <rect x="750" y="1100" width="50" height="50" class="exe" />
    <rect x="0" y="1150" width="50" height="50" class="exe" />
    <rect x="50" y="1150" width="50" height="50" class="exe" />
    <rect x="100" y="1150" width="50" height="50" class="exe" />
    <rect x="150" y="1150" width="50" height="50" class="exe" />
    <rect x="200" y="1150" width="50" height="50" class="exe" />
    <rect x="250" y="1150" width="50" height="50" class="exe" />
    <rect x="300" y="1150" width="50" height="50" class="exe" />
    <rect x="350" y="1150" width="50" height="50" class="exe" />
    <rect x="400" y="1150" width="50" height="50" class="exe" />
    <rect x="450" y="1150" width="50" height="50" class="exe" />
    <rect x="500" y="1150" width="50" height="50" class="exe" />
    <rect x="550" y="1150" width="50" height="50" class="exe" />
    <rect x="600" y="1150" width="50" height="50" class="exe" />
    <rect x="650" y="1150" width="50" height="50" class="exe" />
    <rect x="700" y="1150" width="50" height="50" class="exe" />
    <rect x="750" y="1150" width="50" height="50" class="exe" />
    <rect x="0" y="1200" width="50" height="50" class="exe" />
    <rect x="50" y="1200" width="50" height="50" class="exe" />
    <rect x="100" y="1200" width="50" height="50" class="exe" />
    <rect x="150" y="1200" width="50" height="50" class="exe" />
    <rect x="200" y="1200" width="50" height="50" class="exe" />
    <rect x="250" y="1200" width="50" height="50" class="exe" />
    <rect x="300" y="1200" width="50" height="50" class="exe" />
    <rect x="350" y="1200" width="50" height="50" class="exe" />
    <rect x="400" y="1200" width="50" height="50" class="exe" />
    <rect x="450" y="1200" width="50" height="50" class="exe" />
    <rect x="500" y="1200" width="50" height="50" class="exe" />
    <rect x="550" y="1200" width="50" height="50" class="exe" />
    <rect x="600" y="1200" width="50" height="50" class="exe" />
    <rect x="650" y="1200" width="50" height="50" class="exe" />
    <rect x="700" y="1200" width="50" height="50" class="exe" />
    <rect x="750" y="1200" width="50" height="50" class="exe" />
    <rect x="0" y="1250" width="50" height="50" class="exe" />
    <rect x="50" y="1250" width="50" height="50" class="exe" />
    <rect x="100" y="1250" width="50" height="50" class="exe" />
    <rect x="150" y="1250" width="50" height="50" class="exe" />
    <rect x="200" y="1250" width="50" height="50" class="exe" />
    <rect x="250" y="1250" width="50" height="50" class="exe" />
    <rect x="300" y="1250" width="50" height="50" class="exe" />
    <rect x="350" y="1250" width="50" height="50" class="exe" />
    <rect x="400" y="1250" width="50" height="50" class="exe" />
    <rect x="450" y="1250" width="50" height="50" class="exe" />
    <rect x="500" y="1250" width="50" height="50" class="exe" />
    <rect x="550" y="1250" width="50" height="50" class="exe" />
    <rect x="600" y="1250" width="50" height="50" class="exe" />
    <rect x="650" y="1250" width="50" height="50" class="exe" />
    <rect x="700" y="1250" width="50" height="50" class="exe" />
    <rect x="750" y="1250" width="50" height="50" class="exe" />
    <rect x="0" y="1300" width="50" height="50" class="exe" />
    <rect x="50" y="1300" width="50" height="50" class="exe" />
    <rect x="100" y="1300" width="50" height="50" class="exe" />
    <rect x="150" y="1300" width="50" height="50" class="exe" />
    <rect x="200" y="1300" width="50" height="50" class="exe" />
    <rect x="250" y="1300" width="50" height="50" class="exe" />
    <rect x="300" y="1300" width="50" height="50" class="exe" />
    <rect x="350" y="1300" width="50" height="50" class="exe" />
    <rect x="400" y="1300" width="50" height="50" class="exe" />
    <rect x="450" y="1300" width="50" height="50" class="exe" />
    <rect x="500" y="1300" width="50" height="50" class="exe" />
    <rect x="550" y="1300" width="50" height="50" class="exe" />
    <rect x="600" y="1300" width="50" height="50" class="exe" />
    <rect x="650" y="1300" width="50" height="50" class="exe" />
    <rect x="700" y="1300" width="50" height="50" class="exe" />
    <rect x="750" y="1300" width="50" height="50" class="exe" />
    <rect x="0" y="1350" width="50" height="50" class="exe" />
    <rect x="50" y="1350" width="50" height="50" class="exe" />
    <rect x="100" y="1350" width="50" height="50" class="exe" />
    <rect x="150" y="1350" width="50" height="50" class="exe" />
    <rect x="200" y="1350" width="50" height="50" class="exe" />
    <rect x="250" y="1350" width="50" height="50" class="exe" />
    <rect x="300" y="1350" width="50" height="50" class="exe" />
    <rect x="350" y="1350" width="50" height="50" class="exe" />
    <rect x="400" y="1350" width="50" height="50" class="exe" />
    <rect x="450" y="1350" width="50" height="50" class="exe" />
    <rect x="500" y="1350" width="50" height="50" class="exe" />
    <rect x="550" y="1350" width="50" height="50" class="exe" />
    <rect x="600" y="1350" width="50" height="50" class="exe" />
    <rect x="650" y="1350" width="50" height="50" class="exe" />
    <rect x="700" y="1350" width="50" height="50" class="table" />
    <rect x="750" y="1350" width="50" height="50" class="table" />
    <rect x="0" y="1400" width="50" height="50" class="table" />
    <rect x="50" y="1400" width="50" height="50" class="table" />
    <rect x="100" y="1400" width="50" height="50" class="table" />
    <rect x="150" y="1400" width="50" height="50" class="table" />
    <rect x="200" y="1400" width="50" height="50" class="table" />
    <rect x="250" y="1400" width="50" height="50" class="table" />
    <rect x="300" y="1400" width="50" height="50" class="table" />
    <rect x="350" y="1400" width="50" height="50" class="table" />
    <rect x="400" y="1400" width="50" height="50" class="table" />
    <rect x="450" y="1400" width="50" height="50" class="table" />
    <rect x="500" y="1400" width="50" height="50" class="table" />
    <rect x="550" y="1400" width="50" height="50" class="table" />
    <rect x="600" y="1400" width="50" height="50" class="table" />
    <rect x="650" y="1400" width="50" height="50" class="table" />
    <rect x="700" y="1400" width="50" height="50" class="table" />
    <rect x="750" y="1400" width="50" height="50" class="table" />
    <rect x="0" y="1450" width="50" height="50" class="table" />
    <rect x="50" y="1450" width="50" height="50" class="table" />
    <rect x="100" y="1450" width="50" height="50" class="table" />
    <rect x="150" y="1450" width="50" height="50" class="table" />
    <rect x="200" y="1450" width="50" height="50" class="table" />
    <rect x="250" y="1450" width="50" height="50" class="table" />
    <rect x="300" y="1450" width="50" height="50" class="table" />
    <rect x="350" y="1450" width="50" height="50" class="table" />
    <rect x="400" y="1450" width="50" height="50" class="table" />
    <rect x="450" y="1450" width="50" height="50" class="table" />
    <rect x="500" y="1450" width="50" height="50" class="table" />
    <rect x="550" y="1450" width="50" height="50" class="table" />
    <rect x="600" y="1450" width="50" height="50" class="table" />
    <rect x="650" y="1450" width="50" height="50" class="table" />
    <rect x="700" y="1450" width="50" height="50" class="table" />
    <rect x="750" y="1450" width="50" height="50" class="table" />
    <rect x="0" y="1500" width="50" height="50" class="table" />
    <rect x="50" y="1500" width="50" height="50" class="table" />
    <rect x="100" y="1500" width="50" height="50" class="table" />
    <rect x="150" y="1500" width="50" height="50" class="table" />
    <rect x="200" y="1500" width="50" height="50" class="table" />
    <rect x="250" y="1500" width="50" height="50" class="table" />
    <rect x="300" y="1500" width="50" height="50" class="table" />
    <rect x="350" y="1500" width="50" height="50" class="table" />
    <rect x="400" y="1500" width="50" height="50" class="table" />
    <rect x="450" y="1500" width="50" height="50" class="table" />
    <rect x="500" y="1500" width="50" height="50" class="table" />
    <rect x="550" y="1500" width="50" height="50" class="table" />
    <rect x="600" y="1500" width="50" height="50" class="table" />
    <rect x="650" y="1500" width="50" height="50" class="table" />
    <rect x="700" y="1500" width="50" height="50" class="table" />
    <rect x="750" y="1500" width="50" height="50" class="table" />
    <rect x="0" y="1550" width="50" height="50" class="table" />
    <rect x="50" y="1550" width="50" height="50" class="table" />
    <rect x="100" y="1550" width="50" height="50" class="table" />
    <rect x="150" y="1550" width="50" height="50" class="table" />
    <rect x="200" y="1550" width="50" height="50" class="table" />
    <rect x="250" y="1550" width="50" height="50" class="table" />
    <rect x="300" y="1550" width="50" height="50" class="table" />
    <rect x="350" y="1550" width="50" height="50" class="table" />
    <rect x="400" y="1550" width="50" height="50" class="table" />
    <rect x="450" y="1550" width="50" height="50" class="table" />
    <rect x="500" y="1550" width="50" height="50" class="table" />
    <rect x="550" y="1550" width="50" height="50" class="table" />
    <rect x="600" y="1550" width="50" height="50" class="table" />
    <rect x="650" y="1550" width="50" height="50" class="table" />
    <rect x="700" y="1550" width="50" height="50" class="magic" />
    <rect x="750" y="1550" width="50" height="50" class="magic" />
    <!-- Bootloader Caption -->
    <text x="400" y="735" class="caption">Bootloader Code (446 bytes)</text>
    <!-- Partition Table Caption -->
    <text x="400" y="1485" class="caption">Partition Table (64 bytes)</text>
</svg>
