<?xml version="1.0" encoding="utf-8" standalone="no"?>
<!DOCTYPE svg PUBLIC "-//W3C//DTD SVG 1.1//EN"
  "http://www.w3.org/Graphics/SVG/1.1/DTD/svg11.dtd">
<!-- Created with matplotlib (http://matplotlib.org/) -->
<svg height="345pt" version="1.1" viewBox="0 0 460 345" width="460pt" xmlns="http://www.w3.org/2000/svg" xmlns:xlink="http://www.w3.org/1999/xlink">
 <defs>
  <style type="text/css">
*{stroke-linecap:butt;stroke-linejoin:round;}
  </style>
 </defs>
 <g id="figure_1">
  <g id="patch_1">
   <path d="M 0 345.6 
L 460.8 345.6 
L 460.8 0 
L 0 0 
z
" style="fill:#ffffff;"/>
  </g>
  <g id="axes_1">
   <g id="patch_2">
    <path d="M 51.28 150.81 
L 157.032081 150.81 
L 157.032081 14.04 
L 51.28 14.04 
z
" style="fill:#ffffff;"/>
   </g>
   <g id="matplotlib.axis_1">
    <g id="xtick_1">
     <g id="line2d_1"/>
     <g id="text_1">
      <!-- 50 -->
      <defs>
       <path d="M 4.15625 18.75 
L 13.375 19.53125 
Q 14.40625 12.796875 18.140625 9.390625 
Q 21.875 6 27.15625 6 
Q 33.5 6 37.890625 10.78125 
Q 42.28125 15.578125 42.28125 23.484375 
Q 42.28125 31 38.0625 35.34375 
Q 33.84375 39.703125 27 39.703125 
Q 22.75 39.703125 19.328125 37.765625 
Q 15.921875 35.84375 13.96875 32.765625 
L 5.71875 33.84375 
L 12.640625 70.609375 
L 48.25 70.609375 
L 48.25 62.203125 
L 19.671875 62.203125 
L 15.828125 42.96875 
Q 22.265625 47.46875 29.34375 47.46875 
Q 38.71875 47.46875 45.15625 40.96875 
Q 51.609375 34.46875 51.609375 24.265625 
Q 51.609375 14.546875 45.953125 7.46875 
Q 39.0625 -1.21875 27.15625 -1.21875 
Q 17.390625 -1.21875 11.203125 4.25 
Q 5.03125 9.71875 4.15625 18.75 
z
" id="ArialMT-35"/>
       <path d="M 4.15625 35.296875 
Q 4.15625 48 6.765625 55.734375 
Q 9.375 63.484375 14.515625 67.671875 
Q 19.671875 71.875 27.484375 71.875 
Q 33.25 71.875 37.59375 69.546875 
Q 41.9375 67.234375 44.765625 62.859375 
Q 47.609375 58.5 49.21875 52.21875 
Q 50.828125 45.953125 50.828125 35.296875 
Q 50.828125 22.703125 48.234375 14.96875 
Q 45.65625 7.234375 40.5 3 
Q 35.359375 -1.21875 27.484375 -1.21875 
Q 17.140625 -1.21875 11.234375 6.203125 
Q 4.15625 15.140625 4.15625 35.296875 
z
M 13.1875 35.296875 
Q 13.1875 17.671875 17.3125 11.828125 
Q 21.4375 6 27.484375 6 
Q 33.546875 6 37.671875 11.859375 
Q 41.796875 17.71875 41.796875 35.296875 
Q 41.796875 52.984375 37.671875 58.78125 
Q 33.546875 64.59375 27.390625 64.59375 
Q 21.34375 64.59375 17.71875 59.46875 
Q 13.1875 52.9375 13.1875 35.296875 
z
" id="ArialMT-30"/>
      </defs>
      <g style="fill:#262626;" transform="translate(71.534693 161.467812)scale(0.1 -0.1)">
       <use xlink:href="#ArialMT-35"/>
       <use x="55.615234" xlink:href="#ArialMT-30"/>
      </g>
     </g>
    </g>
    <g id="xtick_2">
     <g id="line2d_2"/>
     <g id="text_2">
      <!-- 75 -->
      <defs>
       <path d="M 4.734375 62.203125 
L 4.734375 70.65625 
L 51.078125 70.65625 
L 51.078125 63.8125 
Q 44.234375 56.546875 37.515625 44.484375 
Q 30.8125 32.421875 27.15625 19.671875 
Q 24.515625 10.6875 23.78125 0 
L 14.75 0 
Q 14.890625 8.453125 18.0625 20.40625 
Q 21.234375 32.375 27.171875 43.484375 
Q 33.109375 54.59375 39.796875 62.203125 
z
" id="ArialMT-37"/>
      </defs>
      <g style="fill:#262626;" transform="translate(108.435252 161.467812)scale(0.1 -0.1)">
       <use xlink:href="#ArialMT-37"/>
       <use x="55.615234" xlink:href="#ArialMT-35"/>
      </g>
     </g>
    </g>
    <g id="xtick_3">
     <g id="line2d_3"/>
     <g id="text_3">
      <!-- 100 -->
      <defs>
       <path d="M 37.25 0 
L 28.46875 0 
L 28.46875 56 
Q 25.296875 52.984375 20.140625 49.953125 
Q 14.984375 46.921875 10.890625 45.40625 
L 10.890625 53.90625 
Q 18.265625 57.375 23.78125 62.296875 
Q 29.296875 67.234375 31.59375 71.875 
L 37.25 71.875 
z
" id="ArialMT-31"/>
      </defs>
      <g style="fill:#262626;" transform="translate(142.555342 161.467812)scale(0.1 -0.1)">
       <use xlink:href="#ArialMT-31"/>
       <use x="55.615234" xlink:href="#ArialMT-30"/>
       <use x="111.230469" xlink:href="#ArialMT-30"/>
      </g>
     </g>
    </g>
   </g>
   <g id="matplotlib.axis_2">
    <g id="ytick_1">
     <g id="line2d_4"/>
     <g id="text_4">
      <!-- 0.00 -->
      <defs>
       <path d="M 9.078125 0 
L 9.078125 10.015625 
L 19.09375 10.015625 
L 19.09375 0 
z
" id="ArialMT-2e"/>
      </defs>
      <g style="fill:#262626;" transform="translate(28.319063 154.388906)scale(0.1 -0.1)">
       <use xlink:href="#ArialMT-30"/>
       <use x="55.615234" xlink:href="#ArialMT-2e"/>
       <use x="83.398438" xlink:href="#ArialMT-30"/>
       <use x="139.013672" xlink:href="#ArialMT-30"/>
      </g>
     </g>
    </g>
    <g id="ytick_2">
     <g id="line2d_5"/>
     <g id="text_5">
      <!-- 0.01 -->
      <g style="fill:#262626;" transform="translate(28.319063 130.166031)scale(0.1 -0.1)">
       <use xlink:href="#ArialMT-30"/>
       <use x="55.615234" xlink:href="#ArialMT-2e"/>
       <use x="83.398438" xlink:href="#ArialMT-30"/>
       <use x="139.013672" xlink:href="#ArialMT-31"/>
      </g>
     </g>
    </g>
    <g id="ytick_3">
     <g id="line2d_6"/>
     <g id="text_6">
      <!-- 0.02 -->
      <defs>
       <path d="M 50.34375 8.453125 
L 50.34375 0 
L 3.03125 0 
Q 2.9375 3.171875 4.046875 6.109375 
Q 5.859375 10.9375 9.828125 15.625 
Q 13.8125 20.3125 21.34375 26.46875 
Q 33.015625 36.03125 37.109375 41.625 
Q 41.21875 47.21875 41.21875 52.203125 
Q 41.21875 57.421875 37.46875 61 
Q 33.734375 64.59375 27.734375 64.59375 
Q 21.390625 64.59375 17.578125 60.78125 
Q 13.765625 56.984375 13.71875 50.25 
L 4.6875 51.171875 
Q 5.609375 61.28125 11.65625 66.578125 
Q 17.71875 71.875 27.9375 71.875 
Q 38.234375 71.875 44.234375 66.15625 
Q 50.25 60.453125 50.25 52 
Q 50.25 47.703125 48.484375 43.546875 
Q 46.734375 39.40625 42.65625 34.8125 
Q 38.578125 30.21875 29.109375 22.21875 
Q 21.1875 15.578125 18.9375 13.203125 
Q 16.703125 10.84375 15.234375 8.453125 
z
" id="ArialMT-32"/>
      </defs>
      <g style="fill:#262626;" transform="translate(28.319063 105.943155)scale(0.1 -0.1)">
       <use xlink:href="#ArialMT-30"/>
       <use x="55.615234" xlink:href="#ArialMT-2e"/>
       <use x="83.398438" xlink:href="#ArialMT-30"/>
       <use x="139.013672" xlink:href="#ArialMT-32"/>
      </g>
     </g>
    </g>
    <g id="ytick_4">
     <g id="line2d_7"/>
     <g id="text_7">
      <!-- 0.03 -->
      <defs>
       <path d="M 4.203125 18.890625 
L 12.984375 20.0625 
Q 14.5 12.59375 18.140625 9.296875 
Q 21.78125 6 27 6 
Q 33.203125 6 37.46875 10.296875 
Q 41.75 14.59375 41.75 20.953125 
Q 41.75 27 37.796875 30.921875 
Q 33.84375 34.859375 27.734375 34.859375 
Q 25.25 34.859375 21.53125 33.890625 
L 22.515625 41.609375 
Q 23.390625 41.5 23.921875 41.5 
Q 29.546875 41.5 34.03125 44.421875 
Q 38.53125 47.359375 38.53125 53.46875 
Q 38.53125 58.296875 35.25 61.46875 
Q 31.984375 64.65625 26.8125 64.65625 
Q 21.6875 64.65625 18.265625 61.421875 
Q 14.84375 58.203125 13.875 51.765625 
L 5.078125 53.328125 
Q 6.6875 62.15625 12.390625 67.015625 
Q 18.109375 71.875 26.609375 71.875 
Q 32.46875 71.875 37.390625 69.359375 
Q 42.328125 66.84375 44.9375 62.5 
Q 47.5625 58.15625 47.5625 53.265625 
Q 47.5625 48.640625 45.0625 44.828125 
Q 42.578125 41.015625 37.703125 38.765625 
Q 44.046875 37.3125 47.5625 32.6875 
Q 51.078125 28.078125 51.078125 21.140625 
Q 51.078125 11.765625 44.234375 5.25 
Q 37.40625 -1.265625 26.953125 -1.265625 
Q 17.53125 -1.265625 11.296875 4.34375 
Q 5.078125 9.96875 4.203125 18.890625 
z
" id="ArialMT-33"/>
      </defs>
      <g style="fill:#262626;" transform="translate(28.319063 81.720279)scale(0.1 -0.1)">
       <use xlink:href="#ArialMT-30"/>
       <use x="55.615234" xlink:href="#ArialMT-2e"/>
       <use x="83.398438" xlink:href="#ArialMT-30"/>
       <use x="139.013672" xlink:href="#ArialMT-33"/>
      </g>
     </g>
    </g>
    <g id="ytick_5">
     <g id="line2d_8"/>
     <g id="text_8">
      <!-- 0.04 -->
      <defs>
       <path d="M 32.328125 0 
L 32.328125 17.140625 
L 1.265625 17.140625 
L 1.265625 25.203125 
L 33.9375 71.578125 
L 41.109375 71.578125 
L 41.109375 25.203125 
L 50.78125 25.203125 
L 50.78125 17.140625 
L 41.109375 17.140625 
L 41.109375 0 
z
M 32.328125 25.203125 
L 32.328125 57.46875 
L 9.90625 25.203125 
z
" id="ArialMT-34"/>
      </defs>
      <g style="fill:#262626;" transform="translate(28.319063 57.497404)scale(0.1 -0.1)">
       <use xlink:href="#ArialMT-30"/>
       <use x="55.615234" xlink:href="#ArialMT-2e"/>
       <use x="83.398438" xlink:href="#ArialMT-30"/>
       <use x="139.013672" xlink:href="#ArialMT-34"/>
      </g>
     </g>
    </g>
    <g id="ytick_6">
     <g id="line2d_9"/>
     <g id="text_9">
      <!-- 0.05 -->
      <g style="fill:#262626;" transform="translate(28.319063 33.274528)scale(0.1 -0.1)">
       <use xlink:href="#ArialMT-30"/>
       <use x="55.615234" xlink:href="#ArialMT-2e"/>
       <use x="83.398438" xlink:href="#ArialMT-30"/>
       <use x="139.013672" xlink:href="#ArialMT-35"/>
      </g>
     </g>
    </g>
   </g>
   <g id="line2d_10">
    <path clip-path="url(#pcb6e986833)" d="M 57.19393 122.94566 
L 58.142659 125.7943 
L 59.091389 133.103792 
L 60.040118 134.860402 
L 60.988848 137.222405 
L 61.937577 136.012994 
L 62.886307 138.51215 
L 63.835036 146.082872 
L 64.783766 150.042345 
L 65.732495 150.757866 
L 66.681225 150.808509 
L 67.629954 150.808733 
L 68.578684 150.757051 
L 69.527413 149.873117 
L 70.476143 143.885661 
L 71.424872 129.4335 
L 72.373602 123.244854 
L 73.322331 135.962635 
L 74.271061 147.46954 
L 75.21979 150.494534 
L 76.16852 150.743809 
L 77.117249 150.023595 
L 78.065979 145.999538 
L 79.014708 138.086733 
L 79.963438 132.383609 
L 80.912167 121.648436 
L 81.860897 107.067687 
L 82.809626 112.373314 
L 83.758356 119.254717 
L 84.707085 122.178476 
L 85.655815 136.42599 
L 86.604544 147.367027 
L 87.553274 147.809185 
L 88.502004 140.963576 
L 89.450733 132.533893 
L 90.399463 117.056807 
L 91.348192 86.024956 
L 92.296922 80.821734 
L 93.245651 99.057818 
L 94.194381 103.461748 
L 95.14311 116.328999 
L 96.09184 130.124667 
L 97.040569 132.009408 
L 97.989299 124.001685 
L 98.938028 108.284396 
L 99.886758 110.617993 
L 100.835487 118.933455 
L 101.784217 120.095276 
L 102.732946 128.730224 
L 103.681676 133.413067 
L 104.630405 131.554076 
L 105.579135 120.437571 
L 106.527864 106.703359 
L 107.476594 113.167298 
L 108.425323 118.670387 
L 109.374053 115.565015 
L 110.322782 103.03881 
L 111.271512 78.285515 
L 112.220241 79.364624 
L 113.168971 80.452746 
L 114.1177 69.38611 
L 115.06643 60.707738 
L 116.015159 24.136376 
L 116.963889 20.552857 
L 117.912618 36.329101 
L 118.861348 26.370336 
L 119.810077 44.033869 
L 120.758807 46.692219 
L 121.707537 47.202165 
L 122.656266 70.39257 
L 123.604996 71.433885 
L 124.553725 79.232702 
L 125.502455 80.355042 
L 126.451184 73.495622 
L 127.399914 82.890199 
L 128.348643 75.079373 
L 129.297373 72.489622 
L 130.246102 64.452032 
L 131.194832 47.154057 
L 132.143561 76.726192 
L 133.092291 108.830855 
L 134.04102 119.07469 
L 134.98975 123.665605 
L 135.938479 120.436472 
L 136.887209 125.832153 
L 137.835938 133.084937 
L 138.784668 133.765596 
L 139.733397 131.218515 
L 140.682127 122.571674 
L 141.630856 124.201995 
L 142.579586 132.504916 
L 143.528315 135.311608 
L 144.477045 141.725416 
L 145.425774 148.235618 
L 146.374504 148.754799 
L 147.323233 143.040469 
L 148.271963 135.95166 
L 149.220692 133.18914 
L 150.169422 125.797088 
L 151.118151 122.945698 
" style="fill:none;stroke:#1f77b4;stroke-linecap:round;stroke-width:1.5;"/>
   </g>
   <g id="patch_3">
    <path d="M 51.28 150.81 
L 51.28 14.04 
" style="fill:none;stroke:#262626;stroke-linecap:square;stroke-linejoin:miter;stroke-width:1.25;"/>
   </g>
   <g id="patch_4">
    <path d="M 51.28 150.81 
L 157.032081 150.81 
" style="fill:none;stroke:#262626;stroke-linecap:square;stroke-linejoin:miter;stroke-width:1.25;"/>
   </g>
  </g>
  <g id="axes_2">
   <g id="patch_5">
    <path d="M 193.138333 150.81 
L 298.890414 150.81 
L 298.890414 14.04 
L 193.138333 14.04 
z
" style="fill:#ffffff;"/>
   </g>
   <g id="matplotlib.axis_3">
    <g id="xtick_4">
     <g id="line2d_11"/>
     <g id="text_10">
      <!-- 50 -->
      <g style="fill:#262626;" transform="translate(213.393027 161.467812)scale(0.1 -0.1)">
       <use xlink:href="#ArialMT-35"/>
       <use x="55.615234" xlink:href="#ArialMT-30"/>
      </g>
     </g>
    </g>
    <g id="xtick_5">
     <g id="line2d_12"/>
     <g id="text_11">
      <!-- 75 -->
      <g style="fill:#262626;" transform="translate(250.293585 161.467812)scale(0.1 -0.1)">
       <use xlink:href="#ArialMT-37"/>
       <use x="55.615234" xlink:href="#ArialMT-35"/>
      </g>
     </g>
    </g>
    <g id="xtick_6">
     <g id="line2d_13"/>
     <g id="text_12">
      <!-- 100 -->
      <g style="fill:#262626;" transform="translate(284.413675 161.467812)scale(0.1 -0.1)">
       <use xlink:href="#ArialMT-31"/>
       <use x="55.615234" xlink:href="#ArialMT-30"/>
       <use x="111.230469" xlink:href="#ArialMT-30"/>
      </g>
     </g>
    </g>
   </g>
   <g id="matplotlib.axis_4">
    <g id="ytick_7">
     <g id="line2d_14"/>
     <g id="text_13">
      <!-- 0.00 -->
      <g style="fill:#262626;" transform="translate(170.177396 154.388906)scale(0.1 -0.1)">
       <use xlink:href="#ArialMT-30"/>
       <use x="55.615234" xlink:href="#ArialMT-2e"/>
       <use x="83.398438" xlink:href="#ArialMT-30"/>
       <use x="139.013672" xlink:href="#ArialMT-30"/>
      </g>
     </g>
    </g>
    <g id="ytick_8">
     <g id="line2d_15"/>
     <g id="text_14">
      <!-- 0.01 -->
      <g style="fill:#262626;" transform="translate(170.177396 130.166031)scale(0.1 -0.1)">
       <use xlink:href="#ArialMT-30"/>
       <use x="55.615234" xlink:href="#ArialMT-2e"/>
       <use x="83.398438" xlink:href="#ArialMT-30"/>
       <use x="139.013672" xlink:href="#ArialMT-31"/>
      </g>
     </g>
    </g>
    <g id="ytick_9">
     <g id="line2d_16"/>
     <g id="text_15">
      <!-- 0.02 -->
      <g style="fill:#262626;" transform="translate(170.177396 105.943155)scale(0.1 -0.1)">
       <use xlink:href="#ArialMT-30"/>
       <use x="55.615234" xlink:href="#ArialMT-2e"/>
       <use x="83.398438" xlink:href="#ArialMT-30"/>
       <use x="139.013672" xlink:href="#ArialMT-32"/>
      </g>
     </g>
    </g>
    <g id="ytick_10">
     <g id="line2d_17"/>
     <g id="text_16">
      <!-- 0.03 -->
      <g style="fill:#262626;" transform="translate(170.177396 81.720279)scale(0.1 -0.1)">
       <use xlink:href="#ArialMT-30"/>
       <use x="55.615234" xlink:href="#ArialMT-2e"/>
       <use x="83.398438" xlink:href="#ArialMT-30"/>
       <use x="139.013672" xlink:href="#ArialMT-33"/>
      </g>
     </g>
    </g>
    <g id="ytick_11">
     <g id="line2d_18"/>
     <g id="text_17">
      <!-- 0.04 -->
      <g style="fill:#262626;" transform="translate(170.177396 57.497404)scale(0.1 -0.1)">
       <use xlink:href="#ArialMT-30"/>
       <use x="55.615234" xlink:href="#ArialMT-2e"/>
       <use x="83.398438" xlink:href="#ArialMT-30"/>
       <use x="139.013672" xlink:href="#ArialMT-34"/>
      </g>
     </g>
    </g>
    <g id="ytick_12">
     <g id="line2d_19"/>
     <g id="text_18">
      <!-- 0.05 -->
      <g style="fill:#262626;" transform="translate(170.177396 33.274528)scale(0.1 -0.1)">
       <use xlink:href="#ArialMT-30"/>
       <use x="55.615234" xlink:href="#ArialMT-2e"/>
       <use x="83.398438" xlink:href="#ArialMT-30"/>
       <use x="139.013672" xlink:href="#ArialMT-35"/>
      </g>
     </g>
    </g>
   </g>
   <g id="line2d_20">
    <path clip-path="url(#p0cb54e1828)" d="M 198.83086 134.349222 
L 199.784062 132.104436 
L 200.737264 132.098493 
L 201.690466 133.583194 
L 202.643669 135.663495 
L 203.596871 138.015207 
L 204.550073 140.728006 
L 205.503276 143.721378 
L 206.456478 146.524062 
L 207.40968 148.590784 
L 208.362883 149.636827 
L 209.316085 149.566043 
L 210.269287 148.209049 
L 211.22249 145.404257 
L 212.175692 141.564204 
L 213.128894 138.088406 
L 214.082096 136.756105 
L 215.035299 138.318632 
L 215.988501 141.761164 
L 216.941703 145.086473 
L 217.894906 146.661196 
L 218.848108 145.801276 
L 219.80131 142.536767 
L 220.754513 137.290017 
L 221.707715 130.87097 
L 222.660917 124.626202 
L 223.61412 120.270321 
L 224.567322 119.174121 
L 225.520524 121.627331 
L 226.473726 126.693447 
L 227.426929 132.525217 
L 228.380131 136.828191 
L 229.333333 137.527225 
L 230.286536 133.513671 
L 231.239738 125.171208 
L 232.19294 114.616495 
L 233.146143 105.312359 
L 234.099345 100.536755 
L 235.052547 101.496827 
L 236.00575 106.810727 
L 236.958952 113.599843 
L 237.912154 118.956046 
L 238.865357 121.132116 
L 239.818559 120.335435 
L 240.771761 118.497233 
L 241.724963 117.805856 
L 242.678166 119.187542 
L 243.631368 121.974974 
L 244.58457 124.591833 
L 245.537773 125.475016 
L 246.490975 123.948536 
L 247.444177 120.704449 
L 248.39738 117.19543 
L 249.350582 114.133847 
L 250.303784 110.674508 
L 251.256987 105.394288 
L 252.210189 97.986585 
L 253.163391 89.568122 
L 254.116593 81.20561 
L 255.069796 72.613936 
L 256.022998 62.814341 
L 256.9762 51.999246 
L 257.929403 42.2438 
L 258.882605 36.068735 
L 259.835807 34.523877 
L 260.78901 36.895255 
L 261.742212 41.847607 
L 262.695414 48.366688 
L 263.648617 55.749649 
L 264.601819 63.139243 
L 265.555021 69.445027 
L 266.508223 73.836151 
L 267.461426 76.136629 
L 268.414628 76.61615 
L 269.36783 75.548999 
L 270.321033 73.304677 
L 271.274235 71.076148 
L 272.227437 71.239809 
L 273.18064 76.189364 
L 274.133842 86.169735 
L 275.087044 98.534289 
L 276.040247 109.706508 
L 276.993449 117.776191 
L 277.946651 123.019564 
L 278.899853 126.446724 
L 279.853056 128.510389 
L 280.806258 129.231165 
L 281.75946 129.053805 
L 282.712663 129.092201 
L 283.665865 130.425626 
L 284.619067 133.30468 
L 285.57227 137.047977 
L 286.525472 140.471569 
L 287.478674 142.39491 
L 288.431877 142.125768 
L 289.385079 139.824293 
L 290.338281 136.496761 
L 291.291484 133.644949 
L 292.244686 132.745912 
L 293.197888 134.55988 
" style="fill:none;stroke:#1f77b4;stroke-linecap:round;stroke-width:1.5;"/>
   </g>
   <g id="patch_6">
    <path d="M 193.138333 150.81 
L 193.138333 14.04 
" style="fill:none;stroke:#262626;stroke-linecap:square;stroke-linejoin:miter;stroke-width:1.25;"/>
   </g>
   <g id="patch_7">
    <path d="M 193.138333 150.81 
L 298.890414 150.81 
" style="fill:none;stroke:#262626;stroke-linecap:square;stroke-linejoin:miter;stroke-width:1.25;"/>
   </g>
  </g>
  <g id="axes_3">
   <g id="patch_8">
    <path d="M 334.996667 150.81 
L 440.748748 150.81 
L 440.748748 14.04 
L 334.996667 14.04 
z
" style="fill:#ffffff;"/>
   </g>
   <g id="matplotlib.axis_5">
    <g id="xtick_7">
     <g id="line2d_21"/>
     <g id="text_19">
      <!-- 50 -->
      <g style="fill:#262626;" transform="translate(355.25136 161.467812)scale(0.1 -0.1)">
       <use xlink:href="#ArialMT-35"/>
       <use x="55.615234" xlink:href="#ArialMT-30"/>
      </g>
     </g>
    </g>
    <g id="xtick_8">
     <g id="line2d_22"/>
     <g id="text_20">
      <!-- 75 -->
      <g style="fill:#262626;" transform="translate(392.151919 161.467812)scale(0.1 -0.1)">
       <use xlink:href="#ArialMT-37"/>
       <use x="55.615234" xlink:href="#ArialMT-35"/>
      </g>
     </g>
    </g>
    <g id="xtick_9">
     <g id="line2d_23"/>
     <g id="text_21">
      <!-- 100 -->
      <g style="fill:#262626;" transform="translate(426.272009 161.467812)scale(0.1 -0.1)">
       <use xlink:href="#ArialMT-31"/>
       <use x="55.615234" xlink:href="#ArialMT-30"/>
       <use x="111.230469" xlink:href="#ArialMT-30"/>
      </g>
     </g>
    </g>
   </g>
   <g id="matplotlib.axis_6">
    <g id="ytick_13">
     <g id="line2d_24"/>
     <g id="text_22">
      <!-- 0.00 -->
      <g style="fill:#262626;" transform="translate(312.035729 154.388906)scale(0.1 -0.1)">
       <use xlink:href="#ArialMT-30"/>
       <use x="55.615234" xlink:href="#ArialMT-2e"/>
       <use x="83.398438" xlink:href="#ArialMT-30"/>
       <use x="139.013672" xlink:href="#ArialMT-30"/>
      </g>
     </g>
    </g>
    <g id="ytick_14">
     <g id="line2d_25"/>
     <g id="text_23">
      <!-- 0.01 -->
      <g style="fill:#262626;" transform="translate(312.035729 130.166031)scale(0.1 -0.1)">
       <use xlink:href="#ArialMT-30"/>
       <use x="55.615234" xlink:href="#ArialMT-2e"/>
       <use x="83.398438" xlink:href="#ArialMT-30"/>
       <use x="139.013672" xlink:href="#ArialMT-31"/>
      </g>
     </g>
    </g>
    <g id="ytick_15">
     <g id="line2d_26"/>
     <g id="text_24">
      <!-- 0.02 -->
      <g style="fill:#262626;" transform="translate(312.035729 105.943155)scale(0.1 -0.1)">
       <use xlink:href="#ArialMT-30"/>
       <use x="55.615234" xlink:href="#ArialMT-2e"/>
       <use x="83.398438" xlink:href="#ArialMT-30"/>
       <use x="139.013672" xlink:href="#ArialMT-32"/>
      </g>
     </g>
    </g>
    <g id="ytick_16">
     <g id="line2d_27"/>
     <g id="text_25">
      <!-- 0.03 -->
      <g style="fill:#262626;" transform="translate(312.035729 81.720279)scale(0.1 -0.1)">
       <use xlink:href="#ArialMT-30"/>
       <use x="55.615234" xlink:href="#ArialMT-2e"/>
       <use x="83.398438" xlink:href="#ArialMT-30"/>
       <use x="139.013672" xlink:href="#ArialMT-33"/>
      </g>
     </g>
    </g>
    <g id="ytick_17">
     <g id="line2d_28"/>
     <g id="text_26">
      <!-- 0.04 -->
      <g style="fill:#262626;" transform="translate(312.035729 57.497404)scale(0.1 -0.1)">
       <use xlink:href="#ArialMT-30"/>
       <use x="55.615234" xlink:href="#ArialMT-2e"/>
       <use x="83.398438" xlink:href="#ArialMT-30"/>
       <use x="139.013672" xlink:href="#ArialMT-34"/>
      </g>
     </g>
    </g>
    <g id="ytick_18">
     <g id="line2d_29"/>
     <g id="text_27">
      <!-- 0.05 -->
      <g style="fill:#262626;" transform="translate(312.035729 33.274528)scale(0.1 -0.1)">
       <use xlink:href="#ArialMT-30"/>
       <use x="55.615234" xlink:href="#ArialMT-2e"/>
       <use x="83.398438" xlink:href="#ArialMT-30"/>
       <use x="139.013672" xlink:href="#ArialMT-35"/>
      </g>
     </g>
    </g>
   </g>
   <g id="line2d_30">
    <path clip-path="url(#p0e00bce62e)" d="M 340.467789 138.025446 
L 341.425465 136.374813 
L 342.38314 135.607257 
L 343.340815 135.790608 
L 344.29849 136.821814 
L 345.256165 138.485071 
L 346.21384 140.511968 
L 347.171515 142.618121 
L 348.12919 144.520865 
L 349.086865 145.957252 
L 350.044541 146.716051 
L 351.002216 146.68412 
L 351.959891 145.895733 
L 352.917566 144.562193 
L 353.875241 143.050784 
L 354.832916 141.790796 
L 355.790591 141.120424 
L 356.748266 141.135398 
L 357.705941 141.619708 
L 358.663616 142.105624 
L 359.621292 142.042915 
L 360.578967 141.003582 
L 361.536642 138.841545 
L 362.494317 135.758002 
L 363.451992 132.260926 
L 364.409667 129.031733 
L 365.367342 126.728256 
L 366.325017 125.771444 
L 367.282692 126.180243 
L 368.240368 127.518983 
L 369.198043 128.994114 
L 370.155718 129.688273 
L 371.113393 128.866995 
L 372.071068 126.255802 
L 373.028743 122.178727 
L 373.986418 117.485081 
L 374.944093 113.268817 
L 375.901768 110.479287 
L 376.859443 109.585686 
L 377.817119 110.444946 
L 378.774794 112.429041 
L 379.732469 114.739681 
L 380.690144 116.748092 
L 381.647819 118.195765 
L 382.605494 119.177433 
L 383.563169 119.949392 
L 384.520844 120.694359 
L 385.478519 121.379671 
L 386.436194 121.771588 
L 387.39387 121.56618 
L 388.351545 120.532696 
L 389.30922 118.576525 
L 390.266895 115.701366 
L 391.22457 111.92673 
L 392.182245 107.238669 
L 393.13992 101.607187 
L 394.097595 95.041276 
L 395.05527 87.633008 
L 396.012946 79.576195 
L 396.970621 71.182337 
L 397.928296 62.906813 
L 398.885971 55.353447 
L 399.843646 49.206541 
L 400.801321 45.081513 
L 401.758996 43.352832 
L 402.716671 44.044493 
L 403.674346 46.829505 
L 404.632021 51.120813 
L 405.589697 56.201396 
L 406.547372 61.350659 
L 407.505047 65.950941 
L 408.462722 69.573652 
L 409.420397 72.045315 
L 410.378072 73.488875 
L 411.335747 74.327702 
L 412.293422 75.228436 
L 413.251097 76.957581 
L 414.208773 80.158351 
L 415.166448 85.115873 
L 416.124123 91.623895 
L 417.081798 99.038687 
L 418.039473 106.505934 
L 418.997148 113.246125 
L 419.954823 118.763719 
L 420.912498 122.914171 
L 421.870173 125.852509 
L 422.827848 127.926093 
L 423.785524 129.554912 
L 424.743199 131.112474 
L 425.700874 132.818123 
L 426.658549 134.670702 
L 427.616224 136.459763 
L 428.573899 137.865354 
L 429.531574 138.614101 
L 430.489249 138.626516 
L 431.446924 138.088197 
L 432.404599 137.407703 
L 433.362275 137.073326 
L 434.31995 137.468657 
L 435.277625 138.729533 
" style="fill:none;stroke:#1f77b4;stroke-linecap:round;stroke-width:1.5;"/>
   </g>
   <g id="patch_9">
    <path d="M 334.996667 150.81 
L 334.996667 14.04 
" style="fill:none;stroke:#262626;stroke-linecap:square;stroke-linejoin:miter;stroke-width:1.25;"/>
   </g>
   <g id="patch_10">
    <path d="M 334.996667 150.81 
L 440.748748 150.81 
" style="fill:none;stroke:#262626;stroke-linecap:square;stroke-linejoin:miter;stroke-width:1.25;"/>
   </g>
  </g>
  <g id="axes_4">
   <g id="patch_11">
    <path d="M 51.28 310.52 
L 157.032081 310.52 
L 157.032081 173.75 
L 51.28 173.75 
z
" style="fill:#ffffff;"/>
   </g>
   <g id="matplotlib.axis_7">
    <g id="xtick_10">
     <g id="line2d_31"/>
     <g id="text_28">
      <!-- 50 -->
      <g style="fill:#262626;" transform="translate(71.534693 321.177812)scale(0.1 -0.1)">
       <use xlink:href="#ArialMT-35"/>
       <use x="55.615234" xlink:href="#ArialMT-30"/>
      </g>
     </g>
    </g>
    <g id="xtick_11">
     <g id="line2d_32"/>
     <g id="text_29">
      <!-- 75 -->
      <g style="fill:#262626;" transform="translate(108.435252 321.177812)scale(0.1 -0.1)">
       <use xlink:href="#ArialMT-37"/>
       <use x="55.615234" xlink:href="#ArialMT-35"/>
      </g>
     </g>
    </g>
    <g id="xtick_12">
     <g id="line2d_33"/>
     <g id="text_30">
      <!-- 100 -->
      <g style="fill:#262626;" transform="translate(142.555342 321.177812)scale(0.1 -0.1)">
       <use xlink:href="#ArialMT-31"/>
       <use x="55.615234" xlink:href="#ArialMT-30"/>
       <use x="111.230469" xlink:href="#ArialMT-30"/>
      </g>
     </g>
    </g>
   </g>
   <g id="matplotlib.axis_8">
    <g id="ytick_19">
     <g id="line2d_34"/>
     <g id="text_31">
      <!-- 0.00 -->
      <g style="fill:#262626;" transform="translate(28.319063 314.098906)scale(0.1 -0.1)">
       <use xlink:href="#ArialMT-30"/>
       <use x="55.615234" xlink:href="#ArialMT-2e"/>
       <use x="83.398438" xlink:href="#ArialMT-30"/>
       <use x="139.013672" xlink:href="#ArialMT-30"/>
      </g>
     </g>
    </g>
    <g id="ytick_20">
     <g id="line2d_35"/>
     <g id="text_32">
      <!-- 0.01 -->
      <g style="fill:#262626;" transform="translate(28.319063 289.876031)scale(0.1 -0.1)">
       <use xlink:href="#ArialMT-30"/>
       <use x="55.615234" xlink:href="#ArialMT-2e"/>
       <use x="83.398438" xlink:href="#ArialMT-30"/>
       <use x="139.013672" xlink:href="#ArialMT-31"/>
      </g>
     </g>
    </g>
    <g id="ytick_21">
     <g id="line2d_36"/>
     <g id="text_33">
      <!-- 0.02 -->
      <g style="fill:#262626;" transform="translate(28.319063 265.653155)scale(0.1 -0.1)">
       <use xlink:href="#ArialMT-30"/>
       <use x="55.615234" xlink:href="#ArialMT-2e"/>
       <use x="83.398438" xlink:href="#ArialMT-30"/>
       <use x="139.013672" xlink:href="#ArialMT-32"/>
      </g>
     </g>
    </g>
    <g id="ytick_22">
     <g id="line2d_37"/>
     <g id="text_34">
      <!-- 0.03 -->
      <g style="fill:#262626;" transform="translate(28.319063 241.430279)scale(0.1 -0.1)">
       <use xlink:href="#ArialMT-30"/>
       <use x="55.615234" xlink:href="#ArialMT-2e"/>
       <use x="83.398438" xlink:href="#ArialMT-30"/>
       <use x="139.013672" xlink:href="#ArialMT-33"/>
      </g>
     </g>
    </g>
    <g id="ytick_23">
     <g id="line2d_38"/>
     <g id="text_35">
      <!-- 0.04 -->
      <g style="fill:#262626;" transform="translate(28.319063 217.207404)scale(0.1 -0.1)">
       <use xlink:href="#ArialMT-30"/>
       <use x="55.615234" xlink:href="#ArialMT-2e"/>
       <use x="83.398438" xlink:href="#ArialMT-30"/>
       <use x="139.013672" xlink:href="#ArialMT-34"/>
      </g>
     </g>
    </g>
    <g id="ytick_24">
     <g id="line2d_39"/>
     <g id="text_36">
      <!-- 0.05 -->
      <g style="fill:#262626;" transform="translate(28.319063 192.984528)scale(0.1 -0.1)">
       <use xlink:href="#ArialMT-30"/>
       <use x="55.615234" xlink:href="#ArialMT-2e"/>
       <use x="83.398438" xlink:href="#ArialMT-30"/>
       <use x="139.013672" xlink:href="#ArialMT-35"/>
      </g>
     </g>
    </g>
   </g>
   <g id="line2d_40">
    <path clip-path="url(#pdc15e03dc6)" d="M 56.529719 299.891407 
L 57.491867 298.806372 
L 58.454015 298.171295 
L 59.416163 298.046542 
L 60.378311 298.421963 
L 61.340459 299.217987 
L 62.302607 300.298988 
L 63.264755 301.495507 
L 64.226903 302.631193 
L 65.189051 303.550506 
L 66.151198 304.143341 
L 67.113346 304.362401 
L 68.075494 304.229001 
L 69.037642 303.823923 
L 69.99979 303.262951 
L 70.961938 302.661376 
L 71.924086 302.096704 
L 72.886234 301.581514 
L 73.848382 301.057007 
L 74.81053 300.411854 
L 75.772677 299.522236 
L 76.734825 298.300762 
L 77.696973 296.737513 
L 78.659121 294.917851 
L 79.621269 293.00849 
L 80.583417 291.213645 
L 81.545565 289.713399 
L 82.507713 288.603558 
L 83.469861 287.857501 
L 84.432009 287.325088 
L 85.394156 286.772534 
L 86.356304 285.953454 
L 87.318452 284.689661 
L 88.2806 282.935091 
L 89.242748 280.800375 
L 90.204896 278.528261 
L 91.167044 276.427322 
L 92.129192 274.786381 
L 93.09134 273.798825 
L 94.053488 273.521208 
L 95.015635 273.876331 
L 95.977783 274.693529 
L 96.939931 275.765799 
L 97.902079 276.900278 
L 98.864227 277.945616 
L 99.826375 278.7928 
L 100.788523 279.357925 
L 101.750671 279.561033 
L 102.712819 279.312895 
L 103.674967 278.514422 
L 104.637114 277.066039 
L 105.599262 274.880687 
L 106.56141 271.895148 
L 107.523558 268.077967 
L 108.485706 263.43567 
L 109.447854 258.019906 
L 110.410002 251.936687 
L 111.37215 245.35604 
L 112.334298 238.517809 
L 113.296446 231.728219 
L 114.258593 225.342585 
L 115.220741 219.732499 
L 116.182889 215.240363 
L 117.145037 212.129019 
L 118.107185 210.537616 
L 119.069333 210.455099 
L 120.031481 211.719221 
L 120.993629 214.043055 
L 121.955777 217.064462 
L 122.917925 220.409061 
L 123.880072 223.754735 
L 124.84222 226.885607 
L 125.804368 229.725054 
L 126.766516 232.340479 
L 127.728664 234.917198 
L 128.690812 237.705115 
L 129.65296 240.948946 
L 130.615108 244.81859 
L 131.577256 249.358191 
L 132.539404 254.468424 
L 133.501551 259.927133 
L 134.463699 265.441516 
L 135.425847 270.715355 
L 136.387995 275.510991 
L 137.350143 279.689034 
L 138.312291 283.217372 
L 139.274439 286.151199 
L 140.236587 288.594157 
L 141.198735 290.654993 
L 142.160883 292.41383 
L 143.12303 293.907802 
L 144.085178 295.138693 
L 145.047326 296.097445 
L 146.009474 296.794388 
L 146.971622 297.281958 
L 147.93377 297.659686 
L 148.895918 298.058277 
L 149.858066 298.608167 
L 150.820214 299.404193 
L 151.782361 300.479548 
" style="fill:none;stroke:#1f77b4;stroke-linecap:round;stroke-width:1.5;"/>
   </g>
   <g id="patch_12">
    <path d="M 51.28 310.52 
L 51.28 173.75 
" style="fill:none;stroke:#262626;stroke-linecap:square;stroke-linejoin:miter;stroke-width:1.25;"/>
   </g>
   <g id="patch_13">
    <path d="M 51.28 310.52 
L 157.032081 310.52 
" style="fill:none;stroke:#262626;stroke-linecap:square;stroke-linejoin:miter;stroke-width:1.25;"/>
   </g>
  </g>
  <g id="axes_5">
   <g id="patch_14">
    <path d="M 193.138333 310.52 
L 298.890414 310.52 
L 298.890414 173.75 
L 193.138333 173.75 
z
" style="fill:#ffffff;"/>
   </g>
   <g id="matplotlib.axis_9">
    <g id="xtick_13">
     <g id="line2d_41"/>
     <g id="text_37">
      <!-- 50 -->
      <g style="fill:#262626;" transform="translate(213.393027 321.177812)scale(0.1 -0.1)">
       <use xlink:href="#ArialMT-35"/>
       <use x="55.615234" xlink:href="#ArialMT-30"/>
      </g>
     </g>
    </g>
    <g id="xtick_14">
     <g id="line2d_42"/>
     <g id="text_38">
      <!-- 75 -->
      <g style="fill:#262626;" transform="translate(250.293585 321.177812)scale(0.1 -0.1)">
       <use xlink:href="#ArialMT-37"/>
       <use x="55.615234" xlink:href="#ArialMT-35"/>
      </g>
     </g>
    </g>
    <g id="xtick_15">
     <g id="line2d_43"/>
     <g id="text_39">
      <!-- 100 -->
      <g style="fill:#262626;" transform="translate(284.413675 321.177812)scale(0.1 -0.1)">
       <use xlink:href="#ArialMT-31"/>
       <use x="55.615234" xlink:href="#ArialMT-30"/>
       <use x="111.230469" xlink:href="#ArialMT-30"/>
      </g>
     </g>
    </g>
   </g>
   <g id="matplotlib.axis_10">
    <g id="ytick_25">
     <g id="line2d_44"/>
     <g id="text_40">
      <!-- 0.00 -->
      <g style="fill:#262626;" transform="translate(170.177396 314.098906)scale(0.1 -0.1)">
       <use xlink:href="#ArialMT-30"/>
       <use x="55.615234" xlink:href="#ArialMT-2e"/>
       <use x="83.398438" xlink:href="#ArialMT-30"/>
       <use x="139.013672" xlink:href="#ArialMT-30"/>
      </g>
     </g>
    </g>
    <g id="ytick_26">
     <g id="line2d_45"/>
     <g id="text_41">
      <!-- 0.01 -->
      <g style="fill:#262626;" transform="translate(170.177396 289.876031)scale(0.1 -0.1)">
       <use xlink:href="#ArialMT-30"/>
       <use x="55.615234" xlink:href="#ArialMT-2e"/>
       <use x="83.398438" xlink:href="#ArialMT-30"/>
       <use x="139.013672" xlink:href="#ArialMT-31"/>
      </g>
     </g>
    </g>
    <g id="ytick_27">
     <g id="line2d_46"/>
     <g id="text_42">
      <!-- 0.02 -->
      <g style="fill:#262626;" transform="translate(170.177396 265.653155)scale(0.1 -0.1)">
       <use xlink:href="#ArialMT-30"/>
       <use x="55.615234" xlink:href="#ArialMT-2e"/>
       <use x="83.398438" xlink:href="#ArialMT-30"/>
       <use x="139.013672" xlink:href="#ArialMT-32"/>
      </g>
     </g>
    </g>
    <g id="ytick_28">
     <g id="line2d_47"/>
     <g id="text_43">
      <!-- 0.03 -->
      <g style="fill:#262626;" transform="translate(170.177396 241.430279)scale(0.1 -0.1)">
       <use xlink:href="#ArialMT-30"/>
       <use x="55.615234" xlink:href="#ArialMT-2e"/>
       <use x="83.398438" xlink:href="#ArialMT-30"/>
       <use x="139.013672" xlink:href="#ArialMT-33"/>
      </g>
     </g>
    </g>
    <g id="ytick_29">
     <g id="line2d_48"/>
     <g id="text_44">
      <!-- 0.04 -->
      <g style="fill:#262626;" transform="translate(170.177396 217.207404)scale(0.1 -0.1)">
       <use xlink:href="#ArialMT-30"/>
       <use x="55.615234" xlink:href="#ArialMT-2e"/>
       <use x="83.398438" xlink:href="#ArialMT-30"/>
       <use x="139.013672" xlink:href="#ArialMT-34"/>
      </g>
     </g>
    </g>
    <g id="ytick_30">
     <g id="line2d_49"/>
     <g id="text_45">
      <!-- 0.05 -->
      <g style="fill:#262626;" transform="translate(170.177396 192.984528)scale(0.1 -0.1)">
       <use xlink:href="#ArialMT-30"/>
       <use x="55.615234" xlink:href="#ArialMT-2e"/>
       <use x="83.398438" xlink:href="#ArialMT-30"/>
       <use x="139.013672" xlink:href="#ArialMT-35"/>
      </g>
     </g>
    </g>
   </g>
   <g id="line2d_50">
    <path clip-path="url(#p6fe9818147)" d="M 198.166649 301.406832 
L 199.13327 300.653654 
L 200.099891 300.147055 
L 201.066512 299.914871 
L 202.033132 299.955237 
L 202.999753 300.235982 
L 203.966374 300.698817 
L 204.932994 301.267684 
L 205.899615 301.859765 
L 206.866236 302.397115 
L 207.832856 302.816725 
L 208.799477 303.077082 
L 209.766098 303.160023 
L 210.732718 303.067696 
L 211.699339 302.815593 
L 212.66596 302.423643 
L 213.632581 301.907895 
L 214.599201 301.275215 
L 215.565822 300.522608 
L 216.532443 299.641308 
L 217.499063 298.62428 
L 218.465684 297.474444 
L 219.432305 296.210527 
L 220.398925 294.867974 
L 221.365546 293.493858 
L 222.332167 292.136759 
L 223.298788 290.834445 
L 224.265408 289.603283 
L 225.232029 288.43316 
L 226.19865 287.290243 
L 227.16527 286.127551 
L 228.131891 284.900797 
L 229.098512 283.585066 
L 230.065132 282.187381 
L 231.031753 280.751197 
L 231.998374 279.35119 
L 232.964994 278.079515 
L 233.931615 277.02712 
L 234.898236 276.264975 
L 235.864857 275.829746 
L 236.831477 275.716816 
L 237.798098 275.881231 
L 238.764719 276.244977 
L 239.731339 276.707667 
L 240.69796 277.157544 
L 241.664581 277.480525 
L 242.631201 277.56634 
L 243.597822 277.312111 
L 244.564443 276.624487 
L 245.531063 275.421685 
L 246.497684 273.636389 
L 247.464305 271.219972 
L 248.430926 268.147867 
L 249.397546 264.425538 
L 250.364167 260.094182 
L 251.330788 255.235161 
L 252.297408 249.972 
L 253.264029 244.468811 
L 254.23065 238.924152 
L 255.19727 233.559798 
L 256.163891 228.604695 
L 257.130512 224.275376 
L 258.097132 220.755168 
L 259.063753 218.175297 
L 260.030374 216.601221 
L 260.996995 216.027021 
L 261.963615 216.379479 
L 262.930236 217.531739 
L 263.896857 219.324596 
L 264.863477 221.591811 
L 265.830098 224.184925 
L 266.796719 226.992958 
L 267.763339 229.95332 
L 268.72996 233.052005 
L 269.696581 236.313369 
L 270.663202 239.78206 
L 271.629822 243.501354 
L 272.596443 247.492924 
L 273.563064 251.742614 
L 274.529684 256.195217 
L 275.496305 260.758975 
L 276.462926 265.318128 
L 277.429546 269.749983 
L 278.396167 273.942178 
L 279.362788 277.806241 
L 280.329408 281.284977 
L 281.296029 284.35315 
L 282.26265 287.012814 
L 283.229271 289.285797 
L 284.195891 291.206135 
L 285.162512 292.814544 
L 286.129133 294.155769 
L 287.095753 295.278273 
L 288.062374 296.234785 
L 289.028995 297.081924 
L 289.995615 297.87768 
L 290.962236 298.676502 
L 291.928857 299.522915 
L 292.895477 300.445349 
L 293.862098 301.452051 
" style="fill:none;stroke:#1f77b4;stroke-linecap:round;stroke-width:1.5;"/>
   </g>
   <g id="patch_15">
    <path d="M 193.138333 310.52 
L 193.138333 173.75 
" style="fill:none;stroke:#262626;stroke-linecap:square;stroke-linejoin:miter;stroke-width:1.25;"/>
   </g>
   <g id="patch_16">
    <path d="M 193.138333 310.52 
L 298.890414 310.52 
" style="fill:none;stroke:#262626;stroke-linecap:square;stroke-linejoin:miter;stroke-width:1.25;"/>
   </g>
  </g>
  <g id="axes_6">
   <g id="patch_17">
    <path d="M 334.996667 310.52 
L 440.748748 310.52 
L 440.748748 173.75 
L 334.996667 173.75 
z
" style="fill:#ffffff;"/>
   </g>
   <g id="matplotlib.axis_11">
    <g id="xtick_16">
     <g id="line2d_51"/>
     <g id="text_46">
      <!-- 50 -->
      <g style="fill:#262626;" transform="translate(355.25136 321.177812)scale(0.1 -0.1)">
       <use xlink:href="#ArialMT-35"/>
       <use x="55.615234" xlink:href="#ArialMT-30"/>
      </g>
     </g>
    </g>
    <g id="xtick_17">
     <g id="line2d_52"/>
     <g id="text_47">
      <!-- 75 -->
      <g style="fill:#262626;" transform="translate(392.151919 321.177812)scale(0.1 -0.1)">
       <use xlink:href="#ArialMT-37"/>
       <use x="55.615234" xlink:href="#ArialMT-35"/>
      </g>
     </g>
    </g>
    <g id="xtick_18">
     <g id="line2d_53"/>
     <g id="text_48">
      <!-- 100 -->
      <g style="fill:#262626;" transform="translate(426.272009 321.177812)scale(0.1 -0.1)">
       <use xlink:href="#ArialMT-31"/>
       <use x="55.615234" xlink:href="#ArialMT-30"/>
       <use x="111.230469" xlink:href="#ArialMT-30"/>
      </g>
     </g>
    </g>
   </g>
   <g id="matplotlib.axis_12">
    <g id="ytick_31">
     <g id="line2d_54"/>
     <g id="text_49">
      <!-- 0.00 -->
      <g style="fill:#262626;" transform="translate(312.035729 314.098906)scale(0.1 -0.1)">
       <use xlink:href="#ArialMT-30"/>
       <use x="55.615234" xlink:href="#ArialMT-2e"/>
       <use x="83.398438" xlink:href="#ArialMT-30"/>
       <use x="139.013672" xlink:href="#ArialMT-30"/>
      </g>
     </g>
    </g>
    <g id="ytick_32">
     <g id="line2d_55"/>
     <g id="text_50">
      <!-- 0.01 -->
      <g style="fill:#262626;" transform="translate(312.035729 289.876031)scale(0.1 -0.1)">
       <use xlink:href="#ArialMT-30"/>
       <use x="55.615234" xlink:href="#ArialMT-2e"/>
       <use x="83.398438" xlink:href="#ArialMT-30"/>
       <use x="139.013672" xlink:href="#ArialMT-31"/>
      </g>
     </g>
    </g>
    <g id="ytick_33">
     <g id="line2d_56"/>
     <g id="text_51">
      <!-- 0.02 -->
      <g style="fill:#262626;" transform="translate(312.035729 265.653155)scale(0.1 -0.1)">
       <use xlink:href="#ArialMT-30"/>
       <use x="55.615234" xlink:href="#ArialMT-2e"/>
       <use x="83.398438" xlink:href="#ArialMT-30"/>
       <use x="139.013672" xlink:href="#ArialMT-32"/>
      </g>
     </g>
    </g>
    <g id="ytick_34">
     <g id="line2d_57"/>
     <g id="text_52">
      <!-- 0.03 -->
      <g style="fill:#262626;" transform="translate(312.035729 241.430279)scale(0.1 -0.1)">
       <use xlink:href="#ArialMT-30"/>
       <use x="55.615234" xlink:href="#ArialMT-2e"/>
       <use x="83.398438" xlink:href="#ArialMT-30"/>
       <use x="139.013672" xlink:href="#ArialMT-33"/>
      </g>
     </g>
    </g>
    <g id="ytick_35">
     <g id="line2d_58"/>
     <g id="text_53">
      <!-- 0.04 -->
      <g style="fill:#262626;" transform="translate(312.035729 217.207404)scale(0.1 -0.1)">
       <use xlink:href="#ArialMT-30"/>
       <use x="55.615234" xlink:href="#ArialMT-2e"/>
       <use x="83.398438" xlink:href="#ArialMT-30"/>
       <use x="139.013672" xlink:href="#ArialMT-34"/>
      </g>
     </g>
    </g>
    <g id="ytick_36">
     <g id="line2d_59"/>
     <g id="text_54">
      <!-- 0.05 -->
      <g style="fill:#262626;" transform="translate(312.035729 192.984528)scale(0.1 -0.1)">
       <use xlink:href="#ArialMT-30"/>
       <use x="55.615234" xlink:href="#ArialMT-2e"/>
       <use x="83.398438" xlink:href="#ArialMT-30"/>
       <use x="139.013672" xlink:href="#ArialMT-35"/>
      </g>
     </g>
    </g>
   </g>
   <g id="line2d_60">
    <path clip-path="url(#pc9275fcd3f)" d="M 339.803579 302.488729 
L 340.774673 301.913192 
L 341.745766 301.477495 
L 342.71686 301.194761 
L 343.687953 301.065151 
L 344.659047 301.075583 
L 345.63014 301.201074 
L 346.601234 301.40747 
L 347.572327 301.655152 
L 348.543421 301.903113 
L 349.514514 302.11275 
L 350.485608 302.250852 
L 351.456701 302.29141 
L 352.427795 302.216164 
L 353.398888 302.01408 
L 354.369982 301.680127 
L 355.341075 301.21384 
L 356.312169 300.618101 
L 357.283262 299.898416 
L 358.254356 299.062722 
L 359.225449 298.121534 
L 360.196543 297.088094 
L 361.167636 295.978141 
L 362.13873 294.80907 
L 363.109823 293.598464 
L 364.080917 292.362261 
L 365.05201 291.113034 
L 366.023104 289.858952 
L 366.994197 288.603865 
L 367.965291 287.34871 
L 368.936384 286.094044 
L 369.907478 284.843155 
L 370.878571 283.604952 
L 371.849665 282.395795 
L 372.820758 281.239605 
L 373.791852 280.165961 
L 374.762945 279.206365 
L 375.734039 278.389249 
L 376.705132 277.734617 
L 377.676226 277.249252 
L 378.647319 276.923305 
L 379.618412 276.72876 
L 380.589506 276.619919 
L 381.560599 276.535703 
L 382.531693 276.403334 
L 383.502786 276.14288 
L 384.47388 275.672192 
L 385.444973 274.911858 
L 386.416067 273.789993 
L 387.38716 272.246752 
L 388.358254 270.238548 
L 389.329347 267.741888 
L 390.300441 264.756705 
L 391.271534 261.308901 
L 392.242628 257.45176 
L 393.213721 253.265822 
L 394.184815 248.856849 
L 395.155908 244.351655 
L 396.127002 239.891767 
L 397.098095 235.62523 
L 398.069189 231.697122 
L 399.040282 228.239693 
L 400.011376 225.363205 
L 400.982469 223.14859 
L 401.953563 221.64292 
L 402.924656 220.858332 
L 403.89575 220.774585 
L 404.866843 221.344874 
L 405.837937 222.504002 
L 406.80903 224.177626 
L 407.780124 226.291141 
L 408.751217 228.776828 
L 409.722311 231.578273 
L 410.693404 234.651593 
L 411.664498 237.963618 
L 412.635591 241.487752 
L 413.606685 245.198663 
L 414.577778 249.067068 
L 415.548872 253.055811 
L 416.519965 257.11803 
L 417.491059 261.197742 
L 418.462152 265.232631 
L 419.433246 269.158404 
L 420.404339 272.913824 
L 421.375433 276.445506 
L 422.346526 279.711739 
L 423.31762 282.684878 
L 424.288713 285.352184 
L 425.259806 287.715301 
L 426.2309 289.788664 
L 427.201993 291.59726 
L 428.173087 293.174022 
L 429.14418 294.557086 
L 430.115274 295.78701 
L 431.086367 296.904024 
L 432.057461 297.945357 
L 433.028554 298.942805 
L 433.999648 299.920702 
L 434.970741 300.894562 
L 435.941835 301.870585 
" style="fill:none;stroke:#1f77b4;stroke-linecap:round;stroke-width:1.5;"/>
   </g>
   <g id="patch_18">
    <path d="M 334.996667 310.52 
L 334.996667 173.75 
" style="fill:none;stroke:#262626;stroke-linecap:square;stroke-linejoin:miter;stroke-width:1.25;"/>
   </g>
   <g id="patch_19">
    <path d="M 334.996667 310.52 
L 440.748748 310.52 
" style="fill:none;stroke:#262626;stroke-linecap:square;stroke-linejoin:miter;stroke-width:1.25;"/>
   </g>
  </g>
  <g id="axes_7">
   <g id="matplotlib.axis_13">
    <g id="xtick_19">
     <g id="line2d_61"/>
     <g id="text_55">
      <!-- 0.0 -->
      <g style="fill:#262626;opacity:0;" transform="translate(44.33 321.177812)scale(0.1 -0.1)">
       <use xlink:href="#ArialMT-30"/>
       <use x="55.615234" xlink:href="#ArialMT-2e"/>
       <use x="83.398438" xlink:href="#ArialMT-30"/>
      </g>
     </g>
    </g>
    <g id="xtick_20">
     <g id="line2d_62"/>
     <g id="text_56">
      <!-- 0.2 -->
      <g style="fill:#262626;opacity:0;" transform="translate(122.22375 321.177812)scale(0.1 -0.1)">
       <use xlink:href="#ArialMT-30"/>
       <use x="55.615234" xlink:href="#ArialMT-2e"/>
       <use x="83.398438" xlink:href="#ArialMT-32"/>
      </g>
     </g>
    </g>
    <g id="xtick_21">
     <g id="line2d_63"/>
     <g id="text_57">
      <!-- 0.4 -->
      <g style="fill:#262626;opacity:0;" transform="translate(200.117499 321.177812)scale(0.1 -0.1)">
       <use xlink:href="#ArialMT-30"/>
       <use x="55.615234" xlink:href="#ArialMT-2e"/>
       <use x="83.398438" xlink:href="#ArialMT-34"/>
      </g>
     </g>
    </g>
    <g id="xtick_22">
     <g id="line2d_64"/>
     <g id="text_58">
      <!-- 0.6 -->
      <defs>
       <path d="M 49.75 54.046875 
L 41.015625 53.375 
Q 39.84375 58.546875 37.703125 60.890625 
Q 34.125 64.65625 28.90625 64.65625 
Q 24.703125 64.65625 21.53125 62.3125 
Q 17.390625 59.28125 14.984375 53.46875 
Q 12.59375 47.65625 12.5 36.921875 
Q 15.671875 41.75 20.265625 44.09375 
Q 24.859375 46.4375 29.890625 46.4375 
Q 38.671875 46.4375 44.84375 39.96875 
Q 51.03125 33.5 51.03125 23.25 
Q 51.03125 16.5 48.125 10.71875 
Q 45.21875 4.9375 40.140625 1.859375 
Q 35.0625 -1.21875 28.609375 -1.21875 
Q 17.625 -1.21875 10.6875 6.859375 
Q 3.765625 14.9375 3.765625 33.5 
Q 3.765625 54.25 11.421875 63.671875 
Q 18.109375 71.875 29.4375 71.875 
Q 37.890625 71.875 43.28125 67.140625 
Q 48.6875 62.40625 49.75 54.046875 
z
M 13.875 23.1875 
Q 13.875 18.65625 15.796875 14.5 
Q 17.71875 10.359375 21.1875 8.171875 
Q 24.65625 6 28.46875 6 
Q 34.03125 6 38.03125 10.484375 
Q 42.046875 14.984375 42.046875 22.703125 
Q 42.046875 30.125 38.078125 34.390625 
Q 34.125 38.671875 28.125 38.671875 
Q 22.171875 38.671875 18.015625 34.390625 
Q 13.875 30.125 13.875 23.1875 
z
" id="ArialMT-36"/>
      </defs>
      <g style="fill:#262626;opacity:0;" transform="translate(278.011249 321.177812)scale(0.1 -0.1)">
       <use xlink:href="#ArialMT-30"/>
       <use x="55.615234" xlink:href="#ArialMT-2e"/>
       <use x="83.398438" xlink:href="#ArialMT-36"/>
      </g>
     </g>
    </g>
    <g id="xtick_23">
     <g id="line2d_65"/>
     <g id="text_59">
      <!-- 0.8 -->
      <defs>
       <path d="M 17.671875 38.8125 
Q 12.203125 40.828125 9.5625 44.53125 
Q 6.9375 48.25 6.9375 53.421875 
Q 6.9375 61.234375 12.546875 66.546875 
Q 18.171875 71.875 27.484375 71.875 
Q 36.859375 71.875 42.578125 66.421875 
Q 48.296875 60.984375 48.296875 53.171875 
Q 48.296875 48.1875 45.671875 44.5 
Q 43.0625 40.828125 37.75 38.8125 
Q 44.34375 36.671875 47.78125 31.875 
Q 51.21875 27.09375 51.21875 20.453125 
Q 51.21875 11.28125 44.71875 5.03125 
Q 38.234375 -1.21875 27.640625 -1.21875 
Q 17.046875 -1.21875 10.546875 5.046875 
Q 4.046875 11.328125 4.046875 20.703125 
Q 4.046875 27.6875 7.59375 32.390625 
Q 11.140625 37.109375 17.671875 38.8125 
z
M 15.921875 53.71875 
Q 15.921875 48.640625 19.1875 45.40625 
Q 22.46875 42.1875 27.6875 42.1875 
Q 32.765625 42.1875 36.015625 45.375 
Q 39.265625 48.578125 39.265625 53.21875 
Q 39.265625 58.0625 35.90625 61.359375 
Q 32.5625 64.65625 27.59375 64.65625 
Q 22.5625 64.65625 19.234375 61.421875 
Q 15.921875 58.203125 15.921875 53.71875 
z
M 13.09375 20.65625 
Q 13.09375 16.890625 14.875 13.375 
Q 16.65625 9.859375 20.171875 7.921875 
Q 23.6875 6 27.734375 6 
Q 34.03125 6 38.125 10.046875 
Q 42.234375 14.109375 42.234375 20.359375 
Q 42.234375 26.703125 38.015625 30.859375 
Q 33.796875 35.015625 27.4375 35.015625 
Q 21.234375 35.015625 17.15625 30.90625 
Q 13.09375 26.8125 13.09375 20.65625 
z
" id="ArialMT-38"/>
      </defs>
      <g style="fill:#262626;opacity:0;" transform="translate(355.904998 321.177812)scale(0.1 -0.1)">
       <use xlink:href="#ArialMT-30"/>
       <use x="55.615234" xlink:href="#ArialMT-2e"/>
       <use x="83.398438" xlink:href="#ArialMT-38"/>
      </g>
     </g>
    </g>
    <g id="xtick_24">
     <g id="line2d_66"/>
     <g id="text_60">
      <!-- 1.0 -->
      <g style="fill:#262626;opacity:0;" transform="translate(433.798748 321.177812)scale(0.1 -0.1)">
       <use xlink:href="#ArialMT-31"/>
       <use x="55.615234" xlink:href="#ArialMT-2e"/>
       <use x="83.398438" xlink:href="#ArialMT-30"/>
      </g>
     </g>
    </g>
    <g id="text_61">
     <!-- Marks (%) -->
     <defs>
      <path d="M 7.421875 0 
L 7.421875 71.578125 
L 21.6875 71.578125 
L 38.625 20.90625 
Q 40.96875 13.8125 42.046875 10.296875 
Q 43.265625 14.203125 45.84375 21.78125 
L 62.984375 71.578125 
L 75.734375 71.578125 
L 75.734375 0 
L 66.609375 0 
L 66.609375 59.90625 
L 45.796875 0 
L 37.25 0 
L 16.546875 60.9375 
L 16.546875 0 
z
" id="ArialMT-4d"/>
      <path d="M 40.4375 6.390625 
Q 35.546875 2.25 31.03125 0.53125 
Q 26.515625 -1.171875 21.34375 -1.171875 
Q 12.796875 -1.171875 8.203125 3 
Q 3.609375 7.171875 3.609375 13.671875 
Q 3.609375 17.484375 5.34375 20.625 
Q 7.078125 23.78125 9.890625 25.6875 
Q 12.703125 27.59375 16.21875 28.5625 
Q 18.796875 29.25 24.03125 29.890625 
Q 34.671875 31.15625 39.703125 32.90625 
Q 39.75 34.71875 39.75 35.203125 
Q 39.75 40.578125 37.25 42.78125 
Q 33.890625 45.75 27.25 45.75 
Q 21.046875 45.75 18.09375 43.578125 
Q 15.140625 41.40625 13.71875 35.890625 
L 5.125 37.0625 
Q 6.296875 42.578125 8.984375 45.96875 
Q 11.671875 49.359375 16.75 51.1875 
Q 21.828125 53.03125 28.515625 53.03125 
Q 35.15625 53.03125 39.296875 51.46875 
Q 43.453125 49.90625 45.40625 47.53125 
Q 47.359375 45.171875 48.140625 41.546875 
Q 48.578125 39.3125 48.578125 33.453125 
L 48.578125 21.734375 
Q 48.578125 9.46875 49.140625 6.21875 
Q 49.703125 2.984375 51.375 0 
L 42.1875 0 
Q 40.828125 2.734375 40.4375 6.390625 
z
M 39.703125 26.03125 
Q 34.90625 24.078125 25.34375 22.703125 
Q 19.921875 21.921875 17.671875 20.9375 
Q 15.4375 19.96875 14.203125 18.09375 
Q 12.984375 16.21875 12.984375 13.921875 
Q 12.984375 10.40625 15.640625 8.0625 
Q 18.3125 5.71875 23.4375 5.71875 
Q 28.515625 5.71875 32.46875 7.9375 
Q 36.421875 10.15625 38.28125 14.015625 
Q 39.703125 17 39.703125 22.796875 
z
" id="ArialMT-61"/>
      <path d="M 6.5 0 
L 6.5 51.859375 
L 14.40625 51.859375 
L 14.40625 44 
Q 17.4375 49.515625 20 51.265625 
Q 22.5625 53.03125 25.640625 53.03125 
Q 30.078125 53.03125 34.671875 50.203125 
L 31.640625 42.046875 
Q 28.421875 43.953125 25.203125 43.953125 
Q 22.3125 43.953125 20.015625 42.21875 
Q 17.71875 40.484375 16.75 37.40625 
Q 15.28125 32.71875 15.28125 27.15625 
L 15.28125 0 
z
" id="ArialMT-72"/>
      <path d="M 6.640625 0 
L 6.640625 71.578125 
L 15.4375 71.578125 
L 15.4375 30.765625 
L 36.234375 51.859375 
L 47.609375 51.859375 
L 27.78125 32.625 
L 49.609375 0 
L 38.765625 0 
L 21.625 26.515625 
L 15.4375 20.5625 
L 15.4375 0 
z
" id="ArialMT-6b"/>
      <path d="M 3.078125 15.484375 
L 11.765625 16.84375 
Q 12.5 11.625 15.84375 8.84375 
Q 19.1875 6.0625 25.203125 6.0625 
Q 31.25 6.0625 34.171875 8.515625 
Q 37.109375 10.984375 37.109375 14.3125 
Q 37.109375 17.28125 34.515625 19 
Q 32.71875 20.171875 25.53125 21.96875 
Q 15.875 24.421875 12.140625 26.203125 
Q 8.40625 27.984375 6.46875 31.125 
Q 4.546875 34.28125 4.546875 38.09375 
Q 4.546875 41.546875 6.125 44.5 
Q 7.71875 47.46875 10.453125 49.421875 
Q 12.5 50.921875 16.03125 51.96875 
Q 19.578125 53.03125 23.640625 53.03125 
Q 29.734375 53.03125 34.34375 51.265625 
Q 38.96875 49.515625 41.15625 46.5 
Q 43.359375 43.5 44.1875 38.484375 
L 35.59375 37.3125 
Q 35.015625 41.3125 32.203125 43.546875 
Q 29.390625 45.796875 24.265625 45.796875 
Q 18.21875 45.796875 15.625 43.796875 
Q 13.03125 41.796875 13.03125 39.109375 
Q 13.03125 37.40625 14.109375 36.03125 
Q 15.1875 34.625 17.484375 33.6875 
Q 18.796875 33.203125 25.25 31.453125 
Q 34.578125 28.953125 38.25 27.359375 
Q 41.9375 25.78125 44.03125 22.75 
Q 46.140625 19.734375 46.140625 15.234375 
Q 46.140625 10.84375 43.578125 6.953125 
Q 41.015625 3.078125 36.171875 0.953125 
Q 31.34375 -1.171875 25.25 -1.171875 
Q 15.140625 -1.171875 9.84375 3.03125 
Q 4.546875 7.234375 3.078125 15.484375 
z
" id="ArialMT-73"/>
      <path id="ArialMT-20"/>
      <path d="M 23.390625 -21.046875 
Q 16.109375 -11.859375 11.078125 0.4375 
Q 6.0625 12.75 6.0625 25.921875 
Q 6.0625 37.546875 9.8125 48.1875 
Q 14.203125 60.546875 23.390625 72.796875 
L 29.6875 72.796875 
Q 23.78125 62.640625 21.875 58.296875 
Q 18.890625 51.5625 17.1875 44.234375 
Q 15.09375 35.109375 15.09375 25.875 
Q 15.09375 2.390625 29.6875 -21.046875 
z
" id="ArialMT-28"/>
      <path d="M 5.8125 54.390625 
Q 5.8125 62.0625 9.671875 67.421875 
Q 13.53125 72.796875 20.84375 72.796875 
Q 27.59375 72.796875 32 67.984375 
Q 36.421875 63.1875 36.421875 53.859375 
Q 36.421875 44.78125 31.953125 39.875 
Q 27.484375 34.96875 20.953125 34.96875 
Q 14.453125 34.96875 10.125 39.796875 
Q 5.8125 44.625 5.8125 54.390625 
z
M 21.09375 66.75 
Q 17.828125 66.75 15.65625 63.90625 
Q 13.484375 61.078125 13.484375 53.515625 
Q 13.484375 46.625 15.671875 43.8125 
Q 17.875 41.015625 21.09375 41.015625 
Q 24.421875 41.015625 26.59375 43.84375 
Q 28.765625 46.6875 28.765625 54.203125 
Q 28.765625 61.140625 26.5625 63.9375 
Q 24.359375 66.75 21.09375 66.75 
z
M 21.140625 -2.640625 
L 60.296875 72.796875 
L 67.4375 72.796875 
L 28.421875 -2.640625 
z
M 52.09375 16.796875 
Q 52.09375 24.515625 55.953125 29.859375 
Q 59.8125 35.203125 67.1875 35.203125 
Q 73.921875 35.203125 78.34375 30.390625 
Q 82.765625 25.59375 82.765625 16.265625 
Q 82.765625 7.171875 78.296875 2.265625 
Q 73.828125 -2.640625 67.234375 -2.640625 
Q 60.75 -2.640625 56.421875 2.21875 
Q 52.09375 7.078125 52.09375 16.796875 
z
M 67.4375 29.15625 
Q 64.109375 29.15625 61.9375 26.3125 
Q 59.765625 23.484375 59.765625 15.921875 
Q 59.765625 9.078125 61.953125 6.25 
Q 64.15625 3.421875 67.390625 3.421875 
Q 70.75 3.421875 72.921875 6.25 
Q 75.09375 9.078125 75.09375 16.609375 
Q 75.09375 23.53125 72.890625 26.34375 
Q 70.703125 29.15625 67.4375 29.15625 
z
" id="ArialMT-25"/>
      <path d="M 12.359375 -21.046875 
L 6.0625 -21.046875 
Q 20.65625 2.390625 20.65625 25.875 
Q 20.65625 35.0625 18.5625 44.09375 
Q 16.890625 51.421875 13.921875 58.15625 
Q 12.015625 62.546875 6.0625 72.796875 
L 12.359375 72.796875 
Q 21.53125 60.546875 25.921875 48.1875 
Q 29.6875 37.546875 29.6875 25.921875 
Q 29.6875 12.75 24.625 0.4375 
Q 19.578125 -11.859375 12.359375 -21.046875 
z
" id="ArialMT-29"/>
     </defs>
     <g style="fill:#262626;" transform="translate(223.239374 334.445)scale(0.1 -0.1)">
      <use xlink:href="#ArialMT-4d"/>
      <use x="83.300781" xlink:href="#ArialMT-61"/>
      <use x="138.916016" xlink:href="#ArialMT-72"/>
      <use x="172.216797" xlink:href="#ArialMT-6b"/>
      <use x="222.216797" xlink:href="#ArialMT-73"/>
      <use x="272.216797" xlink:href="#ArialMT-20"/>
      <use x="300" xlink:href="#ArialMT-28"/>
      <use x="333.300781" xlink:href="#ArialMT-25"/>
      <use x="422.216797" xlink:href="#ArialMT-29"/>
     </g>
    </g>
   </g>
   <g id="matplotlib.axis_14">
    <g id="ytick_37">
     <g id="line2d_67"/>
     <g id="text_62">
      <!-- 0.0 -->
      <g style="fill:#262626;opacity:0;" transform="translate(33.88 314.098906)scale(0.1 -0.1)">
       <use xlink:href="#ArialMT-30"/>
       <use x="55.615234" xlink:href="#ArialMT-2e"/>
       <use x="83.398438" xlink:href="#ArialMT-30"/>
      </g>
     </g>
    </g>
    <g id="ytick_38">
     <g id="line2d_68"/>
     <g id="text_63">
      <!-- 0.2 -->
      <g style="fill:#262626;opacity:0;" transform="translate(33.88 254.802906)scale(0.1 -0.1)">
       <use xlink:href="#ArialMT-30"/>
       <use x="55.615234" xlink:href="#ArialMT-2e"/>
       <use x="83.398438" xlink:href="#ArialMT-32"/>
      </g>
     </g>
    </g>
    <g id="ytick_39">
     <g id="line2d_69"/>
     <g id="text_64">
      <!-- 0.4 -->
      <g style="fill:#262626;opacity:0;" transform="translate(33.88 195.506906)scale(0.1 -0.1)">
       <use xlink:href="#ArialMT-30"/>
       <use x="55.615234" xlink:href="#ArialMT-2e"/>
       <use x="83.398438" xlink:href="#ArialMT-34"/>
      </g>
     </g>
    </g>
    <g id="ytick_40">
     <g id="line2d_70"/>
     <g id="text_65">
      <!-- 0.6 -->
      <g style="fill:#262626;opacity:0;" transform="translate(33.88 136.210906)scale(0.1 -0.1)">
       <use xlink:href="#ArialMT-30"/>
       <use x="55.615234" xlink:href="#ArialMT-2e"/>
       <use x="83.398438" xlink:href="#ArialMT-36"/>
      </g>
     </g>
    </g>
    <g id="ytick_41">
     <g id="line2d_71"/>
     <g id="text_66">
      <!-- 0.8 -->
      <g style="fill:#262626;opacity:0;" transform="translate(33.88 76.914906)scale(0.1 -0.1)">
       <use xlink:href="#ArialMT-30"/>
       <use x="55.615234" xlink:href="#ArialMT-2e"/>
       <use x="83.398438" xlink:href="#ArialMT-38"/>
      </g>
     </g>
    </g>
    <g id="ytick_42">
     <g id="line2d_72"/>
     <g id="text_67">
      <!-- 1.0 -->
      <g style="fill:#262626;opacity:0;" transform="translate(33.88 17.618906)scale(0.1 -0.1)">
       <use xlink:href="#ArialMT-31"/>
       <use x="55.615234" xlink:href="#ArialMT-2e"/>
       <use x="83.398438" xlink:href="#ArialMT-30"/>
      </g>
     </g>
    </g>
    <g id="text_68">
     <!-- $\rho(\operatorname{Marks})$ -->
     <defs>
      <path d="M 18.796875 44.921875 
Q 22.703125 49.90625 30.953125 54.296875 
Q 34.1875 56 43.0625 56 
Q 53.03125 56 57.71875 48.09375 
Q 62.40625 40.1875 59.90625 27.296875 
Q 57.375 14.40625 49.609375 6.484375 
Q 41.84375 -1.421875 31.890625 -1.421875 
Q 25.875 -1.421875 22.015625 0.984375 
Q 18.171875 3.328125 16.3125 8.203125 
L 10.640625 -20.796875 
L 1.609375 -20.796875 
L 10.890625 26.8125 
Q 13.09375 38.09375 18.796875 44.921875 
z
M 50.59375 27.296875 
Q 52.484375 37.203125 49.515625 42.875 
Q 46.53125 48.484375 39.40625 48.484375 
Q 32.28125 48.484375 27.09375 42.875 
Q 21.921875 37.203125 20.015625 27.296875 
Q 18.0625 17.390625 21.046875 11.71875 
Q 24.03125 6.109375 31.15625 6.109375 
Q 38.28125 6.109375 43.453125 11.71875 
Q 48.640625 17.390625 50.59375 27.296875 
z
" id="DejaVuSans-Oblique-3c1"/>
      <path d="M 31 75.875 
Q 24.46875 64.65625 21.28125 53.65625 
Q 18.109375 42.671875 18.109375 31.390625 
Q 18.109375 20.125 21.3125 9.0625 
Q 24.515625 -2 31 -13.1875 
L 23.1875 -13.1875 
Q 15.875 -1.703125 12.234375 9.375 
Q 8.59375 20.453125 8.59375 31.390625 
Q 8.59375 42.28125 12.203125 53.3125 
Q 15.828125 64.359375 23.1875 75.875 
z
" id="DejaVuSans-28"/>
      <path d="M 9.8125 72.90625 
L 24.515625 72.90625 
L 43.109375 23.296875 
L 61.8125 72.90625 
L 76.515625 72.90625 
L 76.515625 0 
L 66.890625 0 
L 66.890625 64.015625 
L 48.09375 14.015625 
L 38.1875 14.015625 
L 19.390625 64.015625 
L 19.390625 0 
L 9.8125 0 
z
" id="DejaVuSans-4d"/>
      <path d="M 34.28125 27.484375 
Q 23.390625 27.484375 19.1875 25 
Q 14.984375 22.515625 14.984375 16.5 
Q 14.984375 11.71875 18.140625 8.90625 
Q 21.296875 6.109375 26.703125 6.109375 
Q 34.1875 6.109375 38.703125 11.40625 
Q 43.21875 16.703125 43.21875 25.484375 
L 43.21875 27.484375 
z
M 52.203125 31.203125 
L 52.203125 0 
L 43.21875 0 
L 43.21875 8.296875 
Q 40.140625 3.328125 35.546875 0.953125 
Q 30.953125 -1.421875 24.3125 -1.421875 
Q 15.921875 -1.421875 10.953125 3.296875 
Q 6 8.015625 6 15.921875 
Q 6 25.140625 12.171875 29.828125 
Q 18.359375 34.515625 30.609375 34.515625 
L 43.21875 34.515625 
L 43.21875 35.40625 
Q 43.21875 41.609375 39.140625 45 
Q 35.0625 48.390625 27.6875 48.390625 
Q 23 48.390625 18.546875 47.265625 
Q 14.109375 46.140625 10.015625 43.890625 
L 10.015625 52.203125 
Q 14.9375 54.109375 19.578125 55.046875 
Q 24.21875 56 28.609375 56 
Q 40.484375 56 46.34375 49.84375 
Q 52.203125 43.703125 52.203125 31.203125 
z
" id="DejaVuSans-61"/>
      <path d="M 41.109375 46.296875 
Q 39.59375 47.171875 37.8125 47.578125 
Q 36.03125 48 33.890625 48 
Q 26.265625 48 22.1875 43.046875 
Q 18.109375 38.09375 18.109375 28.8125 
L 18.109375 0 
L 9.078125 0 
L 9.078125 54.6875 
L 18.109375 54.6875 
L 18.109375 46.1875 
Q 20.953125 51.171875 25.484375 53.578125 
Q 30.03125 56 36.53125 56 
Q 37.453125 56 38.578125 55.875 
Q 39.703125 55.765625 41.0625 55.515625 
z
" id="DejaVuSans-72"/>
      <path d="M 9.078125 75.984375 
L 18.109375 75.984375 
L 18.109375 31.109375 
L 44.921875 54.6875 
L 56.390625 54.6875 
L 27.390625 29.109375 
L 57.625 0 
L 45.90625 0 
L 18.109375 26.703125 
L 18.109375 0 
L 9.078125 0 
z
" id="DejaVuSans-6b"/>
      <path d="M 44.28125 53.078125 
L 44.28125 44.578125 
Q 40.484375 46.53125 36.375 47.5 
Q 32.28125 48.484375 27.875 48.484375 
Q 21.1875 48.484375 17.84375 46.4375 
Q 14.5 44.390625 14.5 40.28125 
Q 14.5 37.15625 16.890625 35.375 
Q 19.28125 33.59375 26.515625 31.984375 
L 29.59375 31.296875 
Q 39.15625 29.25 43.1875 25.515625 
Q 47.21875 21.78125 47.21875 15.09375 
Q 47.21875 7.46875 41.1875 3.015625 
Q 35.15625 -1.421875 24.609375 -1.421875 
Q 20.21875 -1.421875 15.453125 -0.5625 
Q 10.6875 0.296875 5.421875 2 
L 5.421875 11.28125 
Q 10.40625 8.6875 15.234375 7.390625 
Q 20.0625 6.109375 24.8125 6.109375 
Q 31.15625 6.109375 34.5625 8.28125 
Q 37.984375 10.453125 37.984375 14.40625 
Q 37.984375 18.0625 35.515625 20.015625 
Q 33.0625 21.96875 24.703125 23.78125 
L 21.578125 24.515625 
Q 13.234375 26.265625 9.515625 29.90625 
Q 5.8125 33.546875 5.8125 39.890625 
Q 5.8125 47.609375 11.28125 51.796875 
Q 16.75 56 26.8125 56 
Q 31.78125 56 36.171875 55.265625 
Q 40.578125 54.546875 44.28125 53.078125 
z
" id="DejaVuSans-73"/>
      <path d="M 8.015625 75.875 
L 15.828125 75.875 
Q 23.140625 64.359375 26.78125 53.3125 
Q 30.421875 42.28125 30.421875 31.390625 
Q 30.421875 20.453125 26.78125 9.375 
Q 23.140625 -1.703125 15.828125 -13.1875 
L 8.015625 -13.1875 
Q 14.5 -2 17.703125 9.0625 
Q 20.90625 20.125 20.90625 31.390625 
Q 20.90625 42.671875 17.703125 53.65625 
Q 14.5 64.65625 8.015625 75.875 
z
" id="DejaVuSans-29"/>
     </defs>
     <g style="fill:#262626;" transform="translate(27.78 184.33)rotate(-90)scale(0.1 -0.1)">
      <use transform="translate(0 0.015625)" xlink:href="#DejaVuSans-Oblique-3c1"/>
      <use transform="translate(63.476562 0.015625)" xlink:href="#DejaVuSans-28"/>
      <use transform="translate(102.490234 0.015625)" xlink:href="#DejaVuSans-4d"/>
      <use transform="translate(188.769531 0.015625)" xlink:href="#DejaVuSans-61"/>
      <use transform="translate(250.048828 0.015625)" xlink:href="#DejaVuSans-72"/>
      <use transform="translate(291.162109 0.015625)" xlink:href="#DejaVuSans-6b"/>
      <use transform="translate(349.072266 0.015625)" xlink:href="#DejaVuSans-73"/>
      <use transform="translate(401.171875 0.015625)" xlink:href="#DejaVuSans-29"/>
     </g>
    </g>
   </g>
  </g>
 </g>
 <defs>
  <clipPath id="pcb6e986833">
   <rect height="136.77" width="105.752081" x="51.28" y="14.04"/>
  </clipPath>
  <clipPath id="p0cb54e1828">
   <rect height="136.77" width="105.752081" x="193.138333" y="14.04"/>
  </clipPath>
  <clipPath id="p0e00bce62e">
   <rect height="136.77" width="105.752081" x="334.996667" y="14.04"/>
  </clipPath>
  <clipPath id="pdc15e03dc6">
   <rect height="136.77" width="105.752081" x="51.28" y="173.75"/>
  </clipPath>
  <clipPath id="p6fe9818147">
   <rect height="136.77" width="105.752081" x="193.138333" y="173.75"/>
  </clipPath>
  <clipPath id="pc9275fcd3f">
   <rect height="136.77" width="105.752081" x="334.996667" y="173.75"/>
  </clipPath>
 </defs>
</svg>
