<?xml version="1.0" encoding="utf-8" standalone="no"?>
<!DOCTYPE svg PUBLIC "-//W3C//DTD SVG 1.1//EN"
  "http://www.w3.org/Graphics/SVG/1.1/DTD/svg11.dtd">
<!-- Created with matplotlib (http://matplotlib.org/) -->
<svg height="345pt" version="1.1" viewBox="0 0 460 345" width="460pt" xmlns="http://www.w3.org/2000/svg" xmlns:xlink="http://www.w3.org/1999/xlink">
 <defs>
  <style type="text/css">
*{stroke-linecap:butt;stroke-linejoin:round;}
  </style>
 </defs>
 <g id="figure_1">
  <g id="patch_1">
   <path d="M 0 345.6 
L 460.8 345.6 
L 460.8 0 
L 0 0 
z
" style="fill:#ffffff;"/>
  </g>
  <g id="axes_1">
   <g id="patch_2">
    <path d="M 57.6 307.584 
L 414.72 307.584 
L 414.72 41.472 
L 57.6 41.472 
z
" style="fill:#ffffff;"/>
   </g>
   <g id="matplotlib.axis_1">
    <g id="xtick_1">
     <g id="line2d_1"/>
     <g id="text_1">
      <!-- 1 -->
      <defs>
       <path d="M 37.25 0 
L 28.46875 0 
L 28.46875 56 
Q 25.296875 52.984375 20.140625 49.953125 
Q 14.984375 46.921875 10.890625 45.40625 
L 10.890625 53.90625 
Q 18.265625 57.375 23.78125 62.296875 
Q 29.296875 67.234375 31.59375 71.875 
L 37.25 71.875 
z
" id="ArialMT-31"/>
      </defs>
      <g style="fill:#262626;" transform="translate(64.688388 318.241812)scale(0.1 -0.1)">
       <use xlink:href="#ArialMT-31"/>
      </g>
     </g>
    </g>
    <g id="xtick_2">
     <g id="line2d_2"/>
     <g id="text_2">
      <!-- 2 -->
      <defs>
       <path d="M 50.34375 8.453125 
L 50.34375 0 
L 3.03125 0 
Q 2.9375 3.171875 4.046875 6.109375 
Q 5.859375 10.9375 9.828125 15.625 
Q 13.8125 20.3125 21.34375 26.46875 
Q 33.015625 36.03125 37.109375 41.625 
Q 41.21875 47.21875 41.21875 52.203125 
Q 41.21875 57.421875 37.46875 61 
Q 33.734375 64.59375 27.734375 64.59375 
Q 21.390625 64.59375 17.578125 60.78125 
Q 13.765625 56.984375 13.71875 50.25 
L 4.6875 51.171875 
Q 5.609375 61.28125 11.65625 66.578125 
Q 17.71875 71.875 27.9375 71.875 
Q 38.234375 71.875 44.234375 66.15625 
Q 50.25 60.453125 50.25 52 
Q 50.25 47.703125 48.484375 43.546875 
Q 46.734375 39.40625 42.65625 34.8125 
Q 38.578125 30.21875 29.109375 22.21875 
Q 21.1875 15.578125 18.9375 13.203125 
Q 16.703125 10.84375 15.234375 8.453125 
z
" id="ArialMT-32"/>
      </defs>
      <g style="fill:#262626;" transform="translate(105.040854 318.241812)scale(0.1 -0.1)">
       <use xlink:href="#ArialMT-32"/>
      </g>
     </g>
    </g>
    <g id="xtick_3">
     <g id="line2d_3"/>
     <g id="text_3">
      <!-- 3 -->
      <defs>
       <path d="M 4.203125 18.890625 
L 12.984375 20.0625 
Q 14.5 12.59375 18.140625 9.296875 
Q 21.78125 6 27 6 
Q 33.203125 6 37.46875 10.296875 
Q 41.75 14.59375 41.75 20.953125 
Q 41.75 27 37.796875 30.921875 
Q 33.84375 34.859375 27.734375 34.859375 
Q 25.25 34.859375 21.53125 33.890625 
L 22.515625 41.609375 
Q 23.390625 41.5 23.921875 41.5 
Q 29.546875 41.5 34.03125 44.421875 
Q 38.53125 47.359375 38.53125 53.46875 
Q 38.53125 58.296875 35.25 61.46875 
Q 31.984375 64.65625 26.8125 64.65625 
Q 21.6875 64.65625 18.265625 61.421875 
Q 14.84375 58.203125 13.875 51.765625 
L 5.078125 53.328125 
Q 6.6875 62.15625 12.390625 67.015625 
Q 18.109375 71.875 26.609375 71.875 
Q 32.46875 71.875 37.390625 69.359375 
Q 42.328125 66.84375 44.9375 62.5 
Q 47.5625 58.15625 47.5625 53.265625 
Q 47.5625 48.640625 45.0625 44.828125 
Q 42.578125 41.015625 37.703125 38.765625 
Q 44.046875 37.3125 47.5625 32.6875 
Q 51.078125 28.078125 51.078125 21.140625 
Q 51.078125 11.765625 44.234375 5.25 
Q 37.40625 -1.265625 26.953125 -1.265625 
Q 17.53125 -1.265625 11.296875 4.34375 
Q 5.078125 9.96875 4.203125 18.890625 
z
" id="ArialMT-33"/>
      </defs>
      <g style="fill:#262626;" transform="translate(145.393321 318.241812)scale(0.1 -0.1)">
       <use xlink:href="#ArialMT-33"/>
      </g>
     </g>
    </g>
    <g id="xtick_4">
     <g id="line2d_4"/>
     <g id="text_4">
      <!-- 4 -->
      <defs>
       <path d="M 32.328125 0 
L 32.328125 17.140625 
L 1.265625 17.140625 
L 1.265625 25.203125 
L 33.9375 71.578125 
L 41.109375 71.578125 
L 41.109375 25.203125 
L 50.78125 25.203125 
L 50.78125 17.140625 
L 41.109375 17.140625 
L 41.109375 0 
z
M 32.328125 25.203125 
L 32.328125 57.46875 
L 9.90625 25.203125 
z
" id="ArialMT-34"/>
      </defs>
      <g style="fill:#262626;" transform="translate(185.745787 318.241812)scale(0.1 -0.1)">
       <use xlink:href="#ArialMT-34"/>
      </g>
     </g>
    </g>
    <g id="xtick_5">
     <g id="line2d_5"/>
     <g id="text_5">
      <!-- 5 -->
      <defs>
       <path d="M 4.15625 18.75 
L 13.375 19.53125 
Q 14.40625 12.796875 18.140625 9.390625 
Q 21.875 6 27.15625 6 
Q 33.5 6 37.890625 10.78125 
Q 42.28125 15.578125 42.28125 23.484375 
Q 42.28125 31 38.0625 35.34375 
Q 33.84375 39.703125 27 39.703125 
Q 22.75 39.703125 19.328125 37.765625 
Q 15.921875 35.84375 13.96875 32.765625 
L 5.71875 33.84375 
L 12.640625 70.609375 
L 48.25 70.609375 
L 48.25 62.203125 
L 19.671875 62.203125 
L 15.828125 42.96875 
Q 22.265625 47.46875 29.34375 47.46875 
Q 38.71875 47.46875 45.15625 40.96875 
Q 51.609375 34.46875 51.609375 24.265625 
Q 51.609375 14.546875 45.953125 7.46875 
Q 39.0625 -1.21875 27.15625 -1.21875 
Q 17.390625 -1.21875 11.203125 4.25 
Q 5.03125 9.71875 4.15625 18.75 
z
" id="ArialMT-35"/>
      </defs>
      <g style="fill:#262626;" transform="translate(226.098254 318.241812)scale(0.1 -0.1)">
       <use xlink:href="#ArialMT-35"/>
      </g>
     </g>
    </g>
    <g id="xtick_6">
     <g id="line2d_6"/>
     <g id="text_6">
      <!-- 6 -->
      <defs>
       <path d="M 49.75 54.046875 
L 41.015625 53.375 
Q 39.84375 58.546875 37.703125 60.890625 
Q 34.125 64.65625 28.90625 64.65625 
Q 24.703125 64.65625 21.53125 62.3125 
Q 17.390625 59.28125 14.984375 53.46875 
Q 12.59375 47.65625 12.5 36.921875 
Q 15.671875 41.75 20.265625 44.09375 
Q 24.859375 46.4375 29.890625 46.4375 
Q 38.671875 46.4375 44.84375 39.96875 
Q 51.03125 33.5 51.03125 23.25 
Q 51.03125 16.5 48.125 10.71875 
Q 45.21875 4.9375 40.140625 1.859375 
Q 35.0625 -1.21875 28.609375 -1.21875 
Q 17.625 -1.21875 10.6875 6.859375 
Q 3.765625 14.9375 3.765625 33.5 
Q 3.765625 54.25 11.421875 63.671875 
Q 18.109375 71.875 29.4375 71.875 
Q 37.890625 71.875 43.28125 67.140625 
Q 48.6875 62.40625 49.75 54.046875 
z
M 13.875 23.1875 
Q 13.875 18.65625 15.796875 14.5 
Q 17.71875 10.359375 21.1875 8.171875 
Q 24.65625 6 28.46875 6 
Q 34.03125 6 38.03125 10.484375 
Q 42.046875 14.984375 42.046875 22.703125 
Q 42.046875 30.125 38.078125 34.390625 
Q 34.125 38.671875 28.125 38.671875 
Q 22.171875 38.671875 18.015625 34.390625 
Q 13.875 30.125 13.875 23.1875 
z
" id="ArialMT-36"/>
      </defs>
      <g style="fill:#262626;" transform="translate(266.45072 318.241812)scale(0.1 -0.1)">
       <use xlink:href="#ArialMT-36"/>
      </g>
     </g>
    </g>
    <g id="xtick_7">
     <g id="line2d_7"/>
     <g id="text_7">
      <!-- 7 -->
      <defs>
       <path d="M 4.734375 62.203125 
L 4.734375 70.65625 
L 51.078125 70.65625 
L 51.078125 63.8125 
Q 44.234375 56.546875 37.515625 44.484375 
Q 30.8125 32.421875 27.15625 19.671875 
Q 24.515625 10.6875 23.78125 0 
L 14.75 0 
Q 14.890625 8.453125 18.0625 20.40625 
Q 21.234375 32.375 27.171875 43.484375 
Q 33.109375 54.59375 39.796875 62.203125 
z
" id="ArialMT-37"/>
      </defs>
      <g style="fill:#262626;" transform="translate(306.803187 318.241812)scale(0.1 -0.1)">
       <use xlink:href="#ArialMT-37"/>
      </g>
     </g>
    </g>
    <g id="xtick_8">
     <g id="line2d_8"/>
     <g id="text_8">
      <!-- 8 -->
      <defs>
       <path d="M 17.671875 38.8125 
Q 12.203125 40.828125 9.5625 44.53125 
Q 6.9375 48.25 6.9375 53.421875 
Q 6.9375 61.234375 12.546875 66.546875 
Q 18.171875 71.875 27.484375 71.875 
Q 36.859375 71.875 42.578125 66.421875 
Q 48.296875 60.984375 48.296875 53.171875 
Q 48.296875 48.1875 45.671875 44.5 
Q 43.0625 40.828125 37.75 38.8125 
Q 44.34375 36.671875 47.78125 31.875 
Q 51.21875 27.09375 51.21875 20.453125 
Q 51.21875 11.28125 44.71875 5.03125 
Q 38.234375 -1.21875 27.640625 -1.21875 
Q 17.046875 -1.21875 10.546875 5.046875 
Q 4.046875 11.328125 4.046875 20.703125 
Q 4.046875 27.6875 7.59375 32.390625 
Q 11.140625 37.109375 17.671875 38.8125 
z
M 15.921875 53.71875 
Q 15.921875 48.640625 19.1875 45.40625 
Q 22.46875 42.1875 27.6875 42.1875 
Q 32.765625 42.1875 36.015625 45.375 
Q 39.265625 48.578125 39.265625 53.21875 
Q 39.265625 58.0625 35.90625 61.359375 
Q 32.5625 64.65625 27.59375 64.65625 
Q 22.5625 64.65625 19.234375 61.421875 
Q 15.921875 58.203125 15.921875 53.71875 
z
M 13.09375 20.65625 
Q 13.09375 16.890625 14.875 13.375 
Q 16.65625 9.859375 20.171875 7.921875 
Q 23.6875 6 27.734375 6 
Q 34.03125 6 38.125 10.046875 
Q 42.234375 14.109375 42.234375 20.359375 
Q 42.234375 26.703125 38.015625 30.859375 
Q 33.796875 35.015625 27.4375 35.015625 
Q 21.234375 35.015625 17.15625 30.90625 
Q 13.09375 26.8125 13.09375 20.65625 
z
" id="ArialMT-38"/>
      </defs>
      <g style="fill:#262626;" transform="translate(347.155653 318.241812)scale(0.1 -0.1)">
       <use xlink:href="#ArialMT-38"/>
      </g>
     </g>
    </g>
    <g id="xtick_9">
     <g id="line2d_9"/>
     <g id="text_9">
      <!-- 9 -->
      <defs>
       <path d="M 5.46875 16.546875 
L 13.921875 17.328125 
Q 14.984375 11.375 18.015625 8.6875 
Q 21.046875 6 25.78125 6 
Q 29.828125 6 32.875 7.859375 
Q 35.9375 9.71875 37.890625 12.8125 
Q 39.84375 15.921875 41.15625 21.1875 
Q 42.484375 26.46875 42.484375 31.9375 
Q 42.484375 32.515625 42.4375 33.6875 
Q 39.796875 29.5 35.234375 26.875 
Q 30.671875 24.265625 25.34375 24.265625 
Q 16.453125 24.265625 10.296875 30.703125 
Q 4.15625 37.15625 4.15625 47.703125 
Q 4.15625 58.59375 10.578125 65.234375 
Q 17 71.875 26.65625 71.875 
Q 33.640625 71.875 39.421875 68.109375 
Q 45.21875 64.359375 48.21875 57.390625 
Q 51.21875 50.4375 51.21875 37.25 
Q 51.21875 23.53125 48.234375 15.40625 
Q 45.265625 7.28125 39.375 3.03125 
Q 33.5 -1.21875 25.59375 -1.21875 
Q 17.1875 -1.21875 11.859375 3.4375 
Q 6.546875 8.109375 5.46875 16.546875 
z
M 41.453125 48.140625 
Q 41.453125 55.71875 37.421875 60.15625 
Q 33.40625 64.59375 27.734375 64.59375 
Q 21.875 64.59375 17.53125 59.8125 
Q 13.1875 55.03125 13.1875 47.40625 
Q 13.1875 40.578125 17.3125 36.296875 
Q 21.4375 32.03125 27.484375 32.03125 
Q 33.59375 32.03125 37.515625 36.296875 
Q 41.453125 40.578125 41.453125 48.140625 
z
" id="ArialMT-39"/>
      </defs>
      <g style="fill:#262626;" transform="translate(387.508119 318.241812)scale(0.1 -0.1)">
       <use xlink:href="#ArialMT-39"/>
      </g>
     </g>
    </g>
    <g id="text_10">
     <!-- $x$ -->
     <defs>
      <path d="M 60.015625 54.6875 
L 34.90625 27.875 
L 50.296875 0 
L 39.984375 0 
L 28.421875 21.6875 
L 8.296875 0 
L -2.59375 0 
L 24.3125 28.8125 
L 10.015625 54.6875 
L 20.3125 54.6875 
L 30.8125 34.90625 
L 49.125 54.6875 
z
" id="DejaVuSans-Oblique-78"/>
     </defs>
     <g style="fill:#262626;" transform="translate(233.16 331.387125)scale(0.1 -0.1)">
      <use transform="translate(0 0.3125)" xlink:href="#DejaVuSans-Oblique-78"/>
     </g>
    </g>
   </g>
   <g id="matplotlib.axis_2">
    <g id="ytick_1">
     <g id="line2d_10"/>
     <g id="text_11">
      <!-- 0.00 -->
      <defs>
       <path d="M 4.15625 35.296875 
Q 4.15625 48 6.765625 55.734375 
Q 9.375 63.484375 14.515625 67.671875 
Q 19.671875 71.875 27.484375 71.875 
Q 33.25 71.875 37.59375 69.546875 
Q 41.9375 67.234375 44.765625 62.859375 
Q 47.609375 58.5 49.21875 52.21875 
Q 50.828125 45.953125 50.828125 35.296875 
Q 50.828125 22.703125 48.234375 14.96875 
Q 45.65625 7.234375 40.5 3 
Q 35.359375 -1.21875 27.484375 -1.21875 
Q 17.140625 -1.21875 11.234375 6.203125 
Q 4.15625 15.140625 4.15625 35.296875 
z
M 13.1875 35.296875 
Q 13.1875 17.671875 17.3125 11.828125 
Q 21.4375 6 27.484375 6 
Q 33.546875 6 37.671875 11.859375 
Q 41.796875 17.71875 41.796875 35.296875 
Q 41.796875 52.984375 37.671875 58.78125 
Q 33.546875 64.59375 27.390625 64.59375 
Q 21.34375 64.59375 17.71875 59.46875 
Q 13.1875 52.9375 13.1875 35.296875 
z
" id="ArialMT-30"/>
       <path d="M 9.078125 0 
L 9.078125 10.015625 
L 19.09375 10.015625 
L 19.09375 0 
z
" id="ArialMT-2e"/>
      </defs>
      <g style="fill:#262626;" transform="translate(34.639063 299.066906)scale(0.1 -0.1)">
       <use xlink:href="#ArialMT-30"/>
       <use x="55.615234" xlink:href="#ArialMT-2e"/>
       <use x="83.398438" xlink:href="#ArialMT-30"/>
       <use x="139.013672" xlink:href="#ArialMT-30"/>
      </g>
     </g>
    </g>
    <g id="ytick_2">
     <g id="line2d_11"/>
     <g id="text_12">
      <!-- 0.05 -->
      <g style="fill:#262626;" transform="translate(34.639063 264.518407)scale(0.1 -0.1)">
       <use xlink:href="#ArialMT-30"/>
       <use x="55.615234" xlink:href="#ArialMT-2e"/>
       <use x="83.398438" xlink:href="#ArialMT-30"/>
       <use x="139.013672" xlink:href="#ArialMT-35"/>
      </g>
     </g>
    </g>
    <g id="ytick_3">
     <g id="line2d_12"/>
     <g id="text_13">
      <!-- 0.10 -->
      <g style="fill:#262626;" transform="translate(34.639063 229.969907)scale(0.1 -0.1)">
       <use xlink:href="#ArialMT-30"/>
       <use x="55.615234" xlink:href="#ArialMT-2e"/>
       <use x="83.398438" xlink:href="#ArialMT-31"/>
       <use x="139.013672" xlink:href="#ArialMT-30"/>
      </g>
     </g>
    </g>
    <g id="ytick_4">
     <g id="line2d_13"/>
     <g id="text_14">
      <!-- 0.15 -->
      <g style="fill:#262626;" transform="translate(34.639063 195.421408)scale(0.1 -0.1)">
       <use xlink:href="#ArialMT-30"/>
       <use x="55.615234" xlink:href="#ArialMT-2e"/>
       <use x="83.398438" xlink:href="#ArialMT-31"/>
       <use x="139.013672" xlink:href="#ArialMT-35"/>
      </g>
     </g>
    </g>
    <g id="ytick_5">
     <g id="line2d_14"/>
     <g id="text_15">
      <!-- 0.20 -->
      <g style="fill:#262626;" transform="translate(34.639063 160.872908)scale(0.1 -0.1)">
       <use xlink:href="#ArialMT-30"/>
       <use x="55.615234" xlink:href="#ArialMT-2e"/>
       <use x="83.398438" xlink:href="#ArialMT-32"/>
       <use x="139.013672" xlink:href="#ArialMT-30"/>
      </g>
     </g>
    </g>
    <g id="ytick_6">
     <g id="line2d_15"/>
     <g id="text_16">
      <!-- 0.25 -->
      <g style="fill:#262626;" transform="translate(34.639063 126.324409)scale(0.1 -0.1)">
       <use xlink:href="#ArialMT-30"/>
       <use x="55.615234" xlink:href="#ArialMT-2e"/>
       <use x="83.398438" xlink:href="#ArialMT-32"/>
       <use x="139.013672" xlink:href="#ArialMT-35"/>
      </g>
     </g>
    </g>
    <g id="ytick_7">
     <g id="line2d_16"/>
     <g id="text_17">
      <!-- 0.30 -->
      <g style="fill:#262626;" transform="translate(34.639063 91.775909)scale(0.1 -0.1)">
       <use xlink:href="#ArialMT-30"/>
       <use x="55.615234" xlink:href="#ArialMT-2e"/>
       <use x="83.398438" xlink:href="#ArialMT-33"/>
       <use x="139.013672" xlink:href="#ArialMT-30"/>
      </g>
     </g>
    </g>
    <g id="ytick_8">
     <g id="line2d_17"/>
     <g id="text_18">
      <!-- 0.35 -->
      <g style="fill:#262626;" transform="translate(34.639063 57.22741)scale(0.1 -0.1)">
       <use xlink:href="#ArialMT-30"/>
       <use x="55.615234" xlink:href="#ArialMT-2e"/>
       <use x="83.398438" xlink:href="#ArialMT-33"/>
       <use x="139.013672" xlink:href="#ArialMT-35"/>
      </g>
     </g>
    </g>
    <g id="text_19">
     <!-- $\rho(x)$ -->
     <defs>
      <path d="M 18.796875 44.921875 
Q 22.703125 49.90625 30.953125 54.296875 
Q 34.1875 56 43.0625 56 
Q 53.03125 56 57.71875 48.09375 
Q 62.40625 40.1875 59.90625 27.296875 
Q 57.375 14.40625 49.609375 6.484375 
Q 41.84375 -1.421875 31.890625 -1.421875 
Q 25.875 -1.421875 22.015625 0.984375 
Q 18.171875 3.328125 16.3125 8.203125 
L 10.640625 -20.796875 
L 1.609375 -20.796875 
L 10.890625 26.8125 
Q 13.09375 38.09375 18.796875 44.921875 
z
M 50.59375 27.296875 
Q 52.484375 37.203125 49.515625 42.875 
Q 46.53125 48.484375 39.40625 48.484375 
Q 32.28125 48.484375 27.09375 42.875 
Q 21.921875 37.203125 20.015625 27.296875 
Q 18.0625 17.390625 21.046875 11.71875 
Q 24.03125 6.109375 31.15625 6.109375 
Q 38.28125 6.109375 43.453125 11.71875 
Q 48.640625 17.390625 50.59375 27.296875 
z
" id="DejaVuSans-Oblique-3c1"/>
      <path d="M 31 75.875 
Q 24.46875 64.65625 21.28125 53.65625 
Q 18.109375 42.671875 18.109375 31.390625 
Q 18.109375 20.125 21.3125 9.0625 
Q 24.515625 -2 31 -13.1875 
L 23.1875 -13.1875 
Q 15.875 -1.703125 12.234375 9.375 
Q 8.59375 20.453125 8.59375 31.390625 
Q 8.59375 42.28125 12.203125 53.3125 
Q 15.828125 64.359375 23.1875 75.875 
z
" id="DejaVuSans-28"/>
      <path d="M 8.015625 75.875 
L 15.828125 75.875 
Q 23.140625 64.359375 26.78125 53.3125 
Q 30.421875 42.28125 30.421875 31.390625 
Q 30.421875 20.453125 26.78125 9.375 
Q 23.140625 -1.703125 15.828125 -13.1875 
L 8.015625 -13.1875 
Q 14.5 -2 17.703125 9.0625 
Q 20.90625 20.125 20.90625 31.390625 
Q 20.90625 42.671875 17.703125 53.65625 
Q 14.5 64.65625 8.015625 75.875 
z
" id="DejaVuSans-29"/>
     </defs>
     <g style="fill:#262626;" transform="translate(28.539062 184.578)rotate(-90)scale(0.1 -0.1)">
      <use transform="translate(0 0.125)" xlink:href="#DejaVuSans-Oblique-3c1"/>
      <use transform="translate(63.476562 0.125)" xlink:href="#DejaVuSans-28"/>
      <use transform="translate(102.490234 0.125)" xlink:href="#DejaVuSans-Oblique-78"/>
      <use transform="translate(161.669922 0.125)" xlink:href="#DejaVuSans-29"/>
     </g>
    </g>
   </g>
   <g id="line2d_18">
    <path clip-path="url(#pd1b8d29184)" d="M 73.832727 287.608199 
L 74.807666 286.563575 
L 76.107584 285.840439 
L 77.082523 285.419434 
L 77.407502 285.197501 
L 78.057461 285.095212 
L 78.70742 284.557796 
L 80.007338 283.8164 
L 80.657297 283.69653 
L 81.957215 282.837295 
L 83.257133 282.480628 
L 83.582113 282.317983 
L 85.53199 282.040931 
L 87.806847 281.707787 
L 88.131826 281.468523 
L 88.781785 281.503439 
L 89.106765 281.54552 
L 89.756724 281.132455 
L 91.056642 280.092896 
L 91.381622 279.940675 
L 92.031581 279.485826 
L 92.68154 279.140301 
L 93.006519 279.148903 
L 94.631417 278.587174 
L 94.956396 278.650025 
L 95.606355 278.449115 
L 98.531171 278.69705 
L 99.50611 278.767145 
L 99.831089 278.637611 
L 101.455987 279.16279 
L 101.780966 279.099345 
L 102.105946 279.149565 
L 102.755905 279.430374 
L 104.055823 279.254551 
L 105.030762 279.831583 
L 105.680721 280.220045 
L 108.605536 281.218196 
L 111.530352 282.434152 
L 112.180311 282.846099 
L 114.455168 284.579019 
L 118.029943 286.070452 
L 119.329861 286.742775 
L 121.929697 287.545928 
L 126.154431 288.577235 
L 129.079247 289.42432 
L 129.729206 289.345033 
L 130.379165 289.392455 
L 130.704144 289.29066 
L 131.354103 289.476804 
L 132.004062 289.446902 
L 133.30398 289.705678 
L 133.62896 289.589496 
L 133.953939 289.656521 
L 134.278919 289.846386 
L 136.228796 290.06172 
L 137.528714 289.982844 
L 140.45353 290.830894 
L 141.753448 290.94256 
L 143.378346 291.797 
L 143.703325 292.184856 
L 144.353284 292.420752 
L 145.003243 293.102032 
L 145.653202 293.42965 
L 146.95312 293.748042 
L 149.227977 295.449346 
L 150.202916 295.488 
L 150.527895 295.488 
L 151.827813 294.840788 
L 154.427649 295.022601 
L 157.027486 293.448469 
L 157.352465 293.121506 
L 158.002424 293.177889 
L 159.302342 292.558247 
L 159.627322 292.262134 
L 160.92724 291.7518 
L 162.227158 290.72304 
L 162.877117 290.313406 
L 163.527076 289.750499 
L 167.42683 287.270813 
L 168.401769 286.870129 
L 172.301523 284.664997 
L 172.951482 284.376754 
L 174.90136 282.879643 
L 176.201278 281.314518 
L 177.501196 280.572915 
L 180.101032 277.54742 
L 181.40095 274.764144 
L 183.350827 271.468342 
L 184.000786 270.347545 
L 184.975725 268.540945 
L 185.625684 267.475716 
L 185.950663 266.736698 
L 187.575561 264.556813 
L 187.900541 263.891864 
L 188.22552 262.910841 
L 188.5505 262.367761 
L 189.525438 261.299509 
L 189.850418 260.791102 
L 190.500377 259.381848 
L 191.800295 257.476454 
L 194.400131 253.31951 
L 195.05009 252.417645 
L 195.700049 251.293761 
L 197.324947 248.049519 
L 198.949844 244.433209 
L 199.274824 243.907732 
L 200.574742 242.774035 
L 201.224701 241.53835 
L 201.549681 240.737829 
L 201.87466 240.38155 
L 204.149517 236.434851 
L 204.799476 235.545573 
L 205.124455 235.223764 
L 205.774414 234.108468 
L 206.099394 233.951105 
L 206.424373 233.346833 
L 206.749353 233.095959 
L 207.399312 232.129501 
L 210.324128 228.42442 
L 210.974087 227.621772 
L 212.274005 225.443844 
L 212.923964 224.469871 
L 213.573923 223.481886 
L 215.198821 222.012403 
L 216.823718 220.862232 
L 217.473677 220.473631 
L 217.798657 219.992067 
L 219.098575 219.246964 
L 220.398493 218.706221 
L 221.698411 218.369838 
L 222.67335 218.888817 
L 223.323309 219.420167 
L 223.973268 219.594913 
L 224.298247 219.553267 
L 225.273186 220.023941 
L 226.248124 219.960812 
L 226.573104 220.195053 
L 228.522981 222.517639 
L 228.847961 222.625019 
L 234.372613 231.442818 
L 235.672531 232.961855 
L 236.32249 233.813928 
L 236.972449 234.549495 
L 238.922326 237.63107 
L 240.872203 240.706344 
L 241.847142 241.604072 
L 242.82208 242.554558 
L 243.472039 243.411579 
L 246.071876 246.593348 
L 247.696773 249.829766 
L 249.64665 253.047994 
L 250.946568 255.981075 
L 253.546405 260.582214 
L 254.521343 262.535812 
L 257.771138 267.498304 
L 259.071057 269.943347 
L 259.721016 271.085355 
L 260.045995 271.559277 
L 260.695954 272.749212 
L 261.345913 273.35096 
L 261.995872 274.211207 
L 262.320852 274.553662 
L 263.62077 276.492972 
L 264.270729 277.304097 
L 265.570647 278.263302 
L 266.870565 278.895316 
L 267.520524 279.080997 
L 268.170483 278.989399 
L 268.820442 279.459156 
L 270.12036 279.68963 
L 272.070238 279.011548 
L 274.020115 278.439063 
L 274.670074 277.985345 
L 274.995053 277.855216 
L 275.320033 277.931785 
L 275.645012 277.709808 
L 275.969992 277.655546 
L 276.619951 277.265975 
L 277.26991 276.933403 
L 277.919869 276.012888 
L 278.569828 275.051569 
L 279.544767 272.679559 
L 280.194726 271.94026 
L 283.444521 265.176914 
L 284.419459 264.294378 
L 285.394398 262.795685 
L 285.719378 262.38966 
L 286.044357 261.572937 
L 286.369337 261.085401 
L 288.969173 255.001695 
L 289.294152 254.268045 
L 292.543948 243.597157 
L 292.868927 242.829876 
L 293.518886 241.025849 
L 294.168845 239.382309 
L 295.793743 234.361345 
L 299.043538 226.296913 
L 299.368518 225.558042 
L 300.343456 222.435816 
L 307.493006 201.572971 
L 309.442883 196.662534 
L 312.042719 188.680097 
L 312.692678 186.386166 
L 313.342637 184.082976 
L 314.317576 180.544777 
L 314.967535 179.272413 
L 315.942473 176.53969 
L 317.892351 171.350791 
L 318.54231 168.966166 
L 319.517248 166.104168 
L 319.842228 164.795803 
L 320.167207 163.952919 
L 320.492187 163.471257 
L 322.442064 157.740672 
L 323.092023 156.216559 
L 323.741982 154.138898 
L 325.691859 150.096147 
L 326.666798 148.949369 
L 327.316757 147.673099 
L 327.966716 146.43521 
L 328.616675 145.245906 
L 330.566552 142.282032 
L 331.541491 141.019616 
L 331.86647 140.272642 
L 332.19145 139.81578 
L 332.841409 139.545863 
L 333.816347 138.991583 
L 334.141327 138.603313 
L 334.466306 138.519238 
L 335.766224 137.503484 
L 336.091204 137.492544 
L 336.741163 136.569338 
L 337.066143 136.091646 
L 337.391122 135.392256 
L 337.716102 135.325604 
L 338.366061 134.76669 
L 338.69104 134.868399 
L 339.01602 134.571272 
L 339.340999 134.520009 
L 339.990958 135.157765 
L 340.315938 135.301823 
L 340.640917 135.102897 
L 341.290876 135.147728 
L 341.615856 135.166497 
L 342.590794 135.664931 
L 342.915774 136.010659 
L 343.565733 136.153802 
L 343.890713 136.652667 
L 344.215692 136.546553 
L 344.540672 137.105265 
L 345.190631 137.672601 
L 345.51561 137.842677 
L 345.84059 137.884834 
L 347.140508 138.828813 
L 347.790467 139.468754 
L 348.115446 139.552162 
L 349.740344 141.925477 
L 352.34018 145.038698 
L 352.66516 146.127252 
L 352.990139 146.39548 
L 353.640098 147.949881 
L 354.290057 149.221315 
L 354.615037 149.554237 
L 354.940016 150.233535 
L 356.239934 154.060407 
L 356.889894 155.671385 
L 357.539853 156.610446 
L 357.864832 157.283743 
L 358.189812 158.28162 
L 359.814709 161.142715 
L 361.439607 163.582927 
L 362.414545 165.163806 
L 363.389484 166.435538 
L 365.664341 170.624067 
L 368.914136 177.041605 
L 369.239115 177.666356 
L 369.889075 179.319897 
L 372.163931 184.159982 
L 376.388665 196.125604 
L 378.013563 201.494886 
L 378.663522 203.8658 
L 379.313481 206.505302 
L 379.96344 208.321582 
L 380.938378 210.850393 
L 381.588337 212.358181 
L 382.888256 214.989584 
L 383.538215 216.925528 
L 384.188174 218.606661 
L 386.138051 224.41965 
L 387.112989 227.35832 
L 387.437969 228.240334 
L 389.062867 234.326275 
L 389.387846 234.993262 
L 390.362785 238.292624 
L 392.312662 244.043572 
L 393.61258 247.257276 
L 397.187355 257.027019 
L 398.487273 260.529072 
L 398.487273 260.529072 
" style="fill:none;stroke:#1f77b4;stroke-dasharray:5.55,2.4;stroke-dashoffset:0;stroke-width:1.5;"/>
   </g>
   <g id="line2d_19">
    <path clip-path="url(#pd1b8d29184)" d="M 73.832727 248.837575 
L 74.157707 248.675372 
L 74.807666 247.811475 
L 76.432563 245.513972 
L 77.732482 244.583211 
L 78.382441 243.954329 
L 80.332318 241.314137 
L 81.957215 239.388632 
L 82.282195 239.137056 
L 82.932154 238.436804 
L 83.582113 237.952903 
L 83.907093 237.945488 
L 84.882031 236.999618 
L 85.85697 236.499276 
L 87.806847 235.40725 
L 88.781785 234.951652 
L 89.431744 234.526042 
L 91.056642 233.672675 
L 91.381622 233.465605 
L 91.706601 233.425565 
L 93.331499 232.159764 
L 93.981458 231.520486 
L 95.606355 231.164537 
L 96.256314 230.8321 
L 97.881212 230.751065 
L 98.856151 230.688629 
L 100.156069 230.476488 
L 101.131007 230.679088 
L 102.755905 231.141409 
L 103.730844 230.921894 
L 104.055823 231.027089 
L 104.705782 231.004524 
L 105.355741 231.436973 
L 106.33068 232.308578 
L 107.630598 232.483976 
L 108.605536 233.279157 
L 110.230434 234.872723 
L 111.530352 236.429601 
L 112.83027 238.083132 
L 115.430106 240.528308 
L 115.755086 241.027538 
L 117.055004 241.961519 
L 117.379984 242.279935 
L 118.679902 244.226906 
L 119.97982 245.123389 
L 120.629779 245.842758 
L 122.579656 247.394137 
L 123.554595 248.296084 
L 123.879574 248.75535 
L 124.854513 249.540534 
L 127.454349 252.348763 
L 128.429287 253.645509 
L 131.354103 257.126738 
L 131.679083 257.690433 
L 132.654021 258.536124 
L 134.278919 260.147728 
L 134.928878 260.620203 
L 135.578837 261.527088 
L 135.903817 261.808911 
L 136.228796 261.86257 
L 137.853694 263.321468 
L 138.503653 264.431517 
L 139.153612 265.089677 
L 139.803571 266.08174 
L 140.45353 266.705087 
L 141.428468 268.390611 
L 142.078428 268.953887 
L 143.053366 269.718197 
L 143.703325 270.402966 
L 144.028305 271.009203 
L 144.353284 271.129708 
L 145.653202 272.729322 
L 146.303161 273.415041 
L 146.95312 273.632031 
L 147.928059 274.255573 
L 148.253038 274.589861 
L 150.202916 275.102863 
L 150.852875 275.213436 
L 151.177854 275.114157 
L 151.827813 275.18318 
L 152.477772 275.076546 
L 152.802752 275.078908 
L 154.10267 274.623532 
L 154.427649 274.54606 
L 155.402588 273.770297 
L 156.377527 272.80431 
L 156.702506 272.173702 
L 158.652383 270.133202 
L 160.60226 267.288999 
L 161.252219 266.297155 
L 162.552138 263.785188 
L 162.877117 263.484974 
L 163.202097 262.581038 
L 163.852056 261.947434 
L 164.826994 260.135357 
L 165.151974 259.781602 
L 165.801933 258.599511 
L 166.126912 258.255603 
L 166.776871 256.852543 
L 167.101851 256.506622 
L 167.42683 255.739433 
L 168.07679 254.79392 
L 169.051728 252.93826 
L 170.676626 248.676868 
L 171.976544 246.713682 
L 172.626503 245.196774 
L 173.276462 244.149183 
L 174.90136 240.923719 
L 175.226339 240.423776 
L 176.526257 237.741533 
L 177.826175 235.479634 
L 178.476134 233.773397 
L 178.801114 233.454665 
L 179.776052 231.761807 
L 180.750991 228.133469 
L 182.050909 225.585134 
L 184.000786 219.738778 
L 184.325766 219.013792 
L 185.300704 215.805345 
L 185.950663 214.082817 
L 189.850418 203.263221 
L 190.175397 202.49267 
L 191.150336 199.405917 
L 192.125274 196.701284 
L 193.425192 193.402071 
L 193.750172 192.147853 
L 195.37507 188.597757 
L 197.324947 182.553178 
L 197.974906 181.478531 
L 199.599803 176.155685 
L 204.474496 165.213249 
L 206.424373 161.496512 
L 207.399312 159.772763 
L 207.724292 159.052253 
L 208.049271 158.635439 
L 208.69923 157.061484 
L 209.349189 156.234974 
L 209.999148 154.490886 
L 211.299066 152.515425 
L 211.624046 151.973517 
L 212.923964 148.832962 
L 213.573923 147.706033 
L 213.898903 147.638508 
L 214.223882 147.279554 
L 214.548862 146.73326 
L 214.873841 146.461806 
L 215.84878 144.887324 
L 216.823718 144.406746 
L 217.798657 144.156073 
L 218.123636 143.688855 
L 218.448616 143.484657 
L 219.098575 142.847928 
L 219.423554 142.812038 
L 219.748534 142.502868 
L 220.398493 142.845322 
L 220.723473 142.75338 
L 221.373432 141.944151 
L 221.698411 141.503413 
L 222.023391 141.309574 
L 222.34837 141.408332 
L 222.998329 141.099793 
L 223.648288 141.262438 
L 224.298247 141.62612 
L 225.923145 142.859296 
L 228.522981 145.383443 
L 228.847961 145.500147 
L 229.49792 146.615076 
L 232.097756 150.894946 
L 232.422735 151.598189 
L 232.747715 152.588113 
L 235.99751 158.74651 
L 236.972449 160.929966 
L 237.947387 163.188275 
L 240.222244 167.943127 
L 240.547224 168.460571 
L 243.797019 177.400024 
L 244.446978 179.359591 
L 246.071876 183.32089 
L 248.996691 191.88268 
L 249.64665 193.792666 
L 250.296609 195.751133 
L 255.496282 212.924218 
L 257.771138 218.699259 
L 261.345913 230.574376 
L 262.970811 234.205194 
L 263.945749 237.384526 
L 264.920688 239.608761 
L 266.220606 241.585934 
L 266.870565 243.01872 
L 267.520524 243.775765 
L 267.845504 244.042551 
L 268.495463 245.039821 
L 268.820442 245.25958 
L 269.470401 245.88217 
L 271.095299 246.992985 
L 271.745258 247.076067 
L 272.070238 246.76098 
L 272.720197 246.686708 
L 273.695135 246.580677 
L 274.020115 246.372558 
L 274.995053 246.771209 
L 275.320033 246.699217 
L 275.645012 246.307146 
L 276.294971 245.832281 
L 278.244848 242.205123 
L 278.894808 240.435042 
L 282.469582 229.106584 
L 283.119541 226.891599 
L 283.7695 224.655194 
L 284.419459 222.139131 
L 285.069419 220.282426 
L 286.369337 215.00514 
L 287.994234 208.480179 
L 288.644193 205.506254 
L 290.269091 197.859335 
L 293.518886 183.41715 
L 295.143784 175.873991 
L 296.443702 170.444403 
L 301.318395 151.110109 
L 302.618313 145.261517 
L 303.593251 141.316261 
L 304.24321 138.360084 
L 305.543129 132.228297 
L 306.518067 128.476892 
L 307.817985 123.2592 
L 310.092842 114.521281 
L 310.417821 113.595248 
L 312.367699 106.002021 
L 313.342637 102.872588 
L 314.967535 98.793822 
L 315.617494 97.470473 
L 317.567371 91.564938 
L 318.54231 88.778221 
L 319.517248 85.58603 
L 319.842228 84.852112 
L 320.492187 82.617989 
L 320.817166 81.834002 
L 321.467125 79.562425 
L 322.767043 75.996551 
L 324.716921 71.419427 
L 325.691859 69.539994 
L 328.616675 65.90832 
L 328.941654 65.603352 
L 329.591613 64.519835 
L 330.241572 63.457259 
L 330.891532 61.849078 
L 331.541491 60.819951 
L 332.19145 60.169937 
L 332.516429 59.942004 
L 332.841409 59.954934 
L 334.141327 58.134874 
L 334.791286 57.39149 
L 335.441245 56.976065 
L 335.766224 56.533053 
L 336.091204 56.315827 
L 336.416183 55.843219 
L 336.741163 55.576816 
L 337.066143 55.095398 
L 337.716102 54.974478 
L 338.69104 54.966165 
L 339.01602 54.477571 
L 339.340999 54.367035 
L 339.665979 53.954354 
L 339.990958 53.752885 
L 341.940835 54.266021 
L 342.265815 54.487502 
L 342.590794 54.459394 
L 343.240753 53.730417 
L 343.565733 53.737284 
L 343.890713 53.568 
L 344.215692 54.352965 
L 345.190631 55.761922 
L 345.84059 55.584293 
L 346.165569 55.701895 
L 346.815528 56.202404 
L 347.140508 56.244034 
L 349.740344 59.966726 
L 351.040262 61.140012 
L 351.365242 61.091827 
L 352.015201 60.671627 
L 352.66516 62.036075 
L 354.615037 66.727121 
L 355.589975 69.258754 
L 355.914955 70.28491 
L 356.564914 71.391967 
L 357.214873 73.797086 
L 358.189812 76.034737 
L 359.16475 77.754533 
L 359.48973 77.771586 
L 359.814709 78.541654 
L 360.139689 78.911284 
L 361.114627 79.571652 
L 361.764586 80.210208 
L 362.089566 80.919152 
L 362.414545 80.985277 
L 363.714464 83.200329 
L 364.364423 83.652619 
L 365.014382 84.961526 
L 365.664341 86.598341 
L 366.3143 88.000497 
L 366.639279 88.592487 
L 367.614218 91.469626 
L 369.239115 95.608778 
L 371.838952 102.840174 
L 372.81389 106.170163 
L 373.463849 107.779792 
L 374.113808 109.903095 
L 375.088747 114.136171 
L 376.063686 117.130186 
L 376.713645 120.009967 
L 377.688583 123.557485 
L 379.96344 132.508982 
L 380.613399 134.410249 
L 387.437969 161.683024 
L 388.412907 166.270529 
L 389.062867 169.996265 
L 390.687764 176.638626 
L 395.562457 195.795639 
L 396.537396 200.130072 
L 397.837314 205.115767 
L 398.487273 207.493817 
L 398.487273 207.493817 
" style="fill:none;stroke:#1f77b4;stroke-dasharray:5.55,2.4;stroke-dashoffset:0;stroke-width:1.5;"/>
   </g>
   <g id="line2d_20">
    <path clip-path="url(#pd1b8d29184)" d="M 73.832727 271.258489 
L 79.0324 266.280105 
L 81.307256 264.519446 
L 83.582113 263.022304 
L 85.85697 261.788678 
L 88.131826 260.595884 
L 90.406683 259.334155 
L 92.35656 258.488629 
L 94.306437 257.860907 
L 96.256314 257.45099 
L 98.206192 257.258878 
L 100.156069 257.28457 
L 102.105946 257.528068 
L 104.055823 257.98937 
L 106.0057 258.668476 
L 107.955577 259.565388 
L 109.905455 260.680104 
L 112.180311 262.255887 
L 119.329861 267.640173 
L 121.929697 269.157345 
L 124.529533 270.512912 
L 127.129369 272.126617 
L 129.404226 273.549549 
L 131.679083 274.814537 
L 133.953939 276.310104 
L 136.878755 278.28103 
L 139.478591 279.903638 
L 142.078428 281.784384 
L 144.678264 283.923269 
L 145.978182 284.938169 
L 146.95312 285.483115 
L 150.202916 286.783699 
L 150.852875 286.873908 
L 154.10267 286.848429 
L 154.752629 286.583901 
L 156.052547 285.679651 
L 158.977363 283.321499 
L 159.952301 282.421158 
L 161.577199 280.737471 
L 168.726749 272.465958 
L 174.2514 265.363646 
L 176.851237 261.088251 
L 179.776052 256.533343 
L 189.850418 234.306081 
L 192.125274 229.273982 
L 196.350008 220.436446 
L 199.599803 212.934268 
L 201.549681 209.143194 
L 203.499558 205.899918 
L 206.099394 201.544084 
L 208.049271 198.217533 
L 212.923964 189.626056 
L 214.548862 187.422465 
L 215.84878 185.986299 
L 217.148698 184.84054 
L 218.448616 183.985187 
L 219.748534 183.420241 
L 221.048452 183.1457 
L 222.34837 183.161566 
L 223.648288 183.467838 
L 224.948206 184.064517 
L 226.248124 184.951602 
L 227.548043 186.129093 
L 228.847961 187.59699 
L 230.147879 189.355294 
L 233.072695 193.895223 
L 236.32249 199.310365 
L 238.597346 202.994753 
L 243.472039 211.946595 
L 247.371794 219.774905 
L 249.321671 224.282216 
L 251.596527 230.152482 
L 255.171302 238.975296 
L 257.446159 244.145286 
L 261.020934 252.643739 
L 264.595708 258.882787 
L 266.545586 261.062546 
L 267.520524 261.915667 
L 269.145422 263.297212 
L 269.795381 263.435203 
L 270.770319 263.405559 
L 272.070238 263.365557 
L 274.020115 263.41842 
L 275.969992 262.95036 
L 276.94493 261.991295 
L 277.919869 260.414859 
L 278.569828 259.122504 
L 282.794562 248.214721 
L 286.044357 239.20949 
L 288.319214 232.214913 
L 290.269091 224.968591 
L 293.843866 211.133707 
L 296.118722 202.967468 
L 300.993415 186.251347 
L 305.218149 170.058064 
L 307.168026 163.712515 
L 309.767862 155.526648 
L 312.042719 147.901709 
L 313.992596 141.591941 
L 321.142146 120.765978 
L 322.767043 116.84162 
L 325.0419 111.746002 
L 327.641736 106.951321 
L 328.941654 105.007464 
L 331.541491 101.616493 
L 332.841409 100.569304 
L 334.141327 99.473676 
L 335.116265 98.767118 
L 336.416183 97.998692 
L 338.366061 96.514628 
L 339.340999 96.235746 
L 340.315938 96.272975 
L 340.965897 96.33592 
L 341.940835 96.717718 
L 344.865651 98.628892 
L 345.84059 99.402779 
L 347.140508 100.476604 
L 348.765405 102.127048 
L 350.065324 103.670528 
L 351.365242 105.08278 
L 352.34018 106.351524 
L 353.315119 107.946974 
L 354.940016 111.109203 
L 359.16475 120.038948 
L 360.789648 122.337482 
L 363.389484 126.243619 
L 364.689402 128.542562 
L 366.3143 131.668389 
L 368.264177 136.08865 
L 373.13887 148.071117 
L 376.063686 156.70982 
L 378.013563 163.504581 
L 380.613399 172.951474 
L 383.213235 181.23122 
L 385.163112 187.496932 
L 387.112989 194.488661 
L 391.662703 211.453321 
L 398.487273 234.384425 
L 398.487273 234.384425 
" style="fill:none;stroke:#1f77b4;stroke-linecap:round;stroke-width:1.5;"/>
   </g>
   <g id="patch_3">
    <path d="M 57.6 307.584 
L 57.6 41.472 
" style="fill:none;stroke:#262626;stroke-linecap:square;stroke-linejoin:miter;stroke-width:1.25;"/>
   </g>
   <g id="patch_4">
    <path d="M 57.6 307.584 
L 414.72 307.584 
" style="fill:none;stroke:#262626;stroke-linecap:square;stroke-linejoin:miter;stroke-width:1.25;"/>
   </g>
  </g>
 </g>
 <defs>
  <clipPath id="pd1b8d29184">
   <rect height="266.112" width="357.12" x="57.6" y="41.472"/>
  </clipPath>
 </defs>
</svg>
