<?xml version="1.0" encoding="utf-8" standalone="no"?>
<!DOCTYPE svg PUBLIC "-//W3C//DTD SVG 1.1//EN"
  "http://www.w3.org/Graphics/SVG/1.1/DTD/svg11.dtd">
<!-- Created with matplotlib (http://matplotlib.org/) -->
<svg height="345pt" version="1.1" viewBox="0 0 460 345" width="460pt" xmlns="http://www.w3.org/2000/svg" xmlns:xlink="http://www.w3.org/1999/xlink">
 <defs>
  <style type="text/css">
*{stroke-linecap:butt;stroke-linejoin:round;}
  </style>
 </defs>
 <g id="figure_1">
  <g id="patch_1">
   <path d="M 0 345.6 
L 460.8 345.6 
L 460.8 0 
L 0 0 
z
" style="fill:#ffffff;"/>
  </g>
  <g id="axes_1">
   <g id="patch_2">
    <path d="M 42.91 150.81 
L 159.308333 150.81 
L 159.308333 14.04 
L 42.91 14.04 
z
" style="fill:#ffffff;"/>
   </g>
   <g id="matplotlib.axis_1">
    <g id="xtick_1">
     <g id="line2d_1"/>
     <g id="text_1">
      <!-- 2.5 -->
      <defs>
       <path d="M 50.34375 8.453125 
L 50.34375 0 
L 3.03125 0 
Q 2.9375 3.171875 4.046875 6.109375 
Q 5.859375 10.9375 9.828125 15.625 
Q 13.8125 20.3125 21.34375 26.46875 
Q 33.015625 36.03125 37.109375 41.625 
Q 41.21875 47.21875 41.21875 52.203125 
Q 41.21875 57.421875 37.46875 61 
Q 33.734375 64.59375 27.734375 64.59375 
Q 21.390625 64.59375 17.578125 60.78125 
Q 13.765625 56.984375 13.71875 50.25 
L 4.6875 51.171875 
Q 5.609375 61.28125 11.65625 66.578125 
Q 17.71875 71.875 27.9375 71.875 
Q 38.234375 71.875 44.234375 66.15625 
Q 50.25 60.453125 50.25 52 
Q 50.25 47.703125 48.484375 43.546875 
Q 46.734375 39.40625 42.65625 34.8125 
Q 38.578125 30.21875 29.109375 22.21875 
Q 21.1875 15.578125 18.9375 13.203125 
Q 16.703125 10.84375 15.234375 8.453125 
z
" id="ArialMT-32"/>
       <path d="M 9.078125 0 
L 9.078125 10.015625 
L 19.09375 10.015625 
L 19.09375 0 
z
" id="ArialMT-2e"/>
       <path d="M 4.15625 18.75 
L 13.375 19.53125 
Q 14.40625 12.796875 18.140625 9.390625 
Q 21.875 6 27.15625 6 
Q 33.5 6 37.890625 10.78125 
Q 42.28125 15.578125 42.28125 23.484375 
Q 42.28125 31 38.0625 35.34375 
Q 33.84375 39.703125 27 39.703125 
Q 22.75 39.703125 19.328125 37.765625 
Q 15.921875 35.84375 13.96875 32.765625 
L 5.71875 33.84375 
L 12.640625 70.609375 
L 48.25 70.609375 
L 48.25 62.203125 
L 19.671875 62.203125 
L 15.828125 42.96875 
Q 22.265625 47.46875 29.34375 47.46875 
Q 38.71875 47.46875 45.15625 40.96875 
Q 51.609375 34.46875 51.609375 24.265625 
Q 51.609375 14.546875 45.953125 7.46875 
Q 39.0625 -1.21875 27.15625 -1.21875 
Q 17.390625 -1.21875 11.203125 4.25 
Q 5.03125 9.71875 4.15625 18.75 
z
" id="ArialMT-35"/>
      </defs>
      <g style="fill:#262626;" transform="translate(55.379706 161.467812)scale(0.1 -0.1)">
       <use xlink:href="#ArialMT-32"/>
       <use x="55.615234" xlink:href="#ArialMT-2e"/>
       <use x="83.398438" xlink:href="#ArialMT-35"/>
      </g>
     </g>
    </g>
    <g id="xtick_2">
     <g id="line2d_2"/>
     <g id="text_2">
      <!-- 5.0 -->
      <defs>
       <path d="M 4.15625 35.296875 
Q 4.15625 48 6.765625 55.734375 
Q 9.375 63.484375 14.515625 67.671875 
Q 19.671875 71.875 27.484375 71.875 
Q 33.25 71.875 37.59375 69.546875 
Q 41.9375 67.234375 44.765625 62.859375 
Q 47.609375 58.5 49.21875 52.21875 
Q 50.828125 45.953125 50.828125 35.296875 
Q 50.828125 22.703125 48.234375 14.96875 
Q 45.65625 7.234375 40.5 3 
Q 35.359375 -1.21875 27.484375 -1.21875 
Q 17.140625 -1.21875 11.234375 6.203125 
Q 4.15625 15.140625 4.15625 35.296875 
z
M 13.1875 35.296875 
Q 13.1875 17.671875 17.3125 11.828125 
Q 21.4375 6 27.484375 6 
Q 33.546875 6 37.671875 11.859375 
Q 41.796875 17.71875 41.796875 35.296875 
Q 41.796875 52.984375 37.671875 58.78125 
Q 33.546875 64.59375 27.390625 64.59375 
Q 21.34375 64.59375 17.71875 59.46875 
Q 13.1875 52.9375 13.1875 35.296875 
z
" id="ArialMT-30"/>
      </defs>
      <g style="fill:#262626;" transform="translate(91.548612 161.467812)scale(0.1 -0.1)">
       <use xlink:href="#ArialMT-35"/>
       <use x="55.615234" xlink:href="#ArialMT-2e"/>
       <use x="83.398438" xlink:href="#ArialMT-30"/>
      </g>
     </g>
    </g>
    <g id="xtick_3">
     <g id="line2d_3"/>
     <g id="text_3">
      <!-- 7.5 -->
      <defs>
       <path d="M 4.734375 62.203125 
L 4.734375 70.65625 
L 51.078125 70.65625 
L 51.078125 63.8125 
Q 44.234375 56.546875 37.515625 44.484375 
Q 30.8125 32.421875 27.15625 19.671875 
Q 24.515625 10.6875 23.78125 0 
L 14.75 0 
Q 14.890625 8.453125 18.0625 20.40625 
Q 21.234375 32.375 27.171875 43.484375 
Q 33.109375 54.59375 39.796875 62.203125 
z
" id="ArialMT-37"/>
      </defs>
      <g style="fill:#262626;" transform="translate(127.717517 161.467812)scale(0.1 -0.1)">
       <use xlink:href="#ArialMT-37"/>
       <use x="55.615234" xlink:href="#ArialMT-2e"/>
       <use x="83.398438" xlink:href="#ArialMT-35"/>
      </g>
     </g>
    </g>
   </g>
   <g id="matplotlib.axis_2">
    <g id="ytick_1">
     <g id="line2d_4"/>
     <g id="text_4">
      <!-- 0 -->
      <g style="fill:#262626;" transform="translate(33.849063 154.388906)scale(0.1 -0.1)">
       <use xlink:href="#ArialMT-30"/>
      </g>
     </g>
    </g>
    <g id="ytick_2">
     <g id="line2d_5"/>
     <g id="text_5">
      <!-- 5 -->
      <g style="fill:#262626;" transform="translate(33.849063 128.337478)scale(0.1 -0.1)">
       <use xlink:href="#ArialMT-35"/>
      </g>
     </g>
    </g>
    <g id="ytick_3">
     <g id="line2d_6"/>
     <g id="text_6">
      <!-- 10 -->
      <defs>
       <path d="M 37.25 0 
L 28.46875 0 
L 28.46875 56 
Q 25.296875 52.984375 20.140625 49.953125 
Q 14.984375 46.921875 10.890625 45.40625 
L 10.890625 53.90625 
Q 18.265625 57.375 23.78125 62.296875 
Q 29.296875 67.234375 31.59375 71.875 
L 37.25 71.875 
z
" id="ArialMT-31"/>
      </defs>
      <g style="fill:#262626;" transform="translate(28.288125 102.286049)scale(0.1 -0.1)">
       <use xlink:href="#ArialMT-31"/>
       <use x="55.615234" xlink:href="#ArialMT-30"/>
      </g>
     </g>
    </g>
    <g id="ytick_4">
     <g id="line2d_7"/>
     <g id="text_7">
      <!-- 15 -->
      <g style="fill:#262626;" transform="translate(28.288125 76.234621)scale(0.1 -0.1)">
       <use xlink:href="#ArialMT-31"/>
       <use x="55.615234" xlink:href="#ArialMT-35"/>
      </g>
     </g>
    </g>
    <g id="ytick_5">
     <g id="line2d_8"/>
     <g id="text_8">
      <!-- 20 -->
      <g style="fill:#262626;" transform="translate(28.288125 50.183192)scale(0.1 -0.1)">
       <use xlink:href="#ArialMT-32"/>
       <use x="55.615234" xlink:href="#ArialMT-30"/>
      </g>
     </g>
    </g>
    <g id="ytick_6">
     <g id="line2d_9"/>
     <g id="text_9">
      <!-- 25 -->
      <g style="fill:#262626;" transform="translate(28.288125 24.131763)scale(0.1 -0.1)">
       <use xlink:href="#ArialMT-32"/>
       <use x="55.615234" xlink:href="#ArialMT-35"/>
      </g>
     </g>
    </g>
   </g>
   <g id="patch_3">
    <path clip-path="url(#p2c88e8cd62)" d="M 42.91 150.81 
L 54.549833 150.81 
L 54.549833 119.548286 
L 42.91 119.548286 
z
" style="fill:#1f77b4;"/>
   </g>
   <g id="patch_4">
    <path clip-path="url(#p2c88e8cd62)" d="M 54.549833 150.81 
L 66.189667 150.81 
L 66.189667 135.179143 
L 54.549833 135.179143 
z
" style="fill:#1f77b4;"/>
   </g>
   <g id="patch_5">
    <path clip-path="url(#p2c88e8cd62)" d="M 66.189667 150.81 
L 77.8295 150.81 
L 77.8295 145.599714 
L 66.189667 145.599714 
z
" style="fill:#1f77b4;"/>
   </g>
   <g id="patch_6">
    <path clip-path="url(#p2c88e8cd62)" d="M 77.8295 150.81 
L 89.469333 150.81 
L 89.469333 119.548286 
L 77.8295 119.548286 
z
" style="fill:#1f77b4;"/>
   </g>
   <g id="patch_7">
    <path clip-path="url(#p2c88e8cd62)" d="M 89.469333 150.81 
L 101.109167 150.81 
L 101.109167 77.866 
L 89.469333 77.866 
z
" style="fill:#1f77b4;"/>
   </g>
   <g id="patch_8">
    <path clip-path="url(#p2c88e8cd62)" d="M 101.109167 150.81 
L 112.749 150.81 
L 112.749 114.338 
L 101.109167 114.338 
z
" style="fill:#1f77b4;"/>
   </g>
   <g id="patch_9">
    <path clip-path="url(#p2c88e8cd62)" d="M 112.749 150.81 
L 124.388833 150.81 
L 124.388833 145.599714 
L 112.749 145.599714 
z
" style="fill:#1f77b4;"/>
   </g>
   <g id="patch_10">
    <path clip-path="url(#p2c88e8cd62)" d="M 124.388833 150.81 
L 136.028667 150.81 
L 136.028667 20.552857 
L 124.388833 20.552857 
z
" style="fill:#1f77b4;"/>
   </g>
   <g id="patch_11">
    <path clip-path="url(#p2c88e8cd62)" d="M 136.028667 150.81 
L 147.6685 150.81 
L 147.6685 41.394 
L 136.028667 41.394 
z
" style="fill:#1f77b4;"/>
   </g>
   <g id="patch_12">
    <path clip-path="url(#p2c88e8cd62)" d="M 147.6685 150.81 
L 159.308333 150.81 
L 159.308333 67.445429 
L 147.6685 67.445429 
z
" style="fill:#1f77b4;"/>
   </g>
   <g id="patch_13">
    <path d="M 42.91 150.81 
L 42.91 14.04 
" style="fill:none;stroke:#262626;stroke-linecap:square;stroke-linejoin:miter;stroke-width:1.25;"/>
   </g>
   <g id="patch_14">
    <path d="M 42.91 150.81 
L 159.308333 150.81 
" style="fill:none;stroke:#262626;stroke-linecap:square;stroke-linejoin:miter;stroke-width:1.25;"/>
   </g>
  </g>
  <g id="axes_2">
   <g id="patch_15">
    <path d="M 184.768333 150.81 
L 301.166667 150.81 
L 301.166667 14.04 
L 184.768333 14.04 
z
" style="fill:#ffffff;"/>
   </g>
   <g id="matplotlib.axis_3">
    <g id="xtick_4">
     <g id="line2d_10"/>
     <g id="text_10">
      <!-- 2.5 -->
      <g style="fill:#262626;" transform="translate(197.238039 161.467812)scale(0.1 -0.1)">
       <use xlink:href="#ArialMT-32"/>
       <use x="55.615234" xlink:href="#ArialMT-2e"/>
       <use x="83.398438" xlink:href="#ArialMT-35"/>
      </g>
     </g>
    </g>
    <g id="xtick_5">
     <g id="line2d_11"/>
     <g id="text_11">
      <!-- 5.0 -->
      <g style="fill:#262626;" transform="translate(233.406945 161.467812)scale(0.1 -0.1)">
       <use xlink:href="#ArialMT-35"/>
       <use x="55.615234" xlink:href="#ArialMT-2e"/>
       <use x="83.398438" xlink:href="#ArialMT-30"/>
      </g>
     </g>
    </g>
    <g id="xtick_6">
     <g id="line2d_12"/>
     <g id="text_12">
      <!-- 7.5 -->
      <g style="fill:#262626;" transform="translate(269.575851 161.467812)scale(0.1 -0.1)">
       <use xlink:href="#ArialMT-37"/>
       <use x="55.615234" xlink:href="#ArialMT-2e"/>
       <use x="83.398438" xlink:href="#ArialMT-35"/>
      </g>
     </g>
    </g>
   </g>
   <g id="matplotlib.axis_4">
    <g id="ytick_7">
     <g id="line2d_13"/>
     <g id="text_13">
      <!-- 0 -->
      <g style="fill:#262626;" transform="translate(175.707396 154.388906)scale(0.1 -0.1)">
       <use xlink:href="#ArialMT-30"/>
      </g>
     </g>
    </g>
    <g id="ytick_8">
     <g id="line2d_14"/>
     <g id="text_14">
      <!-- 5 -->
      <g style="fill:#262626;" transform="translate(175.707396 128.337478)scale(0.1 -0.1)">
       <use xlink:href="#ArialMT-35"/>
      </g>
     </g>
    </g>
    <g id="ytick_9">
     <g id="line2d_15"/>
     <g id="text_15">
      <!-- 10 -->
      <g style="fill:#262626;" transform="translate(170.146458 102.286049)scale(0.1 -0.1)">
       <use xlink:href="#ArialMT-31"/>
       <use x="55.615234" xlink:href="#ArialMT-30"/>
      </g>
     </g>
    </g>
    <g id="ytick_10">
     <g id="line2d_16"/>
     <g id="text_16">
      <!-- 15 -->
      <g style="fill:#262626;" transform="translate(170.146458 76.234621)scale(0.1 -0.1)">
       <use xlink:href="#ArialMT-31"/>
       <use x="55.615234" xlink:href="#ArialMT-35"/>
      </g>
     </g>
    </g>
    <g id="ytick_11">
     <g id="line2d_17"/>
     <g id="text_17">
      <!-- 20 -->
      <g style="fill:#262626;" transform="translate(170.146458 50.183192)scale(0.1 -0.1)">
       <use xlink:href="#ArialMT-32"/>
       <use x="55.615234" xlink:href="#ArialMT-30"/>
      </g>
     </g>
    </g>
    <g id="ytick_12">
     <g id="line2d_18"/>
     <g id="text_18">
      <!-- 25 -->
      <g style="fill:#262626;" transform="translate(170.146458 24.131763)scale(0.1 -0.1)">
       <use xlink:href="#ArialMT-32"/>
       <use x="55.615234" xlink:href="#ArialMT-35"/>
      </g>
     </g>
    </g>
   </g>
   <g id="patch_16">
    <path clip-path="url(#pb41d50d58c)" d="M 184.768333 150.81 
L 192.043229 150.81 
L 192.043229 135.179143 
L 184.768333 135.179143 
z
" style="fill:#1f77b4;"/>
   </g>
   <g id="patch_17">
    <path clip-path="url(#pb41d50d58c)" d="M 192.043229 150.81 
L 199.318125 150.81 
L 199.318125 124.758571 
L 192.043229 124.758571 
z
" style="fill:#1f77b4;"/>
   </g>
   <g id="patch_18">
    <path clip-path="url(#pb41d50d58c)" d="M 199.318125 150.81 
L 206.593021 150.81 
L 206.593021 145.599714 
L 199.318125 145.599714 
z
" style="fill:#1f77b4;"/>
   </g>
   <g id="patch_19">
    <path clip-path="url(#pb41d50d58c)" d="M 206.593021 150.81 
L 213.867917 150.81 
L 213.867917 150.81 
L 206.593021 150.81 
z
" style="fill:#1f77b4;"/>
   </g>
   <g id="patch_20">
    <path clip-path="url(#pb41d50d58c)" d="M 213.867917 150.81 
L 221.142812 150.81 
L 221.142812 145.599714 
L 213.867917 145.599714 
z
" style="fill:#1f77b4;"/>
   </g>
   <g id="patch_21">
    <path clip-path="url(#pb41d50d58c)" d="M 221.142812 150.81 
L 228.417708 150.81 
L 228.417708 135.179143 
L 221.142812 135.179143 
z
" style="fill:#1f77b4;"/>
   </g>
   <g id="patch_22">
    <path clip-path="url(#pb41d50d58c)" d="M 228.417708 150.81 
L 235.692604 150.81 
L 235.692604 114.338 
L 228.417708 114.338 
z
" style="fill:#1f77b4;"/>
   </g>
   <g id="patch_23">
    <path clip-path="url(#pb41d50d58c)" d="M 235.692604 150.81 
L 242.9675 150.81 
L 242.9675 98.707143 
L 235.692604 98.707143 
z
" style="fill:#1f77b4;"/>
   </g>
   <g id="patch_24">
    <path clip-path="url(#pb41d50d58c)" d="M 242.9675 150.81 
L 250.242396 150.81 
L 250.242396 114.338 
L 242.9675 114.338 
z
" style="fill:#1f77b4;"/>
   </g>
   <g id="patch_25">
    <path clip-path="url(#pb41d50d58c)" d="M 250.242396 150.81 
L 257.517292 150.81 
L 257.517292 150.81 
L 250.242396 150.81 
z
" style="fill:#1f77b4;"/>
   </g>
   <g id="patch_26">
    <path clip-path="url(#pb41d50d58c)" d="M 257.517292 150.81 
L 264.792187 150.81 
L 264.792187 145.599714 
L 257.517292 145.599714 
z
" style="fill:#1f77b4;"/>
   </g>
   <g id="patch_27">
    <path clip-path="url(#pb41d50d58c)" d="M 264.792187 150.81 
L 272.067083 150.81 
L 272.067083 88.286571 
L 264.792187 88.286571 
z
" style="fill:#1f77b4;"/>
   </g>
   <g id="patch_28">
    <path clip-path="url(#pb41d50d58c)" d="M 272.067083 150.81 
L 279.341979 150.81 
L 279.341979 83.076286 
L 272.067083 83.076286 
z
" style="fill:#1f77b4;"/>
   </g>
   <g id="patch_29">
    <path clip-path="url(#pb41d50d58c)" d="M 279.341979 150.81 
L 286.616875 150.81 
L 286.616875 62.235143 
L 279.341979 62.235143 
z
" style="fill:#1f77b4;"/>
   </g>
   <g id="patch_30">
    <path clip-path="url(#pb41d50d58c)" d="M 286.616875 150.81 
L 293.891771 150.81 
L 293.891771 77.866 
L 286.616875 77.866 
z
" style="fill:#1f77b4;"/>
   </g>
   <g id="patch_31">
    <path clip-path="url(#pb41d50d58c)" d="M 293.891771 150.81 
L 301.166667 150.81 
L 301.166667 119.548286 
L 293.891771 119.548286 
z
" style="fill:#1f77b4;"/>
   </g>
   <g id="patch_32">
    <path d="M 184.768333 150.81 
L 184.768333 14.04 
" style="fill:none;stroke:#262626;stroke-linecap:square;stroke-linejoin:miter;stroke-width:1.25;"/>
   </g>
   <g id="patch_33">
    <path d="M 184.768333 150.81 
L 301.166667 150.81 
" style="fill:none;stroke:#262626;stroke-linecap:square;stroke-linejoin:miter;stroke-width:1.25;"/>
   </g>
  </g>
  <g id="axes_3">
   <g id="patch_34">
    <path d="M 326.626667 150.81 
L 443.025 150.81 
L 443.025 14.04 
L 326.626667 14.04 
z
" style="fill:#ffffff;"/>
   </g>
   <g id="matplotlib.axis_5">
    <g id="xtick_7">
     <g id="line2d_19"/>
     <g id="text_19">
      <!-- 2.5 -->
      <g style="fill:#262626;" transform="translate(339.096373 161.467812)scale(0.1 -0.1)">
       <use xlink:href="#ArialMT-32"/>
       <use x="55.615234" xlink:href="#ArialMT-2e"/>
       <use x="83.398438" xlink:href="#ArialMT-35"/>
      </g>
     </g>
    </g>
    <g id="xtick_8">
     <g id="line2d_20"/>
     <g id="text_20">
      <!-- 5.0 -->
      <g style="fill:#262626;" transform="translate(375.265278 161.467812)scale(0.1 -0.1)">
       <use xlink:href="#ArialMT-35"/>
       <use x="55.615234" xlink:href="#ArialMT-2e"/>
       <use x="83.398438" xlink:href="#ArialMT-30"/>
      </g>
     </g>
    </g>
    <g id="xtick_9">
     <g id="line2d_21"/>
     <g id="text_21">
      <!-- 7.5 -->
      <g style="fill:#262626;" transform="translate(411.434184 161.467812)scale(0.1 -0.1)">
       <use xlink:href="#ArialMT-37"/>
       <use x="55.615234" xlink:href="#ArialMT-2e"/>
       <use x="83.398438" xlink:href="#ArialMT-35"/>
      </g>
     </g>
    </g>
   </g>
   <g id="matplotlib.axis_6">
    <g id="ytick_13">
     <g id="line2d_22"/>
     <g id="text_22">
      <!-- 0 -->
      <g style="fill:#262626;" transform="translate(317.565729 154.388906)scale(0.1 -0.1)">
       <use xlink:href="#ArialMT-30"/>
      </g>
     </g>
    </g>
    <g id="ytick_14">
     <g id="line2d_23"/>
     <g id="text_23">
      <!-- 5 -->
      <g style="fill:#262626;" transform="translate(317.565729 128.337478)scale(0.1 -0.1)">
       <use xlink:href="#ArialMT-35"/>
      </g>
     </g>
    </g>
    <g id="ytick_15">
     <g id="line2d_24"/>
     <g id="text_24">
      <!-- 10 -->
      <g style="fill:#262626;" transform="translate(312.004792 102.286049)scale(0.1 -0.1)">
       <use xlink:href="#ArialMT-31"/>
       <use x="55.615234" xlink:href="#ArialMT-30"/>
      </g>
     </g>
    </g>
    <g id="ytick_16">
     <g id="line2d_25"/>
     <g id="text_25">
      <!-- 15 -->
      <g style="fill:#262626;" transform="translate(312.004792 76.234621)scale(0.1 -0.1)">
       <use xlink:href="#ArialMT-31"/>
       <use x="55.615234" xlink:href="#ArialMT-35"/>
      </g>
     </g>
    </g>
    <g id="ytick_17">
     <g id="line2d_26"/>
     <g id="text_26">
      <!-- 20 -->
      <g style="fill:#262626;" transform="translate(312.004792 50.183192)scale(0.1 -0.1)">
       <use xlink:href="#ArialMT-32"/>
       <use x="55.615234" xlink:href="#ArialMT-30"/>
      </g>
     </g>
    </g>
    <g id="ytick_18">
     <g id="line2d_27"/>
     <g id="text_27">
      <!-- 25 -->
      <g style="fill:#262626;" transform="translate(312.004792 24.131763)scale(0.1 -0.1)">
       <use xlink:href="#ArialMT-32"/>
       <use x="55.615234" xlink:href="#ArialMT-35"/>
      </g>
     </g>
    </g>
   </g>
   <g id="patch_35">
    <path clip-path="url(#pbb72147f72)" d="M 326.626667 150.81 
L 331.9175 150.81 
L 331.9175 135.179143 
L 326.626667 135.179143 
z
" style="fill:#1f77b4;"/>
   </g>
   <g id="patch_36">
    <path clip-path="url(#pbb72147f72)" d="M 331.9175 150.81 
L 337.208333 150.81 
L 337.208333 145.599714 
L 331.9175 145.599714 
z
" style="fill:#1f77b4;"/>
   </g>
   <g id="patch_37">
    <path clip-path="url(#pbb72147f72)" d="M 337.208333 150.81 
L 342.499167 150.81 
L 342.499167 129.968857 
L 337.208333 129.968857 
z
" style="fill:#1f77b4;"/>
   </g>
   <g id="patch_38">
    <path clip-path="url(#pbb72147f72)" d="M 342.499167 150.81 
L 347.79 150.81 
L 347.79 145.599714 
L 342.499167 145.599714 
z
" style="fill:#1f77b4;"/>
   </g>
   <g id="patch_39">
    <path clip-path="url(#pbb72147f72)" d="M 347.79 150.81 
L 353.080833 150.81 
L 353.080833 150.81 
L 347.79 150.81 
z
" style="fill:#1f77b4;"/>
   </g>
   <g id="patch_40">
    <path clip-path="url(#pbb72147f72)" d="M 353.080833 150.81 
L 358.371667 150.81 
L 358.371667 150.81 
L 353.080833 150.81 
z
" style="fill:#1f77b4;"/>
   </g>
   <g id="patch_41">
    <path clip-path="url(#pbb72147f72)" d="M 358.371667 150.81 
L 363.6625 150.81 
L 363.6625 145.599714 
L 358.371667 145.599714 
z
" style="fill:#1f77b4;"/>
   </g>
   <g id="patch_42">
    <path clip-path="url(#pbb72147f72)" d="M 363.6625 150.81 
L 368.953333 150.81 
L 368.953333 145.599714 
L 363.6625 145.599714 
z
" style="fill:#1f77b4;"/>
   </g>
   <g id="patch_43">
    <path clip-path="url(#pbb72147f72)" d="M 368.953333 150.81 
L 374.244167 150.81 
L 374.244167 119.548286 
L 368.953333 119.548286 
z
" style="fill:#1f77b4;"/>
   </g>
   <g id="patch_44">
    <path clip-path="url(#pbb72147f72)" d="M 374.244167 150.81 
L 379.535 150.81 
L 379.535 114.338 
L 374.244167 114.338 
z
" style="fill:#1f77b4;"/>
   </g>
   <g id="patch_45">
    <path clip-path="url(#pbb72147f72)" d="M 379.535 150.81 
L 384.825833 150.81 
L 384.825833 119.548286 
L 379.535 119.548286 
z
" style="fill:#1f77b4;"/>
   </g>
   <g id="patch_46">
    <path clip-path="url(#pbb72147f72)" d="M 384.825833 150.81 
L 390.116667 150.81 
L 390.116667 114.338 
L 384.825833 114.338 
z
" style="fill:#1f77b4;"/>
   </g>
   <g id="patch_47">
    <path clip-path="url(#pbb72147f72)" d="M 390.116667 150.81 
L 395.4075 150.81 
L 395.4075 150.81 
L 390.116667 150.81 
z
" style="fill:#1f77b4;"/>
   </g>
   <g id="patch_48">
    <path clip-path="url(#pbb72147f72)" d="M 395.4075 150.81 
L 400.698333 150.81 
L 400.698333 150.81 
L 395.4075 150.81 
z
" style="fill:#1f77b4;"/>
   </g>
   <g id="patch_49">
    <path clip-path="url(#pbb72147f72)" d="M 400.698333 150.81 
L 405.989167 150.81 
L 405.989167 145.599714 
L 400.698333 145.599714 
z
" style="fill:#1f77b4;"/>
   </g>
   <g id="patch_50">
    <path clip-path="url(#pbb72147f72)" d="M 405.989167 150.81 
L 411.28 150.81 
L 411.28 119.548286 
L 405.989167 119.548286 
z
" style="fill:#1f77b4;"/>
   </g>
   <g id="patch_51">
    <path clip-path="url(#pbb72147f72)" d="M 411.28 150.81 
L 416.570833 150.81 
L 416.570833 77.866 
L 411.28 77.866 
z
" style="fill:#1f77b4;"/>
   </g>
   <g id="patch_52">
    <path clip-path="url(#pbb72147f72)" d="M 416.570833 150.81 
L 421.861667 150.81 
L 421.861667 114.338 
L 416.570833 114.338 
z
" style="fill:#1f77b4;"/>
   </g>
   <g id="patch_53">
    <path clip-path="url(#pbb72147f72)" d="M 421.861667 150.81 
L 427.1525 150.81 
L 427.1525 93.496857 
L 421.861667 93.496857 
z
" style="fill:#1f77b4;"/>
   </g>
   <g id="patch_54">
    <path clip-path="url(#pbb72147f72)" d="M 427.1525 150.81 
L 432.443333 150.81 
L 432.443333 98.707143 
L 427.1525 98.707143 
z
" style="fill:#1f77b4;"/>
   </g>
   <g id="patch_55">
    <path clip-path="url(#pbb72147f72)" d="M 432.443333 150.81 
L 437.734167 150.81 
L 437.734167 98.707143 
L 432.443333 98.707143 
z
" style="fill:#1f77b4;"/>
   </g>
   <g id="patch_56">
    <path clip-path="url(#pbb72147f72)" d="M 437.734167 150.81 
L 443.025 150.81 
L 443.025 129.968857 
L 437.734167 129.968857 
z
" style="fill:#1f77b4;"/>
   </g>
   <g id="patch_57">
    <path d="M 326.626667 150.81 
L 326.626667 14.04 
" style="fill:none;stroke:#262626;stroke-linecap:square;stroke-linejoin:miter;stroke-width:1.25;"/>
   </g>
   <g id="patch_58">
    <path d="M 326.626667 150.81 
L 443.025 150.81 
" style="fill:none;stroke:#262626;stroke-linecap:square;stroke-linejoin:miter;stroke-width:1.25;"/>
   </g>
  </g>
  <g id="axes_4">
   <g id="patch_59">
    <path d="M 42.91 310.52 
L 159.308333 310.52 
L 159.308333 173.75 
L 42.91 173.75 
z
" style="fill:#ffffff;"/>
   </g>
   <g id="matplotlib.axis_7">
    <g id="xtick_10">
     <g id="line2d_28"/>
     <g id="text_28">
      <!-- 2.5 -->
      <g style="fill:#262626;" transform="translate(55.379706 321.177812)scale(0.1 -0.1)">
       <use xlink:href="#ArialMT-32"/>
       <use x="55.615234" xlink:href="#ArialMT-2e"/>
       <use x="83.398438" xlink:href="#ArialMT-35"/>
      </g>
     </g>
    </g>
    <g id="xtick_11">
     <g id="line2d_29"/>
     <g id="text_29">
      <!-- 5.0 -->
      <g style="fill:#262626;" transform="translate(91.548612 321.177812)scale(0.1 -0.1)">
       <use xlink:href="#ArialMT-35"/>
       <use x="55.615234" xlink:href="#ArialMT-2e"/>
       <use x="83.398438" xlink:href="#ArialMT-30"/>
      </g>
     </g>
    </g>
    <g id="xtick_12">
     <g id="line2d_30"/>
     <g id="text_30">
      <!-- 7.5 -->
      <g style="fill:#262626;" transform="translate(127.717517 321.177812)scale(0.1 -0.1)">
       <use xlink:href="#ArialMT-37"/>
       <use x="55.615234" xlink:href="#ArialMT-2e"/>
       <use x="83.398438" xlink:href="#ArialMT-35"/>
      </g>
     </g>
    </g>
   </g>
   <g id="matplotlib.axis_8">
    <g id="ytick_19">
     <g id="line2d_31"/>
     <g id="text_31">
      <!-- 0 -->
      <g style="fill:#262626;" transform="translate(33.849063 314.098906)scale(0.1 -0.1)">
       <use xlink:href="#ArialMT-30"/>
      </g>
     </g>
    </g>
    <g id="ytick_20">
     <g id="line2d_32"/>
     <g id="text_32">
      <!-- 5 -->
      <g style="fill:#262626;" transform="translate(33.849063 288.047478)scale(0.1 -0.1)">
       <use xlink:href="#ArialMT-35"/>
      </g>
     </g>
    </g>
    <g id="ytick_21">
     <g id="line2d_33"/>
     <g id="text_33">
      <!-- 10 -->
      <g style="fill:#262626;" transform="translate(28.288125 261.996049)scale(0.1 -0.1)">
       <use xlink:href="#ArialMT-31"/>
       <use x="55.615234" xlink:href="#ArialMT-30"/>
      </g>
     </g>
    </g>
    <g id="ytick_22">
     <g id="line2d_34"/>
     <g id="text_34">
      <!-- 15 -->
      <g style="fill:#262626;" transform="translate(28.288125 235.944621)scale(0.1 -0.1)">
       <use xlink:href="#ArialMT-31"/>
       <use x="55.615234" xlink:href="#ArialMT-35"/>
      </g>
     </g>
    </g>
    <g id="ytick_23">
     <g id="line2d_35"/>
     <g id="text_35">
      <!-- 20 -->
      <g style="fill:#262626;" transform="translate(28.288125 209.893192)scale(0.1 -0.1)">
       <use xlink:href="#ArialMT-32"/>
       <use x="55.615234" xlink:href="#ArialMT-30"/>
      </g>
     </g>
    </g>
    <g id="ytick_24">
     <g id="line2d_36"/>
     <g id="text_36">
      <!-- 25 -->
      <g style="fill:#262626;" transform="translate(28.288125 183.841763)scale(0.1 -0.1)">
       <use xlink:href="#ArialMT-32"/>
       <use x="55.615234" xlink:href="#ArialMT-35"/>
      </g>
     </g>
    </g>
   </g>
   <g id="patch_60">
    <path clip-path="url(#p37c9e53cad)" d="M 42.91 310.52 
L 47.067083 310.52 
L 47.067083 294.889143 
L 42.91 294.889143 
z
" style="fill:#1f77b4;"/>
   </g>
   <g id="patch_61">
    <path clip-path="url(#p37c9e53cad)" d="M 47.067083 310.52 
L 51.224167 310.52 
L 51.224167 305.309714 
L 47.067083 305.309714 
z
" style="fill:#1f77b4;"/>
   </g>
   <g id="patch_62">
    <path clip-path="url(#p37c9e53cad)" d="M 51.224167 310.52 
L 55.38125 310.52 
L 55.38125 300.099429 
L 51.224167 300.099429 
z
" style="fill:#1f77b4;"/>
   </g>
   <g id="patch_63">
    <path clip-path="url(#p37c9e53cad)" d="M 55.38125 310.52 
L 59.538333 310.52 
L 59.538333 300.099429 
L 55.38125 300.099429 
z
" style="fill:#1f77b4;"/>
   </g>
   <g id="patch_64">
    <path clip-path="url(#p37c9e53cad)" d="M 59.538333 310.52 
L 63.695417 310.52 
L 63.695417 305.309714 
L 59.538333 305.309714 
z
" style="fill:#1f77b4;"/>
   </g>
   <g id="patch_65">
    <path clip-path="url(#p37c9e53cad)" d="M 63.695417 310.52 
L 67.8525 310.52 
L 67.8525 310.52 
L 63.695417 310.52 
z
" style="fill:#1f77b4;"/>
   </g>
   <g id="patch_66">
    <path clip-path="url(#p37c9e53cad)" d="M 67.8525 310.52 
L 72.009583 310.52 
L 72.009583 310.52 
L 67.8525 310.52 
z
" style="fill:#1f77b4;"/>
   </g>
   <g id="patch_67">
    <path clip-path="url(#p37c9e53cad)" d="M 72.009583 310.52 
L 76.166667 310.52 
L 76.166667 310.52 
L 72.009583 310.52 
z
" style="fill:#1f77b4;"/>
   </g>
   <g id="patch_68">
    <path clip-path="url(#p37c9e53cad)" d="M 76.166667 310.52 
L 80.32375 310.52 
L 80.32375 305.309714 
L 76.166667 305.309714 
z
" style="fill:#1f77b4;"/>
   </g>
   <g id="patch_69">
    <path clip-path="url(#p37c9e53cad)" d="M 80.32375 310.52 
L 84.480833 310.52 
L 84.480833 310.52 
L 80.32375 310.52 
z
" style="fill:#1f77b4;"/>
   </g>
   <g id="patch_70">
    <path clip-path="url(#p37c9e53cad)" d="M 84.480833 310.52 
L 88.637917 310.52 
L 88.637917 279.258286 
L 84.480833 279.258286 
z
" style="fill:#1f77b4;"/>
   </g>
   <g id="patch_71">
    <path clip-path="url(#p37c9e53cad)" d="M 88.637917 310.52 
L 92.795 310.52 
L 92.795 300.099429 
L 88.637917 300.099429 
z
" style="fill:#1f77b4;"/>
   </g>
   <g id="patch_72">
    <path clip-path="url(#p37c9e53cad)" d="M 92.795 310.52 
L 96.952083 310.52 
L 96.952083 274.048 
L 92.795 274.048 
z
" style="fill:#1f77b4;"/>
   </g>
   <g id="patch_73">
    <path clip-path="url(#p37c9e53cad)" d="M 96.952083 310.52 
L 101.109167 310.52 
L 101.109167 284.468571 
L 96.952083 284.468571 
z
" style="fill:#1f77b4;"/>
   </g>
   <g id="patch_74">
    <path clip-path="url(#p37c9e53cad)" d="M 101.109167 310.52 
L 105.26625 310.52 
L 105.26625 279.258286 
L 101.109167 279.258286 
z
" style="fill:#1f77b4;"/>
   </g>
   <g id="patch_75">
    <path clip-path="url(#p37c9e53cad)" d="M 105.26625 310.52 
L 109.423333 310.52 
L 109.423333 305.309714 
L 105.26625 305.309714 
z
" style="fill:#1f77b4;"/>
   </g>
   <g id="patch_76">
    <path clip-path="url(#p37c9e53cad)" d="M 109.423333 310.52 
L 113.580417 310.52 
L 113.580417 310.52 
L 109.423333 310.52 
z
" style="fill:#1f77b4;"/>
   </g>
   <g id="patch_77">
    <path clip-path="url(#p37c9e53cad)" d="M 113.580417 310.52 
L 117.7375 310.52 
L 117.7375 310.52 
L 113.580417 310.52 
z
" style="fill:#1f77b4;"/>
   </g>
   <g id="patch_78">
    <path clip-path="url(#p37c9e53cad)" d="M 117.7375 310.52 
L 121.894583 310.52 
L 121.894583 305.309714 
L 117.7375 305.309714 
z
" style="fill:#1f77b4;"/>
   </g>
   <g id="patch_79">
    <path clip-path="url(#p37c9e53cad)" d="M 121.894583 310.52 
L 126.051667 310.52 
L 126.051667 294.889143 
L 121.894583 294.889143 
z
" style="fill:#1f77b4;"/>
   </g>
   <g id="patch_80">
    <path clip-path="url(#p37c9e53cad)" d="M 126.051667 310.52 
L 130.20875 310.52 
L 130.20875 263.627429 
L 126.051667 263.627429 
z
" style="fill:#1f77b4;"/>
   </g>
   <g id="patch_81">
    <path clip-path="url(#p37c9e53cad)" d="M 130.20875 310.52 
L 134.365833 310.52 
L 134.365833 258.417143 
L 130.20875 258.417143 
z
" style="fill:#1f77b4;"/>
   </g>
   <g id="patch_82">
    <path clip-path="url(#p37c9e53cad)" d="M 134.365833 310.52 
L 138.522917 310.52 
L 138.522917 274.048 
L 134.365833 274.048 
z
" style="fill:#1f77b4;"/>
   </g>
   <g id="patch_83">
    <path clip-path="url(#p37c9e53cad)" d="M 138.522917 310.52 
L 142.68 310.52 
L 142.68 263.627429 
L 138.522917 263.627429 
z
" style="fill:#1f77b4;"/>
   </g>
   <g id="patch_84">
    <path clip-path="url(#p37c9e53cad)" d="M 142.68 310.52 
L 146.837083 310.52 
L 146.837083 274.048 
L 142.68 274.048 
z
" style="fill:#1f77b4;"/>
   </g>
   <g id="patch_85">
    <path clip-path="url(#p37c9e53cad)" d="M 146.837083 310.52 
L 150.994167 310.52 
L 150.994167 274.048 
L 146.837083 274.048 
z
" style="fill:#1f77b4;"/>
   </g>
   <g id="patch_86">
    <path clip-path="url(#p37c9e53cad)" d="M 150.994167 310.52 
L 155.15125 310.52 
L 155.15125 274.048 
L 150.994167 274.048 
z
" style="fill:#1f77b4;"/>
   </g>
   <g id="patch_87">
    <path clip-path="url(#p37c9e53cad)" d="M 155.15125 310.52 
L 159.308333 310.52 
L 159.308333 294.889143 
L 155.15125 294.889143 
z
" style="fill:#1f77b4;"/>
   </g>
   <g id="patch_88">
    <path d="M 42.91 310.52 
L 42.91 173.75 
" style="fill:none;stroke:#262626;stroke-linecap:square;stroke-linejoin:miter;stroke-width:1.25;"/>
   </g>
   <g id="patch_89">
    <path d="M 42.91 310.52 
L 159.308333 310.52 
" style="fill:none;stroke:#262626;stroke-linecap:square;stroke-linejoin:miter;stroke-width:1.25;"/>
   </g>
  </g>
  <g id="axes_5">
   <g id="patch_90">
    <path d="M 184.768333 310.52 
L 301.166667 310.52 
L 301.166667 173.75 
L 184.768333 173.75 
z
" style="fill:#ffffff;"/>
   </g>
   <g id="matplotlib.axis_9">
    <g id="xtick_13">
     <g id="line2d_37"/>
     <g id="text_37">
      <!-- 2.5 -->
      <g style="fill:#262626;" transform="translate(197.238039 321.177812)scale(0.1 -0.1)">
       <use xlink:href="#ArialMT-32"/>
       <use x="55.615234" xlink:href="#ArialMT-2e"/>
       <use x="83.398438" xlink:href="#ArialMT-35"/>
      </g>
     </g>
    </g>
    <g id="xtick_14">
     <g id="line2d_38"/>
     <g id="text_38">
      <!-- 5.0 -->
      <g style="fill:#262626;" transform="translate(233.406945 321.177812)scale(0.1 -0.1)">
       <use xlink:href="#ArialMT-35"/>
       <use x="55.615234" xlink:href="#ArialMT-2e"/>
       <use x="83.398438" xlink:href="#ArialMT-30"/>
      </g>
     </g>
    </g>
    <g id="xtick_15">
     <g id="line2d_39"/>
     <g id="text_39">
      <!-- 7.5 -->
      <g style="fill:#262626;" transform="translate(269.575851 321.177812)scale(0.1 -0.1)">
       <use xlink:href="#ArialMT-37"/>
       <use x="55.615234" xlink:href="#ArialMT-2e"/>
       <use x="83.398438" xlink:href="#ArialMT-35"/>
      </g>
     </g>
    </g>
   </g>
   <g id="matplotlib.axis_10">
    <g id="ytick_25">
     <g id="line2d_40"/>
     <g id="text_40">
      <!-- 0 -->
      <g style="fill:#262626;" transform="translate(175.707396 314.098906)scale(0.1 -0.1)">
       <use xlink:href="#ArialMT-30"/>
      </g>
     </g>
    </g>
    <g id="ytick_26">
     <g id="line2d_41"/>
     <g id="text_41">
      <!-- 5 -->
      <g style="fill:#262626;" transform="translate(175.707396 288.047478)scale(0.1 -0.1)">
       <use xlink:href="#ArialMT-35"/>
      </g>
     </g>
    </g>
    <g id="ytick_27">
     <g id="line2d_42"/>
     <g id="text_42">
      <!-- 10 -->
      <g style="fill:#262626;" transform="translate(170.146458 261.996049)scale(0.1 -0.1)">
       <use xlink:href="#ArialMT-31"/>
       <use x="55.615234" xlink:href="#ArialMT-30"/>
      </g>
     </g>
    </g>
    <g id="ytick_28">
     <g id="line2d_43"/>
     <g id="text_43">
      <!-- 15 -->
      <g style="fill:#262626;" transform="translate(170.146458 235.944621)scale(0.1 -0.1)">
       <use xlink:href="#ArialMT-31"/>
       <use x="55.615234" xlink:href="#ArialMT-35"/>
      </g>
     </g>
    </g>
    <g id="ytick_29">
     <g id="line2d_44"/>
     <g id="text_44">
      <!-- 20 -->
      <g style="fill:#262626;" transform="translate(170.146458 209.893192)scale(0.1 -0.1)">
       <use xlink:href="#ArialMT-32"/>
       <use x="55.615234" xlink:href="#ArialMT-30"/>
      </g>
     </g>
    </g>
    <g id="ytick_30">
     <g id="line2d_45"/>
     <g id="text_45">
      <!-- 25 -->
      <g style="fill:#262626;" transform="translate(170.146458 183.841763)scale(0.1 -0.1)">
       <use xlink:href="#ArialMT-32"/>
       <use x="55.615234" xlink:href="#ArialMT-35"/>
      </g>
     </g>
    </g>
   </g>
   <g id="patch_91">
    <path clip-path="url(#pbc51d79d33)" d="M 184.768333 310.52 
L 188.191814 310.52 
L 188.191814 294.889143 
L 184.768333 294.889143 
z
" style="fill:#1f77b4;"/>
   </g>
   <g id="patch_92">
    <path clip-path="url(#pbc51d79d33)" d="M 188.191814 310.52 
L 191.615294 310.52 
L 191.615294 310.52 
L 188.191814 310.52 
z
" style="fill:#1f77b4;"/>
   </g>
   <g id="patch_93">
    <path clip-path="url(#pbc51d79d33)" d="M 191.615294 310.52 
L 195.038775 310.52 
L 195.038775 305.309714 
L 191.615294 305.309714 
z
" style="fill:#1f77b4;"/>
   </g>
   <g id="patch_94">
    <path clip-path="url(#pbc51d79d33)" d="M 195.038775 310.52 
L 198.462255 310.52 
L 198.462255 294.889143 
L 195.038775 294.889143 
z
" style="fill:#1f77b4;"/>
   </g>
   <g id="patch_95">
    <path clip-path="url(#pbc51d79d33)" d="M 198.462255 310.52 
L 201.885735 310.52 
L 201.885735 305.309714 
L 198.462255 305.309714 
z
" style="fill:#1f77b4;"/>
   </g>
   <g id="patch_96">
    <path clip-path="url(#pbc51d79d33)" d="M 201.885735 310.52 
L 205.309216 310.52 
L 205.309216 305.309714 
L 201.885735 305.309714 
z
" style="fill:#1f77b4;"/>
   </g>
   <g id="patch_97">
    <path clip-path="url(#pbc51d79d33)" d="M 205.309216 310.52 
L 208.732696 310.52 
L 208.732696 310.52 
L 205.309216 310.52 
z
" style="fill:#1f77b4;"/>
   </g>
   <g id="patch_98">
    <path clip-path="url(#pbc51d79d33)" d="M 208.732696 310.52 
L 212.156176 310.52 
L 212.156176 310.52 
L 208.732696 310.52 
z
" style="fill:#1f77b4;"/>
   </g>
   <g id="patch_99">
    <path clip-path="url(#pbc51d79d33)" d="M 212.156176 310.52 
L 215.579657 310.52 
L 215.579657 310.52 
L 212.156176 310.52 
z
" style="fill:#1f77b4;"/>
   </g>
   <g id="patch_100">
    <path clip-path="url(#pbc51d79d33)" d="M 215.579657 310.52 
L 219.003137 310.52 
L 219.003137 305.309714 
L 215.579657 305.309714 
z
" style="fill:#1f77b4;"/>
   </g>
   <g id="patch_101">
    <path clip-path="url(#pbc51d79d33)" d="M 219.003137 310.52 
L 222.426618 310.52 
L 222.426618 310.52 
L 219.003137 310.52 
z
" style="fill:#1f77b4;"/>
   </g>
   <g id="patch_102">
    <path clip-path="url(#pbc51d79d33)" d="M 222.426618 310.52 
L 225.850098 310.52 
L 225.850098 310.52 
L 222.426618 310.52 
z
" style="fill:#1f77b4;"/>
   </g>
   <g id="patch_103">
    <path clip-path="url(#pbc51d79d33)" d="M 225.850098 310.52 
L 229.273578 310.52 
L 229.273578 289.678857 
L 225.850098 289.678857 
z
" style="fill:#1f77b4;"/>
   </g>
   <g id="patch_104">
    <path clip-path="url(#pbc51d79d33)" d="M 229.273578 310.52 
L 232.697059 310.52 
L 232.697059 294.889143 
L 229.273578 294.889143 
z
" style="fill:#1f77b4;"/>
   </g>
   <g id="patch_105">
    <path clip-path="url(#pbc51d79d33)" d="M 232.697059 310.52 
L 236.120539 310.52 
L 236.120539 294.889143 
L 232.697059 294.889143 
z
" style="fill:#1f77b4;"/>
   </g>
   <g id="patch_106">
    <path clip-path="url(#pbc51d79d33)" d="M 236.120539 310.52 
L 239.54402 310.52 
L 239.54402 279.258286 
L 236.120539 279.258286 
z
" style="fill:#1f77b4;"/>
   </g>
   <g id="patch_107">
    <path clip-path="url(#pbc51d79d33)" d="M 239.54402 310.52 
L 242.9675 310.52 
L 242.9675 289.678857 
L 239.54402 289.678857 
z
" style="fill:#1f77b4;"/>
   </g>
   <g id="patch_108">
    <path clip-path="url(#pbc51d79d33)" d="M 242.9675 310.52 
L 246.39098 310.52 
L 246.39098 289.678857 
L 242.9675 289.678857 
z
" style="fill:#1f77b4;"/>
   </g>
   <g id="patch_109">
    <path clip-path="url(#pbc51d79d33)" d="M 246.39098 310.52 
L 249.814461 310.52 
L 249.814461 294.889143 
L 246.39098 294.889143 
z
" style="fill:#1f77b4;"/>
   </g>
   <g id="patch_110">
    <path clip-path="url(#pbc51d79d33)" d="M 249.814461 310.52 
L 253.237941 310.52 
L 253.237941 310.52 
L 249.814461 310.52 
z
" style="fill:#1f77b4;"/>
   </g>
   <g id="patch_111">
    <path clip-path="url(#pbc51d79d33)" d="M 253.237941 310.52 
L 256.661422 310.52 
L 256.661422 310.52 
L 253.237941 310.52 
z
" style="fill:#1f77b4;"/>
   </g>
   <g id="patch_112">
    <path clip-path="url(#pbc51d79d33)" d="M 256.661422 310.52 
L 260.084902 310.52 
L 260.084902 310.52 
L 256.661422 310.52 
z
" style="fill:#1f77b4;"/>
   </g>
   <g id="patch_113">
    <path clip-path="url(#pbc51d79d33)" d="M 260.084902 310.52 
L 263.508382 310.52 
L 263.508382 305.309714 
L 260.084902 305.309714 
z
" style="fill:#1f77b4;"/>
   </g>
   <g id="patch_114">
    <path clip-path="url(#pbc51d79d33)" d="M 263.508382 310.52 
L 266.931863 310.52 
L 266.931863 305.309714 
L 263.508382 305.309714 
z
" style="fill:#1f77b4;"/>
   </g>
   <g id="patch_115">
    <path clip-path="url(#pbc51d79d33)" d="M 266.931863 310.52 
L 270.355343 310.52 
L 270.355343 279.258286 
L 266.931863 279.258286 
z
" style="fill:#1f77b4;"/>
   </g>
   <g id="patch_116">
    <path clip-path="url(#pbc51d79d33)" d="M 270.355343 310.52 
L 273.778824 310.52 
L 273.778824 247.996571 
L 270.355343 247.996571 
z
" style="fill:#1f77b4;"/>
   </g>
   <g id="patch_117">
    <path clip-path="url(#pbc51d79d33)" d="M 273.778824 310.52 
L 277.202304 310.52 
L 277.202304 284.468571 
L 273.778824 284.468571 
z
" style="fill:#1f77b4;"/>
   </g>
   <g id="patch_118">
    <path clip-path="url(#pbc51d79d33)" d="M 277.202304 310.52 
L 280.625784 310.52 
L 280.625784 279.258286 
L 277.202304 279.258286 
z
" style="fill:#1f77b4;"/>
   </g>
   <g id="patch_119">
    <path clip-path="url(#pbc51d79d33)" d="M 280.625784 310.52 
L 284.049265 310.52 
L 284.049265 279.258286 
L 280.625784 279.258286 
z
" style="fill:#1f77b4;"/>
   </g>
   <g id="patch_120">
    <path clip-path="url(#pbc51d79d33)" d="M 284.049265 310.52 
L 287.472745 310.52 
L 287.472745 274.048 
L 284.049265 274.048 
z
" style="fill:#1f77b4;"/>
   </g>
   <g id="patch_121">
    <path clip-path="url(#pbc51d79d33)" d="M 287.472745 310.52 
L 290.896225 310.52 
L 290.896225 279.258286 
L 287.472745 279.258286 
z
" style="fill:#1f77b4;"/>
   </g>
   <g id="patch_122">
    <path clip-path="url(#pbc51d79d33)" d="M 290.896225 310.52 
L 294.319706 310.52 
L 294.319706 274.048 
L 290.896225 274.048 
z
" style="fill:#1f77b4;"/>
   </g>
   <g id="patch_123">
    <path clip-path="url(#pbc51d79d33)" d="M 294.319706 310.52 
L 297.743186 310.52 
L 297.743186 289.678857 
L 294.319706 289.678857 
z
" style="fill:#1f77b4;"/>
   </g>
   <g id="patch_124">
    <path clip-path="url(#pbc51d79d33)" d="M 297.743186 310.52 
L 301.166667 310.52 
L 301.166667 300.099429 
L 297.743186 300.099429 
z
" style="fill:#1f77b4;"/>
   </g>
   <g id="patch_125">
    <path d="M 184.768333 310.52 
L 184.768333 173.75 
" style="fill:none;stroke:#262626;stroke-linecap:square;stroke-linejoin:miter;stroke-width:1.25;"/>
   </g>
   <g id="patch_126">
    <path d="M 184.768333 310.52 
L 301.166667 310.52 
" style="fill:none;stroke:#262626;stroke-linecap:square;stroke-linejoin:miter;stroke-width:1.25;"/>
   </g>
  </g>
  <g id="axes_6">
   <g id="patch_127">
    <path d="M 326.626667 310.52 
L 443.025 310.52 
L 443.025 173.75 
L 326.626667 173.75 
z
" style="fill:#ffffff;"/>
   </g>
   <g id="matplotlib.axis_11">
    <g id="xtick_16">
     <g id="line2d_46"/>
     <g id="text_46">
      <!-- 2.5 -->
      <g style="fill:#262626;" transform="translate(339.096373 321.177812)scale(0.1 -0.1)">
       <use xlink:href="#ArialMT-32"/>
       <use x="55.615234" xlink:href="#ArialMT-2e"/>
       <use x="83.398438" xlink:href="#ArialMT-35"/>
      </g>
     </g>
    </g>
    <g id="xtick_17">
     <g id="line2d_47"/>
     <g id="text_47">
      <!-- 5.0 -->
      <g style="fill:#262626;" transform="translate(375.265278 321.177812)scale(0.1 -0.1)">
       <use xlink:href="#ArialMT-35"/>
       <use x="55.615234" xlink:href="#ArialMT-2e"/>
       <use x="83.398438" xlink:href="#ArialMT-30"/>
      </g>
     </g>
    </g>
    <g id="xtick_18">
     <g id="line2d_48"/>
     <g id="text_48">
      <!-- 7.5 -->
      <g style="fill:#262626;" transform="translate(411.434184 321.177812)scale(0.1 -0.1)">
       <use xlink:href="#ArialMT-37"/>
       <use x="55.615234" xlink:href="#ArialMT-2e"/>
       <use x="83.398438" xlink:href="#ArialMT-35"/>
      </g>
     </g>
    </g>
   </g>
   <g id="matplotlib.axis_12">
    <g id="ytick_31">
     <g id="line2d_49"/>
     <g id="text_49">
      <!-- 0 -->
      <g style="fill:#262626;" transform="translate(317.565729 314.098906)scale(0.1 -0.1)">
       <use xlink:href="#ArialMT-30"/>
      </g>
     </g>
    </g>
    <g id="ytick_32">
     <g id="line2d_50"/>
     <g id="text_50">
      <!-- 5 -->
      <g style="fill:#262626;" transform="translate(317.565729 288.047478)scale(0.1 -0.1)">
       <use xlink:href="#ArialMT-35"/>
      </g>
     </g>
    </g>
    <g id="ytick_33">
     <g id="line2d_51"/>
     <g id="text_51">
      <!-- 10 -->
      <g style="fill:#262626;" transform="translate(312.004792 261.996049)scale(0.1 -0.1)">
       <use xlink:href="#ArialMT-31"/>
       <use x="55.615234" xlink:href="#ArialMT-30"/>
      </g>
     </g>
    </g>
    <g id="ytick_34">
     <g id="line2d_52"/>
     <g id="text_52">
      <!-- 15 -->
      <g style="fill:#262626;" transform="translate(312.004792 235.944621)scale(0.1 -0.1)">
       <use xlink:href="#ArialMT-31"/>
       <use x="55.615234" xlink:href="#ArialMT-35"/>
      </g>
     </g>
    </g>
    <g id="ytick_35">
     <g id="line2d_53"/>
     <g id="text_53">
      <!-- 20 -->
      <g style="fill:#262626;" transform="translate(312.004792 209.893192)scale(0.1 -0.1)">
       <use xlink:href="#ArialMT-32"/>
       <use x="55.615234" xlink:href="#ArialMT-30"/>
      </g>
     </g>
    </g>
    <g id="ytick_36">
     <g id="line2d_54"/>
     <g id="text_54">
      <!-- 25 -->
      <g style="fill:#262626;" transform="translate(312.004792 183.841763)scale(0.1 -0.1)">
       <use xlink:href="#ArialMT-32"/>
       <use x="55.615234" xlink:href="#ArialMT-35"/>
      </g>
     </g>
    </g>
   </g>
   <g id="patch_128">
    <path clip-path="url(#p6fa578517e)" d="M 326.626667 310.52 
L 329.536625 310.52 
L 329.536625 294.889143 
L 326.626667 294.889143 
z
" style="fill:#1f77b4;"/>
   </g>
   <g id="patch_129">
    <path clip-path="url(#p6fa578517e)" d="M 329.536625 310.52 
L 332.446583 310.52 
L 332.446583 310.52 
L 329.536625 310.52 
z
" style="fill:#1f77b4;"/>
   </g>
   <g id="patch_130">
    <path clip-path="url(#p6fa578517e)" d="M 332.446583 310.52 
L 335.356542 310.52 
L 335.356542 305.309714 
L 332.446583 305.309714 
z
" style="fill:#1f77b4;"/>
   </g>
   <g id="patch_131">
    <path clip-path="url(#p6fa578517e)" d="M 335.356542 310.52 
L 338.2665 310.52 
L 338.2665 300.099429 
L 335.356542 300.099429 
z
" style="fill:#1f77b4;"/>
   </g>
   <g id="patch_132">
    <path clip-path="url(#p6fa578517e)" d="M 338.2665 310.52 
L 341.176458 310.52 
L 341.176458 300.099429 
L 338.2665 300.099429 
z
" style="fill:#1f77b4;"/>
   </g>
   <g id="patch_133">
    <path clip-path="url(#p6fa578517e)" d="M 341.176458 310.52 
L 344.086417 310.52 
L 344.086417 310.52 
L 341.176458 310.52 
z
" style="fill:#1f77b4;"/>
   </g>
   <g id="patch_134">
    <path clip-path="url(#p6fa578517e)" d="M 344.086417 310.52 
L 346.996375 310.52 
L 346.996375 305.309714 
L 344.086417 305.309714 
z
" style="fill:#1f77b4;"/>
   </g>
   <g id="patch_135">
    <path clip-path="url(#p6fa578517e)" d="M 346.996375 310.52 
L 349.906333 310.52 
L 349.906333 310.52 
L 346.996375 310.52 
z
" style="fill:#1f77b4;"/>
   </g>
   <g id="patch_136">
    <path clip-path="url(#p6fa578517e)" d="M 349.906333 310.52 
L 352.816292 310.52 
L 352.816292 310.52 
L 349.906333 310.52 
z
" style="fill:#1f77b4;"/>
   </g>
   <g id="patch_137">
    <path clip-path="url(#p6fa578517e)" d="M 352.816292 310.52 
L 355.72625 310.52 
L 355.72625 310.52 
L 352.816292 310.52 
z
" style="fill:#1f77b4;"/>
   </g>
   <g id="patch_138">
    <path clip-path="url(#p6fa578517e)" d="M 355.72625 310.52 
L 358.636208 310.52 
L 358.636208 310.52 
L 355.72625 310.52 
z
" style="fill:#1f77b4;"/>
   </g>
   <g id="patch_139">
    <path clip-path="url(#p6fa578517e)" d="M 358.636208 310.52 
L 361.546167 310.52 
L 361.546167 305.309714 
L 358.636208 305.309714 
z
" style="fill:#1f77b4;"/>
   </g>
   <g id="patch_140">
    <path clip-path="url(#p6fa578517e)" d="M 361.546167 310.52 
L 364.456125 310.52 
L 364.456125 310.52 
L 361.546167 310.52 
z
" style="fill:#1f77b4;"/>
   </g>
   <g id="patch_141">
    <path clip-path="url(#p6fa578517e)" d="M 364.456125 310.52 
L 367.366083 310.52 
L 367.366083 310.52 
L 364.456125 310.52 
z
" style="fill:#1f77b4;"/>
   </g>
   <g id="patch_142">
    <path clip-path="url(#p6fa578517e)" d="M 367.366083 310.52 
L 370.276042 310.52 
L 370.276042 294.889143 
L 367.366083 294.889143 
z
" style="fill:#1f77b4;"/>
   </g>
   <g id="patch_143">
    <path clip-path="url(#p6fa578517e)" d="M 370.276042 310.52 
L 373.186 310.52 
L 373.186 294.889143 
L 370.276042 294.889143 
z
" style="fill:#1f77b4;"/>
   </g>
   <g id="patch_144">
    <path clip-path="url(#p6fa578517e)" d="M 373.186 310.52 
L 376.095958 310.52 
L 376.095958 300.099429 
L 373.186 300.099429 
z
" style="fill:#1f77b4;"/>
   </g>
   <g id="patch_145">
    <path clip-path="url(#p6fa578517e)" d="M 376.095958 310.52 
L 379.005917 310.52 
L 379.005917 289.678857 
L 376.095958 289.678857 
z
" style="fill:#1f77b4;"/>
   </g>
   <g id="patch_146">
    <path clip-path="url(#p6fa578517e)" d="M 379.005917 310.52 
L 381.915875 310.52 
L 381.915875 289.678857 
L 379.005917 289.678857 
z
" style="fill:#1f77b4;"/>
   </g>
   <g id="patch_147">
    <path clip-path="url(#p6fa578517e)" d="M 381.915875 310.52 
L 384.825833 310.52 
L 384.825833 289.678857 
L 381.915875 289.678857 
z
" style="fill:#1f77b4;"/>
   </g>
   <g id="patch_148">
    <path clip-path="url(#p6fa578517e)" d="M 384.825833 310.52 
L 387.735792 310.52 
L 387.735792 294.889143 
L 384.825833 294.889143 
z
" style="fill:#1f77b4;"/>
   </g>
   <g id="patch_149">
    <path clip-path="url(#p6fa578517e)" d="M 387.735792 310.52 
L 390.64575 310.52 
L 390.64575 289.678857 
L 387.735792 289.678857 
z
" style="fill:#1f77b4;"/>
   </g>
   <g id="patch_150">
    <path clip-path="url(#p6fa578517e)" d="M 390.64575 310.52 
L 393.555708 310.52 
L 393.555708 310.52 
L 390.64575 310.52 
z
" style="fill:#1f77b4;"/>
   </g>
   <g id="patch_151">
    <path clip-path="url(#p6fa578517e)" d="M 393.555708 310.52 
L 396.465667 310.52 
L 396.465667 310.52 
L 393.555708 310.52 
z
" style="fill:#1f77b4;"/>
   </g>
   <g id="patch_152">
    <path clip-path="url(#p6fa578517e)" d="M 396.465667 310.52 
L 399.375625 310.52 
L 399.375625 310.52 
L 396.465667 310.52 
z
" style="fill:#1f77b4;"/>
   </g>
   <g id="patch_153">
    <path clip-path="url(#p6fa578517e)" d="M 399.375625 310.52 
L 402.285583 310.52 
L 402.285583 310.52 
L 399.375625 310.52 
z
" style="fill:#1f77b4;"/>
   </g>
   <g id="patch_154">
    <path clip-path="url(#p6fa578517e)" d="M 402.285583 310.52 
L 405.195542 310.52 
L 405.195542 310.52 
L 402.285583 310.52 
z
" style="fill:#1f77b4;"/>
   </g>
   <g id="patch_155">
    <path clip-path="url(#p6fa578517e)" d="M 405.195542 310.52 
L 408.1055 310.52 
L 408.1055 305.309714 
L 405.195542 305.309714 
z
" style="fill:#1f77b4;"/>
   </g>
   <g id="patch_156">
    <path clip-path="url(#p6fa578517e)" d="M 408.1055 310.52 
L 411.015458 310.52 
L 411.015458 289.678857 
L 408.1055 289.678857 
z
" style="fill:#1f77b4;"/>
   </g>
   <g id="patch_157">
    <path clip-path="url(#p6fa578517e)" d="M 411.015458 310.52 
L 413.925417 310.52 
L 413.925417 268.837714 
L 411.015458 268.837714 
z
" style="fill:#1f77b4;"/>
   </g>
   <g id="patch_158">
    <path clip-path="url(#p6fa578517e)" d="M 413.925417 310.52 
L 416.835375 310.52 
L 416.835375 268.837714 
L 413.925417 268.837714 
z
" style="fill:#1f77b4;"/>
   </g>
   <g id="patch_159">
    <path clip-path="url(#p6fa578517e)" d="M 416.835375 310.52 
L 419.745333 310.52 
L 419.745333 284.468571 
L 416.835375 284.468571 
z
" style="fill:#1f77b4;"/>
   </g>
   <g id="patch_160">
    <path clip-path="url(#p6fa578517e)" d="M 419.745333 310.52 
L 422.655292 310.52 
L 422.655292 279.258286 
L 419.745333 279.258286 
z
" style="fill:#1f77b4;"/>
   </g>
   <g id="patch_161">
    <path clip-path="url(#p6fa578517e)" d="M 422.655292 310.52 
L 425.56525 310.52 
L 425.56525 289.678857 
L 422.655292 289.678857 
z
" style="fill:#1f77b4;"/>
   </g>
   <g id="patch_162">
    <path clip-path="url(#p6fa578517e)" d="M 425.56525 310.52 
L 428.475208 310.52 
L 428.475208 274.048 
L 425.56525 274.048 
z
" style="fill:#1f77b4;"/>
   </g>
   <g id="patch_163">
    <path clip-path="url(#p6fa578517e)" d="M 428.475208 310.52 
L 431.385167 310.52 
L 431.385167 289.678857 
L 428.475208 289.678857 
z
" style="fill:#1f77b4;"/>
   </g>
   <g id="patch_164">
    <path clip-path="url(#p6fa578517e)" d="M 431.385167 310.52 
L 434.295125 310.52 
L 434.295125 279.258286 
L 431.385167 279.258286 
z
" style="fill:#1f77b4;"/>
   </g>
   <g id="patch_165">
    <path clip-path="url(#p6fa578517e)" d="M 434.295125 310.52 
L 437.205083 310.52 
L 437.205083 284.468571 
L 434.295125 284.468571 
z
" style="fill:#1f77b4;"/>
   </g>
   <g id="patch_166">
    <path clip-path="url(#p6fa578517e)" d="M 437.205083 310.52 
L 440.115042 310.52 
L 440.115042 289.678857 
L 437.205083 289.678857 
z
" style="fill:#1f77b4;"/>
   </g>
   <g id="patch_167">
    <path clip-path="url(#p6fa578517e)" d="M 440.115042 310.52 
L 443.025 310.52 
L 443.025 305.309714 
L 440.115042 305.309714 
z
" style="fill:#1f77b4;"/>
   </g>
   <g id="patch_168">
    <path d="M 326.626667 310.52 
L 326.626667 173.75 
" style="fill:none;stroke:#262626;stroke-linecap:square;stroke-linejoin:miter;stroke-width:1.25;"/>
   </g>
   <g id="patch_169">
    <path d="M 326.626667 310.52 
L 443.025 310.52 
" style="fill:none;stroke:#262626;stroke-linecap:square;stroke-linejoin:miter;stroke-width:1.25;"/>
   </g>
  </g>
  <g id="axes_7">
   <g id="matplotlib.axis_13">
    <g id="xtick_19">
     <g id="line2d_55"/>
     <g id="text_55">
      <!-- 0.0 -->
      <g style="fill:#262626;opacity:0;" transform="translate(35.96 321.177812)scale(0.1 -0.1)">
       <use xlink:href="#ArialMT-30"/>
       <use x="55.615234" xlink:href="#ArialMT-2e"/>
       <use x="83.398438" xlink:href="#ArialMT-30"/>
      </g>
     </g>
    </g>
    <g id="xtick_20">
     <g id="line2d_56"/>
     <g id="text_56">
      <!-- 0.2 -->
      <g style="fill:#262626;opacity:0;" transform="translate(115.983 321.177812)scale(0.1 -0.1)">
       <use xlink:href="#ArialMT-30"/>
       <use x="55.615234" xlink:href="#ArialMT-2e"/>
       <use x="83.398438" xlink:href="#ArialMT-32"/>
      </g>
     </g>
    </g>
    <g id="xtick_21">
     <g id="line2d_57"/>
     <g id="text_57">
      <!-- 0.4 -->
      <defs>
       <path d="M 32.328125 0 
L 32.328125 17.140625 
L 1.265625 17.140625 
L 1.265625 25.203125 
L 33.9375 71.578125 
L 41.109375 71.578125 
L 41.109375 25.203125 
L 50.78125 25.203125 
L 50.78125 17.140625 
L 41.109375 17.140625 
L 41.109375 0 
z
M 32.328125 25.203125 
L 32.328125 57.46875 
L 9.90625 25.203125 
z
" id="ArialMT-34"/>
      </defs>
      <g style="fill:#262626;opacity:0;" transform="translate(196.006 321.177812)scale(0.1 -0.1)">
       <use xlink:href="#ArialMT-30"/>
       <use x="55.615234" xlink:href="#ArialMT-2e"/>
       <use x="83.398438" xlink:href="#ArialMT-34"/>
      </g>
     </g>
    </g>
    <g id="xtick_22">
     <g id="line2d_58"/>
     <g id="text_58">
      <!-- 0.6 -->
      <defs>
       <path d="M 49.75 54.046875 
L 41.015625 53.375 
Q 39.84375 58.546875 37.703125 60.890625 
Q 34.125 64.65625 28.90625 64.65625 
Q 24.703125 64.65625 21.53125 62.3125 
Q 17.390625 59.28125 14.984375 53.46875 
Q 12.59375 47.65625 12.5 36.921875 
Q 15.671875 41.75 20.265625 44.09375 
Q 24.859375 46.4375 29.890625 46.4375 
Q 38.671875 46.4375 44.84375 39.96875 
Q 51.03125 33.5 51.03125 23.25 
Q 51.03125 16.5 48.125 10.71875 
Q 45.21875 4.9375 40.140625 1.859375 
Q 35.0625 -1.21875 28.609375 -1.21875 
Q 17.625 -1.21875 10.6875 6.859375 
Q 3.765625 14.9375 3.765625 33.5 
Q 3.765625 54.25 11.421875 63.671875 
Q 18.109375 71.875 29.4375 71.875 
Q 37.890625 71.875 43.28125 67.140625 
Q 48.6875 62.40625 49.75 54.046875 
z
M 13.875 23.1875 
Q 13.875 18.65625 15.796875 14.5 
Q 17.71875 10.359375 21.1875 8.171875 
Q 24.65625 6 28.46875 6 
Q 34.03125 6 38.03125 10.484375 
Q 42.046875 14.984375 42.046875 22.703125 
Q 42.046875 30.125 38.078125 34.390625 
Q 34.125 38.671875 28.125 38.671875 
Q 22.171875 38.671875 18.015625 34.390625 
Q 13.875 30.125 13.875 23.1875 
z
" id="ArialMT-36"/>
      </defs>
      <g style="fill:#262626;opacity:0;" transform="translate(276.029 321.177812)scale(0.1 -0.1)">
       <use xlink:href="#ArialMT-30"/>
       <use x="55.615234" xlink:href="#ArialMT-2e"/>
       <use x="83.398438" xlink:href="#ArialMT-36"/>
      </g>
     </g>
    </g>
    <g id="xtick_23">
     <g id="line2d_59"/>
     <g id="text_59">
      <!-- 0.8 -->
      <defs>
       <path d="M 17.671875 38.8125 
Q 12.203125 40.828125 9.5625 44.53125 
Q 6.9375 48.25 6.9375 53.421875 
Q 6.9375 61.234375 12.546875 66.546875 
Q 18.171875 71.875 27.484375 71.875 
Q 36.859375 71.875 42.578125 66.421875 
Q 48.296875 60.984375 48.296875 53.171875 
Q 48.296875 48.1875 45.671875 44.5 
Q 43.0625 40.828125 37.75 38.8125 
Q 44.34375 36.671875 47.78125 31.875 
Q 51.21875 27.09375 51.21875 20.453125 
Q 51.21875 11.28125 44.71875 5.03125 
Q 38.234375 -1.21875 27.640625 -1.21875 
Q 17.046875 -1.21875 10.546875 5.046875 
Q 4.046875 11.328125 4.046875 20.703125 
Q 4.046875 27.6875 7.59375 32.390625 
Q 11.140625 37.109375 17.671875 38.8125 
z
M 15.921875 53.71875 
Q 15.921875 48.640625 19.1875 45.40625 
Q 22.46875 42.1875 27.6875 42.1875 
Q 32.765625 42.1875 36.015625 45.375 
Q 39.265625 48.578125 39.265625 53.21875 
Q 39.265625 58.0625 35.90625 61.359375 
Q 32.5625 64.65625 27.59375 64.65625 
Q 22.5625 64.65625 19.234375 61.421875 
Q 15.921875 58.203125 15.921875 53.71875 
z
M 13.09375 20.65625 
Q 13.09375 16.890625 14.875 13.375 
Q 16.65625 9.859375 20.171875 7.921875 
Q 23.6875 6 27.734375 6 
Q 34.03125 6 38.125 10.046875 
Q 42.234375 14.109375 42.234375 20.359375 
Q 42.234375 26.703125 38.015625 30.859375 
Q 33.796875 35.015625 27.4375 35.015625 
Q 21.234375 35.015625 17.15625 30.90625 
Q 13.09375 26.8125 13.09375 20.65625 
z
" id="ArialMT-38"/>
      </defs>
      <g style="fill:#262626;opacity:0;" transform="translate(356.052 321.177812)scale(0.1 -0.1)">
       <use xlink:href="#ArialMT-30"/>
       <use x="55.615234" xlink:href="#ArialMT-2e"/>
       <use x="83.398438" xlink:href="#ArialMT-38"/>
      </g>
     </g>
    </g>
    <g id="xtick_24">
     <g id="line2d_60"/>
     <g id="text_60">
      <!-- 1.0 -->
      <g style="fill:#262626;opacity:0;" transform="translate(436.075 321.177812)scale(0.1 -0.1)">
       <use xlink:href="#ArialMT-31"/>
       <use x="55.615234" xlink:href="#ArialMT-2e"/>
       <use x="83.398438" xlink:href="#ArialMT-30"/>
      </g>
     </g>
    </g>
    <g id="text_61">
     <!-- $x$ -->
     <defs>
      <path d="M 60.015625 54.6875 
L 34.90625 27.875 
L 50.296875 0 
L 39.984375 0 
L 28.421875 21.6875 
L 8.296875 0 
L -2.59375 0 
L 24.3125 28.8125 
L 10.015625 54.6875 
L 20.3125 54.6875 
L 30.8125 34.90625 
L 49.125 54.6875 
z
" id="DejaVuSans-Oblique-78"/>
     </defs>
     <g style="fill:#262626;" transform="translate(239.9675 334.323125)scale(0.1 -0.1)">
      <use transform="translate(0 0.3125)" xlink:href="#DejaVuSans-Oblique-78"/>
     </g>
    </g>
   </g>
   <g id="matplotlib.axis_14">
    <g id="ytick_37">
     <g id="line2d_61"/>
     <g id="text_62">
      <!-- 0.0 -->
      <g style="fill:#262626;opacity:0;" transform="translate(25.51 314.098906)scale(0.1 -0.1)">
       <use xlink:href="#ArialMT-30"/>
       <use x="55.615234" xlink:href="#ArialMT-2e"/>
       <use x="83.398438" xlink:href="#ArialMT-30"/>
      </g>
     </g>
    </g>
    <g id="ytick_38">
     <g id="line2d_62"/>
     <g id="text_63">
      <!-- 0.2 -->
      <g style="fill:#262626;opacity:0;" transform="translate(25.51 254.802906)scale(0.1 -0.1)">
       <use xlink:href="#ArialMT-30"/>
       <use x="55.615234" xlink:href="#ArialMT-2e"/>
       <use x="83.398438" xlink:href="#ArialMT-32"/>
      </g>
     </g>
    </g>
    <g id="ytick_39">
     <g id="line2d_63"/>
     <g id="text_64">
      <!-- 0.4 -->
      <g style="fill:#262626;opacity:0;" transform="translate(25.51 195.506906)scale(0.1 -0.1)">
       <use xlink:href="#ArialMT-30"/>
       <use x="55.615234" xlink:href="#ArialMT-2e"/>
       <use x="83.398438" xlink:href="#ArialMT-34"/>
      </g>
     </g>
    </g>
    <g id="ytick_40">
     <g id="line2d_64"/>
     <g id="text_65">
      <!-- 0.6 -->
      <g style="fill:#262626;opacity:0;" transform="translate(25.51 136.210906)scale(0.1 -0.1)">
       <use xlink:href="#ArialMT-30"/>
       <use x="55.615234" xlink:href="#ArialMT-2e"/>
       <use x="83.398438" xlink:href="#ArialMT-36"/>
      </g>
     </g>
    </g>
    <g id="ytick_41">
     <g id="line2d_65"/>
     <g id="text_66">
      <!-- 0.8 -->
      <g style="fill:#262626;opacity:0;" transform="translate(25.51 76.914906)scale(0.1 -0.1)">
       <use xlink:href="#ArialMT-30"/>
       <use x="55.615234" xlink:href="#ArialMT-2e"/>
       <use x="83.398438" xlink:href="#ArialMT-38"/>
      </g>
     </g>
    </g>
    <g id="ytick_42">
     <g id="line2d_66"/>
     <g id="text_67">
      <!-- 1.0 -->
      <g style="fill:#262626;opacity:0;" transform="translate(25.51 17.618906)scale(0.1 -0.1)">
       <use xlink:href="#ArialMT-31"/>
       <use x="55.615234" xlink:href="#ArialMT-2e"/>
       <use x="83.398438" xlink:href="#ArialMT-30"/>
      </g>
     </g>
    </g>
    <g id="text_68">
     <!-- Count -->
     <defs>
      <path d="M 58.796875 25.09375 
L 68.265625 22.703125 
Q 65.28125 11.03125 57.546875 4.90625 
Q 49.8125 -1.21875 38.625 -1.21875 
Q 27.046875 -1.21875 19.796875 3.484375 
Q 12.546875 8.203125 8.765625 17.140625 
Q 4.984375 26.078125 4.984375 36.328125 
Q 4.984375 47.515625 9.25 55.828125 
Q 13.53125 64.15625 21.40625 68.46875 
Q 29.296875 72.796875 38.765625 72.796875 
Q 49.515625 72.796875 56.828125 67.328125 
Q 64.15625 61.859375 67.046875 51.953125 
L 57.71875 49.75 
Q 55.21875 57.5625 50.484375 61.125 
Q 45.75 64.703125 38.578125 64.703125 
Q 30.328125 64.703125 24.78125 60.734375 
Q 19.234375 56.78125 16.984375 50.109375 
Q 14.75 43.453125 14.75 36.375 
Q 14.75 27.25 17.40625 20.4375 
Q 20.0625 13.625 25.671875 10.25 
Q 31.296875 6.890625 37.84375 6.890625 
Q 45.796875 6.890625 51.3125 11.46875 
Q 56.84375 16.0625 58.796875 25.09375 
z
" id="ArialMT-43"/>
      <path d="M 3.328125 25.921875 
Q 3.328125 40.328125 11.328125 47.265625 
Q 18.015625 53.03125 27.640625 53.03125 
Q 38.328125 53.03125 45.109375 46.015625 
Q 51.90625 39.015625 51.90625 26.65625 
Q 51.90625 16.65625 48.90625 10.90625 
Q 45.90625 5.171875 40.15625 2 
Q 34.421875 -1.171875 27.640625 -1.171875 
Q 16.75 -1.171875 10.03125 5.8125 
Q 3.328125 12.796875 3.328125 25.921875 
z
M 12.359375 25.921875 
Q 12.359375 15.96875 16.703125 11.015625 
Q 21.046875 6.0625 27.640625 6.0625 
Q 34.1875 6.0625 38.53125 11.03125 
Q 42.875 16.015625 42.875 26.21875 
Q 42.875 35.84375 38.5 40.796875 
Q 34.125 45.75 27.640625 45.75 
Q 21.046875 45.75 16.703125 40.8125 
Q 12.359375 35.890625 12.359375 25.921875 
z
" id="ArialMT-6f"/>
      <path d="M 40.578125 0 
L 40.578125 7.625 
Q 34.515625 -1.171875 24.125 -1.171875 
Q 19.53125 -1.171875 15.546875 0.578125 
Q 11.578125 2.34375 9.640625 5 
Q 7.71875 7.671875 6.9375 11.53125 
Q 6.390625 14.109375 6.390625 19.734375 
L 6.390625 51.859375 
L 15.1875 51.859375 
L 15.1875 23.09375 
Q 15.1875 16.21875 15.71875 13.8125 
Q 16.546875 10.359375 19.234375 8.375 
Q 21.921875 6.390625 25.875 6.390625 
Q 29.828125 6.390625 33.296875 8.421875 
Q 36.765625 10.453125 38.203125 13.9375 
Q 39.65625 17.4375 39.65625 24.078125 
L 39.65625 51.859375 
L 48.4375 51.859375 
L 48.4375 0 
z
" id="ArialMT-75"/>
      <path d="M 6.59375 0 
L 6.59375 51.859375 
L 14.5 51.859375 
L 14.5 44.484375 
Q 20.21875 53.03125 31 53.03125 
Q 35.6875 53.03125 39.625 51.34375 
Q 43.5625 49.65625 45.515625 46.921875 
Q 47.46875 44.1875 48.25 40.4375 
Q 48.734375 37.984375 48.734375 31.890625 
L 48.734375 0 
L 39.9375 0 
L 39.9375 31.546875 
Q 39.9375 36.921875 38.90625 39.578125 
Q 37.890625 42.234375 35.28125 43.8125 
Q 32.671875 45.40625 29.15625 45.40625 
Q 23.53125 45.40625 19.453125 41.84375 
Q 15.375 38.28125 15.375 28.328125 
L 15.375 0 
z
" id="ArialMT-6e"/>
      <path d="M 25.78125 7.859375 
L 27.046875 0.09375 
Q 23.34375 -0.6875 20.40625 -0.6875 
Q 15.625 -0.6875 12.984375 0.828125 
Q 10.359375 2.34375 9.28125 4.8125 
Q 8.203125 7.28125 8.203125 15.1875 
L 8.203125 45.015625 
L 1.765625 45.015625 
L 1.765625 51.859375 
L 8.203125 51.859375 
L 8.203125 64.703125 
L 16.9375 69.96875 
L 16.9375 51.859375 
L 25.78125 51.859375 
L 25.78125 45.015625 
L 16.9375 45.015625 
L 16.9375 14.703125 
Q 16.9375 10.9375 17.40625 9.859375 
Q 17.875 8.796875 18.921875 8.15625 
Q 19.96875 7.515625 21.921875 7.515625 
Q 23.390625 7.515625 25.78125 7.859375 
z
" id="ArialMT-74"/>
     </defs>
     <g style="fill:#262626;" transform="translate(19.5225 175.621406)rotate(-90)scale(0.1 -0.1)">
      <use xlink:href="#ArialMT-43"/>
      <use x="72.216797" xlink:href="#ArialMT-6f"/>
      <use x="127.832031" xlink:href="#ArialMT-75"/>
      <use x="183.447266" xlink:href="#ArialMT-6e"/>
      <use x="239.0625" xlink:href="#ArialMT-74"/>
     </g>
    </g>
   </g>
  </g>
 </g>
 <defs>
  <clipPath id="p2c88e8cd62">
   <rect height="136.77" width="116.398333" x="42.91" y="14.04"/>
  </clipPath>
  <clipPath id="pb41d50d58c">
   <rect height="136.77" width="116.398333" x="184.768333" y="14.04"/>
  </clipPath>
  <clipPath id="pbb72147f72">
   <rect height="136.77" width="116.398333" x="326.626667" y="14.04"/>
  </clipPath>
  <clipPath id="p37c9e53cad">
   <rect height="136.77" width="116.398333" x="42.91" y="173.75"/>
  </clipPath>
  <clipPath id="pbc51d79d33">
   <rect height="136.77" width="116.398333" x="184.768333" y="173.75"/>
  </clipPath>
  <clipPath id="p6fa578517e">
   <rect height="136.77" width="116.398333" x="326.626667" y="173.75"/>
  </clipPath>
 </defs>
</svg>
