<?xml version="1.0" encoding="utf-8" standalone="no"?>
<!DOCTYPE svg PUBLIC "-//W3C//DTD SVG 1.1//EN"
  "http://www.w3.org/Graphics/SVG/1.1/DTD/svg11.dtd">
<!-- Created with matplotlib (http://matplotlib.org/) -->
<svg height="345pt" version="1.1" viewBox="0 0 460 345" width="460pt" xmlns="http://www.w3.org/2000/svg" xmlns:xlink="http://www.w3.org/1999/xlink">
 <defs>
  <style type="text/css">
*{stroke-linecap:butt;stroke-linejoin:round;}
  </style>
 </defs>
 <g id="figure_1">
  <g id="patch_1">
   <path d="M 0 345.6 
L 460.8 345.6 
L 460.8 0 
L 0 0 
z
" style="fill:#ffffff;"/>
  </g>
  <g id="axes_1">
   <g id="patch_2">
    <path d="M 42.91 150.81 
L 159.308333 150.81 
L 159.308333 14.04 
L 42.91 14.04 
z
" style="fill:#ffffff;"/>
   </g>
   <g id="matplotlib.axis_1">
    <g id="xtick_1">
     <g id="line2d_1"/>
     <g id="text_1">
      <!-- 2.5 -->
      <defs>
       <path d="M 50.34375 8.453125 
L 50.34375 0 
L 3.03125 0 
Q 2.9375 3.171875 4.046875 6.109375 
Q 5.859375 10.9375 9.828125 15.625 
Q 13.8125 20.3125 21.34375 26.46875 
Q 33.015625 36.03125 37.109375 41.625 
Q 41.21875 47.21875 41.21875 52.203125 
Q 41.21875 57.421875 37.46875 61 
Q 33.734375 64.59375 27.734375 64.59375 
Q 21.390625 64.59375 17.578125 60.78125 
Q 13.765625 56.984375 13.71875 50.25 
L 4.6875 51.171875 
Q 5.609375 61.28125 11.65625 66.578125 
Q 17.71875 71.875 27.9375 71.875 
Q 38.234375 71.875 44.234375 66.15625 
Q 50.25 60.453125 50.25 52 
Q 50.25 47.703125 48.484375 43.546875 
Q 46.734375 39.40625 42.65625 34.8125 
Q 38.578125 30.21875 29.109375 22.21875 
Q 21.1875 15.578125 18.9375 13.203125 
Q 16.703125 10.84375 15.234375 8.453125 
z
" id="ArialMT-32"/>
       <path d="M 9.078125 0 
L 9.078125 10.015625 
L 19.09375 10.015625 
L 19.09375 0 
z
" id="ArialMT-2e"/>
       <path d="M 4.15625 18.75 
L 13.375 19.53125 
Q 14.40625 12.796875 18.140625 9.390625 
Q 21.875 6 27.15625 6 
Q 33.5 6 37.890625 10.78125 
Q 42.28125 15.578125 42.28125 23.484375 
Q 42.28125 31 38.0625 35.34375 
Q 33.84375 39.703125 27 39.703125 
Q 22.75 39.703125 19.328125 37.765625 
Q 15.921875 35.84375 13.96875 32.765625 
L 5.71875 33.84375 
L 12.640625 70.609375 
L 48.25 70.609375 
L 48.25 62.203125 
L 19.671875 62.203125 
L 15.828125 42.96875 
Q 22.265625 47.46875 29.34375 47.46875 
Q 38.71875 47.46875 45.15625 40.96875 
Q 51.609375 34.46875 51.609375 24.265625 
Q 51.609375 14.546875 45.953125 7.46875 
Q 39.0625 -1.21875 27.15625 -1.21875 
Q 17.390625 -1.21875 11.203125 4.25 
Q 5.03125 9.71875 4.15625 18.75 
z
" id="ArialMT-35"/>
      </defs>
      <g style="fill:#262626;" transform="translate(48.10481 161.467812)scale(0.1 -0.1)">
       <use xlink:href="#ArialMT-32"/>
       <use x="55.615234" xlink:href="#ArialMT-2e"/>
       <use x="83.398438" xlink:href="#ArialMT-35"/>
      </g>
     </g>
    </g>
    <g id="xtick_2">
     <g id="line2d_2"/>
     <g id="text_2">
      <!-- 5.0 -->
      <defs>
       <path d="M 4.15625 35.296875 
Q 4.15625 48 6.765625 55.734375 
Q 9.375 63.484375 14.515625 67.671875 
Q 19.671875 71.875 27.484375 71.875 
Q 33.25 71.875 37.59375 69.546875 
Q 41.9375 67.234375 44.765625 62.859375 
Q 47.609375 58.5 49.21875 52.21875 
Q 50.828125 45.953125 50.828125 35.296875 
Q 50.828125 22.703125 48.234375 14.96875 
Q 45.65625 7.234375 40.5 3 
Q 35.359375 -1.21875 27.484375 -1.21875 
Q 17.140625 -1.21875 11.234375 6.203125 
Q 4.15625 15.140625 4.15625 35.296875 
z
M 13.1875 35.296875 
Q 13.1875 17.671875 17.3125 11.828125 
Q 21.4375 6 27.484375 6 
Q 33.546875 6 37.671875 11.859375 
Q 41.796875 17.71875 41.796875 35.296875 
Q 41.796875 52.984375 37.671875 58.78125 
Q 33.546875 64.59375 27.390625 64.59375 
Q 21.34375 64.59375 17.71875 59.46875 
Q 13.1875 52.9375 13.1875 35.296875 
z
" id="ArialMT-30"/>
      </defs>
      <g style="fill:#262626;" transform="translate(84.273716 161.467812)scale(0.1 -0.1)">
       <use xlink:href="#ArialMT-35"/>
       <use x="55.615234" xlink:href="#ArialMT-2e"/>
       <use x="83.398438" xlink:href="#ArialMT-30"/>
      </g>
     </g>
    </g>
    <g id="xtick_3">
     <g id="line2d_3"/>
     <g id="text_3">
      <!-- 7.5 -->
      <defs>
       <path d="M 4.734375 62.203125 
L 4.734375 70.65625 
L 51.078125 70.65625 
L 51.078125 63.8125 
Q 44.234375 56.546875 37.515625 44.484375 
Q 30.8125 32.421875 27.15625 19.671875 
Q 24.515625 10.6875 23.78125 0 
L 14.75 0 
Q 14.890625 8.453125 18.0625 20.40625 
Q 21.234375 32.375 27.171875 43.484375 
Q 33.109375 54.59375 39.796875 62.203125 
z
" id="ArialMT-37"/>
      </defs>
      <g style="fill:#262626;" transform="translate(120.442621 161.467812)scale(0.1 -0.1)">
       <use xlink:href="#ArialMT-37"/>
       <use x="55.615234" xlink:href="#ArialMT-2e"/>
       <use x="83.398438" xlink:href="#ArialMT-35"/>
      </g>
     </g>
    </g>
   </g>
   <g id="matplotlib.axis_2">
    <g id="ytick_1">
     <g id="line2d_4"/>
     <g id="text_4">
      <!-- 0 -->
      <g style="fill:#262626;" transform="translate(33.849063 154.388906)scale(0.1 -0.1)">
       <use xlink:href="#ArialMT-30"/>
      </g>
     </g>
    </g>
    <g id="ytick_2">
     <g id="line2d_5"/>
     <g id="text_5">
      <!-- 5 -->
      <g style="fill:#262626;" transform="translate(33.849063 113.683549)scale(0.1 -0.1)">
       <use xlink:href="#ArialMT-35"/>
      </g>
     </g>
    </g>
    <g id="ytick_3">
     <g id="line2d_6"/>
     <g id="text_6">
      <!-- 10 -->
      <defs>
       <path d="M 37.25 0 
L 28.46875 0 
L 28.46875 56 
Q 25.296875 52.984375 20.140625 49.953125 
Q 14.984375 46.921875 10.890625 45.40625 
L 10.890625 53.90625 
Q 18.265625 57.375 23.78125 62.296875 
Q 29.296875 67.234375 31.59375 71.875 
L 37.25 71.875 
z
" id="ArialMT-31"/>
      </defs>
      <g style="fill:#262626;" transform="translate(28.288125 72.978192)scale(0.1 -0.1)">
       <use xlink:href="#ArialMT-31"/>
       <use x="55.615234" xlink:href="#ArialMT-30"/>
      </g>
     </g>
    </g>
    <g id="ytick_4">
     <g id="line2d_7"/>
     <g id="text_7">
      <!-- 15 -->
      <g style="fill:#262626;" transform="translate(28.288125 32.272835)scale(0.1 -0.1)">
       <use xlink:href="#ArialMT-31"/>
       <use x="55.615234" xlink:href="#ArialMT-35"/>
      </g>
     </g>
    </g>
   </g>
   <g id="patch_3">
    <path clip-path="url(#pdd81e69097)" d="M 35.635104 150.81 
L 41.455021 150.81 
L 41.455021 126.386786 
L 35.635104 126.386786 
z
" style="fill:#1f77b4;"/>
   </g>
   <g id="patch_4">
    <path clip-path="url(#pdd81e69097)" d="M 41.455021 150.81 
L 47.274938 150.81 
L 47.274938 126.386786 
L 41.455021 126.386786 
z
" style="fill:#1f77b4;"/>
   </g>
   <g id="patch_5">
    <path clip-path="url(#pdd81e69097)" d="M 47.274938 150.81 
L 53.094854 150.81 
L 53.094854 134.527857 
L 47.274938 134.527857 
z
" style="fill:#1f77b4;"/>
   </g>
   <g id="patch_6">
    <path clip-path="url(#pdd81e69097)" d="M 53.094854 150.81 
L 58.914771 150.81 
L 58.914771 142.668929 
L 53.094854 142.668929 
z
" style="fill:#1f77b4;"/>
   </g>
   <g id="patch_7">
    <path clip-path="url(#pdd81e69097)" d="M 58.914771 150.81 
L 64.734687 150.81 
L 64.734687 150.81 
L 58.914771 150.81 
z
" style="fill:#1f77b4;"/>
   </g>
   <g id="patch_8">
    <path clip-path="url(#pdd81e69097)" d="M 64.734687 150.81 
L 70.554604 150.81 
L 70.554604 142.668929 
L 64.734687 142.668929 
z
" style="fill:#1f77b4;"/>
   </g>
   <g id="patch_9">
    <path clip-path="url(#pdd81e69097)" d="M 70.554604 150.81 
L 76.374521 150.81 
L 76.374521 150.81 
L 70.554604 150.81 
z
" style="fill:#1f77b4;"/>
   </g>
   <g id="patch_10">
    <path clip-path="url(#pdd81e69097)" d="M 76.374521 150.81 
L 82.194437 150.81 
L 82.194437 101.963571 
L 76.374521 101.963571 
z
" style="fill:#1f77b4;"/>
   </g>
   <g id="patch_11">
    <path clip-path="url(#pdd81e69097)" d="M 82.194437 150.81 
L 88.014354 150.81 
L 88.014354 101.963571 
L 82.194437 101.963571 
z
" style="fill:#1f77b4;"/>
   </g>
   <g id="patch_12">
    <path clip-path="url(#pdd81e69097)" d="M 88.014354 150.81 
L 93.834271 150.81 
L 93.834271 85.681429 
L 88.014354 85.681429 
z
" style="fill:#1f77b4;"/>
   </g>
   <g id="patch_13">
    <path clip-path="url(#pdd81e69097)" d="M 93.834271 150.81 
L 99.654187 150.81 
L 99.654187 93.8225 
L 93.834271 93.8225 
z
" style="fill:#1f77b4;"/>
   </g>
   <g id="patch_14">
    <path clip-path="url(#pdd81e69097)" d="M 99.654187 150.81 
L 105.474104 150.81 
L 105.474104 150.81 
L 99.654187 150.81 
z
" style="fill:#1f77b4;"/>
   </g>
   <g id="patch_15">
    <path clip-path="url(#pdd81e69097)" d="M 105.474104 150.81 
L 111.294021 150.81 
L 111.294021 150.81 
L 105.474104 150.81 
z
" style="fill:#1f77b4;"/>
   </g>
   <g id="patch_16">
    <path clip-path="url(#pdd81e69097)" d="M 111.294021 150.81 
L 117.113937 150.81 
L 117.113937 142.668929 
L 111.294021 142.668929 
z
" style="fill:#1f77b4;"/>
   </g>
   <g id="patch_17">
    <path clip-path="url(#pdd81e69097)" d="M 117.113937 150.81 
L 122.933854 150.81 
L 122.933854 53.117143 
L 117.113937 53.117143 
z
" style="fill:#1f77b4;"/>
   </g>
   <g id="patch_18">
    <path clip-path="url(#pdd81e69097)" d="M 122.933854 150.81 
L 128.753771 150.81 
L 128.753771 44.976071 
L 122.933854 44.976071 
z
" style="fill:#1f77b4;"/>
   </g>
   <g id="patch_19">
    <path clip-path="url(#pdd81e69097)" d="M 128.753771 150.81 
L 134.573687 150.81 
L 134.573687 69.399286 
L 128.753771 69.399286 
z
" style="fill:#1f77b4;"/>
   </g>
   <g id="patch_20">
    <path clip-path="url(#pdd81e69097)" d="M 134.573688 150.81 
L 140.393604 150.81 
L 140.393604 61.258214 
L 134.573688 61.258214 
z
" style="fill:#1f77b4;"/>
   </g>
   <g id="patch_21">
    <path clip-path="url(#pdd81e69097)" d="M 140.393604 150.81 
L 146.213521 150.81 
L 146.213521 61.258214 
L 140.393604 61.258214 
z
" style="fill:#1f77b4;"/>
   </g>
   <g id="patch_22">
    <path clip-path="url(#pdd81e69097)" d="M 146.213521 150.81 
L 152.033437 150.81 
L 152.033437 110.104643 
L 146.213521 110.104643 
z
" style="fill:#1f77b4;"/>
   </g>
   <g id="patch_23">
    <path d="M 42.91 150.81 
L 42.91 14.04 
" style="fill:none;stroke:#262626;stroke-linecap:square;stroke-linejoin:miter;stroke-width:1.25;"/>
   </g>
   <g id="patch_24">
    <path d="M 42.91 150.81 
L 159.308333 150.81 
" style="fill:none;stroke:#262626;stroke-linecap:square;stroke-linejoin:miter;stroke-width:1.25;"/>
   </g>
  </g>
  <g id="axes_2">
   <g id="patch_25">
    <path d="M 184.768333 150.81 
L 301.166667 150.81 
L 301.166667 14.04 
L 184.768333 14.04 
z
" style="fill:#ffffff;"/>
   </g>
   <g id="matplotlib.axis_3">
    <g id="xtick_4">
     <g id="line2d_8"/>
     <g id="text_8">
      <!-- 2.5 -->
      <g style="fill:#262626;" transform="translate(189.963143 161.467812)scale(0.1 -0.1)">
       <use xlink:href="#ArialMT-32"/>
       <use x="55.615234" xlink:href="#ArialMT-2e"/>
       <use x="83.398438" xlink:href="#ArialMT-35"/>
      </g>
     </g>
    </g>
    <g id="xtick_5">
     <g id="line2d_9"/>
     <g id="text_9">
      <!-- 5.0 -->
      <g style="fill:#262626;" transform="translate(226.132049 161.467812)scale(0.1 -0.1)">
       <use xlink:href="#ArialMT-35"/>
       <use x="55.615234" xlink:href="#ArialMT-2e"/>
       <use x="83.398438" xlink:href="#ArialMT-30"/>
      </g>
     </g>
    </g>
    <g id="xtick_6">
     <g id="line2d_10"/>
     <g id="text_10">
      <!-- 7.5 -->
      <g style="fill:#262626;" transform="translate(262.300955 161.467812)scale(0.1 -0.1)">
       <use xlink:href="#ArialMT-37"/>
       <use x="55.615234" xlink:href="#ArialMT-2e"/>
       <use x="83.398438" xlink:href="#ArialMT-35"/>
      </g>
     </g>
    </g>
   </g>
   <g id="matplotlib.axis_4">
    <g id="ytick_5">
     <g id="line2d_11"/>
     <g id="text_11">
      <!-- 0 -->
      <g style="fill:#262626;" transform="translate(175.707396 154.388906)scale(0.1 -0.1)">
       <use xlink:href="#ArialMT-30"/>
      </g>
     </g>
    </g>
    <g id="ytick_6">
     <g id="line2d_12"/>
     <g id="text_12">
      <!-- 5 -->
      <g style="fill:#262626;" transform="translate(175.707396 113.683549)scale(0.1 -0.1)">
       <use xlink:href="#ArialMT-35"/>
      </g>
     </g>
    </g>
    <g id="ytick_7">
     <g id="line2d_13"/>
     <g id="text_13">
      <!-- 10 -->
      <g style="fill:#262626;" transform="translate(170.146458 72.978192)scale(0.1 -0.1)">
       <use xlink:href="#ArialMT-31"/>
       <use x="55.615234" xlink:href="#ArialMT-30"/>
      </g>
     </g>
    </g>
    <g id="ytick_8">
     <g id="line2d_14"/>
     <g id="text_14">
      <!-- 15 -->
      <g style="fill:#262626;" transform="translate(170.146458 32.272835)scale(0.1 -0.1)">
       <use xlink:href="#ArialMT-31"/>
       <use x="55.615234" xlink:href="#ArialMT-35"/>
      </g>
     </g>
    </g>
   </g>
   <g id="patch_26">
    <path clip-path="url(#p8d1ed02574)" d="M 178.948417 150.81 
L 184.768333 150.81 
L 184.768333 134.527857 
L 178.948417 134.527857 
z
" style="fill:#1f77b4;"/>
   </g>
   <g id="patch_27">
    <path clip-path="url(#p8d1ed02574)" d="M 184.768333 150.81 
L 190.58825 150.81 
L 190.58825 118.245714 
L 184.768333 118.245714 
z
" style="fill:#1f77b4;"/>
   </g>
   <g id="patch_28">
    <path clip-path="url(#p8d1ed02574)" d="M 190.58825 150.81 
L 196.408167 150.81 
L 196.408167 142.668929 
L 190.58825 142.668929 
z
" style="fill:#1f77b4;"/>
   </g>
   <g id="patch_29">
    <path clip-path="url(#p8d1ed02574)" d="M 196.408167 150.81 
L 202.228083 150.81 
L 202.228083 142.668929 
L 196.408167 142.668929 
z
" style="fill:#1f77b4;"/>
   </g>
   <g id="patch_30">
    <path clip-path="url(#p8d1ed02574)" d="M 202.228083 150.81 
L 208.048 150.81 
L 208.048 150.81 
L 202.228083 150.81 
z
" style="fill:#1f77b4;"/>
   </g>
   <g id="patch_31">
    <path clip-path="url(#p8d1ed02574)" d="M 208.048 150.81 
L 213.867917 150.81 
L 213.867917 142.668929 
L 208.048 142.668929 
z
" style="fill:#1f77b4;"/>
   </g>
   <g id="patch_32">
    <path clip-path="url(#p8d1ed02574)" d="M 213.867917 150.81 
L 219.687833 150.81 
L 219.687833 142.668929 
L 213.867917 142.668929 
z
" style="fill:#1f77b4;"/>
   </g>
   <g id="patch_33">
    <path clip-path="url(#p8d1ed02574)" d="M 219.687833 150.81 
L 225.50775 150.81 
L 225.50775 101.963571 
L 219.687833 101.963571 
z
" style="fill:#1f77b4;"/>
   </g>
   <g id="patch_34">
    <path clip-path="url(#p8d1ed02574)" d="M 225.50775 150.81 
L 231.327667 150.81 
L 231.327667 93.8225 
L 225.50775 93.8225 
z
" style="fill:#1f77b4;"/>
   </g>
   <g id="patch_35">
    <path clip-path="url(#p8d1ed02574)" d="M 231.327667 150.81 
L 237.147583 150.81 
L 237.147583 85.681429 
L 231.327667 85.681429 
z
" style="fill:#1f77b4;"/>
   </g>
   <g id="patch_36">
    <path clip-path="url(#p8d1ed02574)" d="M 237.147583 150.81 
L 242.9675 150.81 
L 242.9675 110.104643 
L 237.147583 110.104643 
z
" style="fill:#1f77b4;"/>
   </g>
   <g id="patch_37">
    <path clip-path="url(#p8d1ed02574)" d="M 242.9675 150.81 
L 248.787417 150.81 
L 248.787417 150.81 
L 242.9675 150.81 
z
" style="fill:#1f77b4;"/>
   </g>
   <g id="patch_38">
    <path clip-path="url(#p8d1ed02574)" d="M 248.787417 150.81 
L 254.607333 150.81 
L 254.607333 150.81 
L 248.787417 150.81 
z
" style="fill:#1f77b4;"/>
   </g>
   <g id="patch_39">
    <path clip-path="url(#p8d1ed02574)" d="M 254.607333 150.81 
L 260.42725 150.81 
L 260.42725 118.245714 
L 254.607333 118.245714 
z
" style="fill:#1f77b4;"/>
   </g>
   <g id="patch_40">
    <path clip-path="url(#p8d1ed02574)" d="M 260.42725 150.81 
L 266.247167 150.81 
L 266.247167 36.835 
L 260.42725 36.835 
z
" style="fill:#1f77b4;"/>
   </g>
   <g id="patch_41">
    <path clip-path="url(#p8d1ed02574)" d="M 266.247167 150.81 
L 272.067083 150.81 
L 272.067083 85.681429 
L 266.247167 85.681429 
z
" style="fill:#1f77b4;"/>
   </g>
   <g id="patch_42">
    <path clip-path="url(#p8d1ed02574)" d="M 272.067083 150.81 
L 277.887 150.81 
L 277.887 44.976071 
L 272.067083 44.976071 
z
" style="fill:#1f77b4;"/>
   </g>
   <g id="patch_43">
    <path clip-path="url(#p8d1ed02574)" d="M 277.887 150.81 
L 283.706917 150.81 
L 283.706917 53.117143 
L 277.887 53.117143 
z
" style="fill:#1f77b4;"/>
   </g>
   <g id="patch_44">
    <path clip-path="url(#p8d1ed02574)" d="M 283.706917 150.81 
L 289.526833 150.81 
L 289.526833 77.540357 
L 283.706917 77.540357 
z
" style="fill:#1f77b4;"/>
   </g>
   <g id="patch_45">
    <path clip-path="url(#p8d1ed02574)" d="M 289.526833 150.81 
L 295.34675 150.81 
L 295.34675 126.386786 
L 289.526833 126.386786 
z
" style="fill:#1f77b4;"/>
   </g>
   <g id="patch_46">
    <path d="M 184.768333 150.81 
L 184.768333 14.04 
" style="fill:none;stroke:#262626;stroke-linecap:square;stroke-linejoin:miter;stroke-width:1.25;"/>
   </g>
   <g id="patch_47">
    <path d="M 184.768333 150.81 
L 301.166667 150.81 
" style="fill:none;stroke:#262626;stroke-linecap:square;stroke-linejoin:miter;stroke-width:1.25;"/>
   </g>
  </g>
  <g id="axes_3">
   <g id="patch_48">
    <path d="M 326.626667 150.81 
L 443.025 150.81 
L 443.025 14.04 
L 326.626667 14.04 
z
" style="fill:#ffffff;"/>
   </g>
   <g id="matplotlib.axis_5">
    <g id="xtick_7">
     <g id="line2d_15"/>
     <g id="text_15">
      <!-- 2.5 -->
      <g style="fill:#262626;" transform="translate(331.821477 161.467812)scale(0.1 -0.1)">
       <use xlink:href="#ArialMT-32"/>
       <use x="55.615234" xlink:href="#ArialMT-2e"/>
       <use x="83.398438" xlink:href="#ArialMT-35"/>
      </g>
     </g>
    </g>
    <g id="xtick_8">
     <g id="line2d_16"/>
     <g id="text_16">
      <!-- 5.0 -->
      <g style="fill:#262626;" transform="translate(367.990382 161.467812)scale(0.1 -0.1)">
       <use xlink:href="#ArialMT-35"/>
       <use x="55.615234" xlink:href="#ArialMT-2e"/>
       <use x="83.398438" xlink:href="#ArialMT-30"/>
      </g>
     </g>
    </g>
    <g id="xtick_9">
     <g id="line2d_17"/>
     <g id="text_17">
      <!-- 7.5 -->
      <g style="fill:#262626;" transform="translate(404.159288 161.467812)scale(0.1 -0.1)">
       <use xlink:href="#ArialMT-37"/>
       <use x="55.615234" xlink:href="#ArialMT-2e"/>
       <use x="83.398438" xlink:href="#ArialMT-35"/>
      </g>
     </g>
    </g>
   </g>
   <g id="matplotlib.axis_6">
    <g id="ytick_9">
     <g id="line2d_18"/>
     <g id="text_18">
      <!-- 0 -->
      <g style="fill:#262626;" transform="translate(317.565729 154.388906)scale(0.1 -0.1)">
       <use xlink:href="#ArialMT-30"/>
      </g>
     </g>
    </g>
    <g id="ytick_10">
     <g id="line2d_19"/>
     <g id="text_19">
      <!-- 5 -->
      <g style="fill:#262626;" transform="translate(317.565729 113.683549)scale(0.1 -0.1)">
       <use xlink:href="#ArialMT-35"/>
      </g>
     </g>
    </g>
    <g id="ytick_11">
     <g id="line2d_20"/>
     <g id="text_20">
      <!-- 10 -->
      <g style="fill:#262626;" transform="translate(312.004792 72.978192)scale(0.1 -0.1)">
       <use xlink:href="#ArialMT-31"/>
       <use x="55.615234" xlink:href="#ArialMT-30"/>
      </g>
     </g>
    </g>
    <g id="ytick_12">
     <g id="line2d_21"/>
     <g id="text_21">
      <!-- 15 -->
      <g style="fill:#262626;" transform="translate(312.004792 32.272835)scale(0.1 -0.1)">
       <use xlink:href="#ArialMT-31"/>
       <use x="55.615234" xlink:href="#ArialMT-35"/>
      </g>
     </g>
    </g>
   </g>
   <g id="patch_49">
    <path clip-path="url(#pa34b1d12d2)" d="M 322.261729 150.81 
L 328.081646 150.81 
L 328.081646 142.668929 
L 322.261729 142.668929 
z
" style="fill:#1f77b4;"/>
   </g>
   <g id="patch_50">
    <path clip-path="url(#pa34b1d12d2)" d="M 328.081646 150.81 
L 333.901562 150.81 
L 333.901562 118.245714 
L 328.081646 118.245714 
z
" style="fill:#1f77b4;"/>
   </g>
   <g id="patch_51">
    <path clip-path="url(#pa34b1d12d2)" d="M 333.901562 150.81 
L 339.721479 150.81 
L 339.721479 142.668929 
L 333.901562 142.668929 
z
" style="fill:#1f77b4;"/>
   </g>
   <g id="patch_52">
    <path clip-path="url(#pa34b1d12d2)" d="M 339.721479 150.81 
L 345.541396 150.81 
L 345.541396 150.81 
L 339.721479 150.81 
z
" style="fill:#1f77b4;"/>
   </g>
   <g id="patch_53">
    <path clip-path="url(#pa34b1d12d2)" d="M 345.541396 150.81 
L 351.361312 150.81 
L 351.361312 150.81 
L 345.541396 150.81 
z
" style="fill:#1f77b4;"/>
   </g>
   <g id="patch_54">
    <path clip-path="url(#pa34b1d12d2)" d="M 351.361312 150.81 
L 357.181229 150.81 
L 357.181229 142.668929 
L 351.361312 142.668929 
z
" style="fill:#1f77b4;"/>
   </g>
   <g id="patch_55">
    <path clip-path="url(#pa34b1d12d2)" d="M 357.181229 150.81 
L 363.001146 150.81 
L 363.001146 126.386786 
L 357.181229 126.386786 
z
" style="fill:#1f77b4;"/>
   </g>
   <g id="patch_56">
    <path clip-path="url(#pa34b1d12d2)" d="M 363.001146 150.81 
L 368.821062 150.81 
L 368.821062 110.104643 
L 363.001146 110.104643 
z
" style="fill:#1f77b4;"/>
   </g>
   <g id="patch_57">
    <path clip-path="url(#pa34b1d12d2)" d="M 368.821062 150.81 
L 374.640979 150.81 
L 374.640979 85.681429 
L 368.821062 85.681429 
z
" style="fill:#1f77b4;"/>
   </g>
   <g id="patch_58">
    <path clip-path="url(#pa34b1d12d2)" d="M 374.640979 150.81 
L 380.460896 150.81 
L 380.460896 93.8225 
L 374.640979 93.8225 
z
" style="fill:#1f77b4;"/>
   </g>
   <g id="patch_59">
    <path clip-path="url(#pa34b1d12d2)" d="M 380.460896 150.81 
L 386.280812 150.81 
L 386.280812 118.245714 
L 380.460896 118.245714 
z
" style="fill:#1f77b4;"/>
   </g>
   <g id="patch_60">
    <path clip-path="url(#pa34b1d12d2)" d="M 386.280812 150.81 
L 392.100729 150.81 
L 392.100729 150.81 
L 386.280812 150.81 
z
" style="fill:#1f77b4;"/>
   </g>
   <g id="patch_61">
    <path clip-path="url(#pa34b1d12d2)" d="M 392.100729 150.81 
L 397.920646 150.81 
L 397.920646 150.81 
L 392.100729 150.81 
z
" style="fill:#1f77b4;"/>
   </g>
   <g id="patch_62">
    <path clip-path="url(#pa34b1d12d2)" d="M 397.920646 150.81 
L 403.740562 150.81 
L 403.740562 110.104643 
L 397.920646 110.104643 
z
" style="fill:#1f77b4;"/>
   </g>
   <g id="patch_63">
    <path clip-path="url(#pa34b1d12d2)" d="M 403.740562 150.81 
L 409.560479 150.81 
L 409.560479 20.552857 
L 403.740562 20.552857 
z
" style="fill:#1f77b4;"/>
   </g>
   <g id="patch_64">
    <path clip-path="url(#pa34b1d12d2)" d="M 409.560479 150.81 
L 415.380396 150.81 
L 415.380396 61.258214 
L 409.560479 61.258214 
z
" style="fill:#1f77b4;"/>
   </g>
   <g id="patch_65">
    <path clip-path="url(#pa34b1d12d2)" d="M 415.380396 150.81 
L 421.200312 150.81 
L 421.200312 61.258214 
L 415.380396 61.258214 
z
" style="fill:#1f77b4;"/>
   </g>
   <g id="patch_66">
    <path clip-path="url(#pa34b1d12d2)" d="M 421.200312 150.81 
L 427.020229 150.81 
L 427.020229 69.399286 
L 421.200312 69.399286 
z
" style="fill:#1f77b4;"/>
   </g>
   <g id="patch_67">
    <path clip-path="url(#pa34b1d12d2)" d="M 427.020229 150.81 
L 432.840146 150.81 
L 432.840146 77.540357 
L 427.020229 77.540357 
z
" style="fill:#1f77b4;"/>
   </g>
   <g id="patch_68">
    <path clip-path="url(#pa34b1d12d2)" d="M 432.840146 150.81 
L 438.660062 150.81 
L 438.660062 142.668929 
L 432.840146 142.668929 
z
" style="fill:#1f77b4;"/>
   </g>
   <g id="patch_69">
    <path d="M 326.626667 150.81 
L 326.626667 14.04 
" style="fill:none;stroke:#262626;stroke-linecap:square;stroke-linejoin:miter;stroke-width:1.25;"/>
   </g>
   <g id="patch_70">
    <path d="M 326.626667 150.81 
L 443.025 150.81 
" style="fill:none;stroke:#262626;stroke-linecap:square;stroke-linejoin:miter;stroke-width:1.25;"/>
   </g>
  </g>
  <g id="axes_4">
   <g id="patch_71">
    <path d="M 42.91 310.52 
L 159.308333 310.52 
L 159.308333 173.75 
L 42.91 173.75 
z
" style="fill:#ffffff;"/>
   </g>
   <g id="matplotlib.axis_7">
    <g id="xtick_10">
     <g id="line2d_22"/>
     <g id="text_22">
      <!-- 2.5 -->
      <g style="fill:#262626;" transform="translate(48.10481 321.177812)scale(0.1 -0.1)">
       <use xlink:href="#ArialMT-32"/>
       <use x="55.615234" xlink:href="#ArialMT-2e"/>
       <use x="83.398438" xlink:href="#ArialMT-35"/>
      </g>
     </g>
    </g>
    <g id="xtick_11">
     <g id="line2d_23"/>
     <g id="text_23">
      <!-- 5.0 -->
      <g style="fill:#262626;" transform="translate(84.273716 321.177812)scale(0.1 -0.1)">
       <use xlink:href="#ArialMT-35"/>
       <use x="55.615234" xlink:href="#ArialMT-2e"/>
       <use x="83.398438" xlink:href="#ArialMT-30"/>
      </g>
     </g>
    </g>
    <g id="xtick_12">
     <g id="line2d_24"/>
     <g id="text_24">
      <!-- 7.5 -->
      <g style="fill:#262626;" transform="translate(120.442621 321.177812)scale(0.1 -0.1)">
       <use xlink:href="#ArialMT-37"/>
       <use x="55.615234" xlink:href="#ArialMT-2e"/>
       <use x="83.398438" xlink:href="#ArialMT-35"/>
      </g>
     </g>
    </g>
   </g>
   <g id="matplotlib.axis_8">
    <g id="ytick_13">
     <g id="line2d_25"/>
     <g id="text_25">
      <!-- 0 -->
      <g style="fill:#262626;" transform="translate(33.849063 314.098906)scale(0.1 -0.1)">
       <use xlink:href="#ArialMT-30"/>
      </g>
     </g>
    </g>
    <g id="ytick_14">
     <g id="line2d_26"/>
     <g id="text_26">
      <!-- 5 -->
      <g style="fill:#262626;" transform="translate(33.849063 273.393549)scale(0.1 -0.1)">
       <use xlink:href="#ArialMT-35"/>
      </g>
     </g>
    </g>
    <g id="ytick_15">
     <g id="line2d_27"/>
     <g id="text_27">
      <!-- 10 -->
      <g style="fill:#262626;" transform="translate(28.288125 232.688192)scale(0.1 -0.1)">
       <use xlink:href="#ArialMT-31"/>
       <use x="55.615234" xlink:href="#ArialMT-30"/>
      </g>
     </g>
    </g>
    <g id="ytick_16">
     <g id="line2d_28"/>
     <g id="text_28">
      <!-- 15 -->
      <g style="fill:#262626;" transform="translate(28.288125 191.982835)scale(0.1 -0.1)">
       <use xlink:href="#ArialMT-31"/>
       <use x="55.615234" xlink:href="#ArialMT-35"/>
      </g>
     </g>
    </g>
   </g>
   <g id="patch_72">
    <path clip-path="url(#pa3cb4accdd)" d="M 40.000042 310.52 
L 45.819958 310.52 
L 45.819958 302.378929 
L 40.000042 302.378929 
z
" style="fill:#1f77b4;"/>
   </g>
   <g id="patch_73">
    <path clip-path="url(#pa3cb4accdd)" d="M 45.819958 310.52 
L 51.639875 310.52 
L 51.639875 277.955714 
L 45.819958 277.955714 
z
" style="fill:#1f77b4;"/>
   </g>
   <g id="patch_74">
    <path clip-path="url(#pa3cb4accdd)" d="M 51.639875 310.52 
L 57.459792 310.52 
L 57.459792 302.378929 
L 51.639875 302.378929 
z
" style="fill:#1f77b4;"/>
   </g>
   <g id="patch_75">
    <path clip-path="url(#pa3cb4accdd)" d="M 57.459792 310.52 
L 63.279708 310.52 
L 63.279708 310.52 
L 57.459792 310.52 
z
" style="fill:#1f77b4;"/>
   </g>
   <g id="patch_76">
    <path clip-path="url(#pa3cb4accdd)" d="M 63.279708 310.52 
L 69.099625 310.52 
L 69.099625 310.52 
L 63.279708 310.52 
z
" style="fill:#1f77b4;"/>
   </g>
   <g id="patch_77">
    <path clip-path="url(#pa3cb4accdd)" d="M 69.099625 310.52 
L 74.919542 310.52 
L 74.919542 302.378929 
L 69.099625 302.378929 
z
" style="fill:#1f77b4;"/>
   </g>
   <g id="patch_78">
    <path clip-path="url(#pa3cb4accdd)" d="M 74.919542 310.52 
L 80.739458 310.52 
L 80.739458 269.814643 
L 74.919542 269.814643 
z
" style="fill:#1f77b4;"/>
   </g>
   <g id="patch_79">
    <path clip-path="url(#pa3cb4accdd)" d="M 80.739458 310.52 
L 86.559375 310.52 
L 86.559375 269.814643 
L 80.739458 269.814643 
z
" style="fill:#1f77b4;"/>
   </g>
   <g id="patch_80">
    <path clip-path="url(#pa3cb4accdd)" d="M 86.559375 310.52 
L 92.379292 310.52 
L 92.379292 245.391429 
L 86.559375 245.391429 
z
" style="fill:#1f77b4;"/>
   </g>
   <g id="patch_81">
    <path clip-path="url(#pa3cb4accdd)" d="M 92.379292 310.52 
L 98.199208 310.52 
L 98.199208 245.391429 
L 92.379292 245.391429 
z
" style="fill:#1f77b4;"/>
   </g>
   <g id="patch_82">
    <path clip-path="url(#pa3cb4accdd)" d="M 98.199208 310.52 
L 104.019125 310.52 
L 104.019125 302.378929 
L 98.199208 302.378929 
z
" style="fill:#1f77b4;"/>
   </g>
   <g id="patch_83">
    <path clip-path="url(#pa3cb4accdd)" d="M 104.019125 310.52 
L 109.839042 310.52 
L 109.839042 310.52 
L 104.019125 310.52 
z
" style="fill:#1f77b4;"/>
   </g>
   <g id="patch_84">
    <path clip-path="url(#pa3cb4accdd)" d="M 109.839042 310.52 
L 115.658958 310.52 
L 115.658958 302.378929 
L 109.839042 302.378929 
z
" style="fill:#1f77b4;"/>
   </g>
   <g id="patch_85">
    <path clip-path="url(#pa3cb4accdd)" d="M 115.658958 310.52 
L 121.478875 310.52 
L 121.478875 253.5325 
L 115.658958 253.5325 
z
" style="fill:#1f77b4;"/>
   </g>
   <g id="patch_86">
    <path clip-path="url(#pa3cb4accdd)" d="M 121.478875 310.52 
L 127.298792 310.52 
L 127.298792 180.262857 
L 121.478875 180.262857 
z
" style="fill:#1f77b4;"/>
   </g>
   <g id="patch_87">
    <path clip-path="url(#pa3cb4accdd)" d="M 127.298792 310.52 
L 133.118708 310.52 
L 133.118708 237.250357 
L 127.298792 237.250357 
z
" style="fill:#1f77b4;"/>
   </g>
   <g id="patch_88">
    <path clip-path="url(#pa3cb4accdd)" d="M 133.118708 310.52 
L 138.938625 310.52 
L 138.938625 212.827143 
L 133.118708 212.827143 
z
" style="fill:#1f77b4;"/>
   </g>
   <g id="patch_89">
    <path clip-path="url(#pa3cb4accdd)" d="M 138.938625 310.52 
L 144.758542 310.52 
L 144.758542 212.827143 
L 138.938625 212.827143 
z
" style="fill:#1f77b4;"/>
   </g>
   <g id="patch_90">
    <path clip-path="url(#pa3cb4accdd)" d="M 144.758542 310.52 
L 150.578458 310.52 
L 150.578458 269.814643 
L 144.758542 269.814643 
z
" style="fill:#1f77b4;"/>
   </g>
   <g id="patch_91">
    <path clip-path="url(#pa3cb4accdd)" d="M 150.578458 310.52 
L 156.398375 310.52 
L 156.398375 302.378929 
L 150.578458 302.378929 
z
" style="fill:#1f77b4;"/>
   </g>
   <g id="patch_92">
    <path d="M 42.91 310.52 
L 42.91 173.75 
" style="fill:none;stroke:#262626;stroke-linecap:square;stroke-linejoin:miter;stroke-width:1.25;"/>
   </g>
   <g id="patch_93">
    <path d="M 42.91 310.52 
L 159.308333 310.52 
" style="fill:none;stroke:#262626;stroke-linecap:square;stroke-linejoin:miter;stroke-width:1.25;"/>
   </g>
  </g>
  <g id="axes_5">
   <g id="patch_94">
    <path d="M 184.768333 310.52 
L 301.166667 310.52 
L 301.166667 173.75 
L 184.768333 173.75 
z
" style="fill:#ffffff;"/>
   </g>
   <g id="matplotlib.axis_9">
    <g id="xtick_13">
     <g id="line2d_29"/>
     <g id="text_29">
      <!-- 2.5 -->
      <g style="fill:#262626;" transform="translate(189.963143 321.177812)scale(0.1 -0.1)">
       <use xlink:href="#ArialMT-32"/>
       <use x="55.615234" xlink:href="#ArialMT-2e"/>
       <use x="83.398438" xlink:href="#ArialMT-35"/>
      </g>
     </g>
    </g>
    <g id="xtick_14">
     <g id="line2d_30"/>
     <g id="text_30">
      <!-- 5.0 -->
      <g style="fill:#262626;" transform="translate(226.132049 321.177812)scale(0.1 -0.1)">
       <use xlink:href="#ArialMT-35"/>
       <use x="55.615234" xlink:href="#ArialMT-2e"/>
       <use x="83.398438" xlink:href="#ArialMT-30"/>
      </g>
     </g>
    </g>
    <g id="xtick_15">
     <g id="line2d_31"/>
     <g id="text_31">
      <!-- 7.5 -->
      <g style="fill:#262626;" transform="translate(262.300955 321.177812)scale(0.1 -0.1)">
       <use xlink:href="#ArialMT-37"/>
       <use x="55.615234" xlink:href="#ArialMT-2e"/>
       <use x="83.398438" xlink:href="#ArialMT-35"/>
      </g>
     </g>
    </g>
   </g>
   <g id="matplotlib.axis_10">
    <g id="ytick_17">
     <g id="line2d_32"/>
     <g id="text_32">
      <!-- 0 -->
      <g style="fill:#262626;" transform="translate(175.707396 314.098906)scale(0.1 -0.1)">
       <use xlink:href="#ArialMT-30"/>
      </g>
     </g>
    </g>
    <g id="ytick_18">
     <g id="line2d_33"/>
     <g id="text_33">
      <!-- 5 -->
      <g style="fill:#262626;" transform="translate(175.707396 273.393549)scale(0.1 -0.1)">
       <use xlink:href="#ArialMT-35"/>
      </g>
     </g>
    </g>
    <g id="ytick_19">
     <g id="line2d_34"/>
     <g id="text_34">
      <!-- 10 -->
      <g style="fill:#262626;" transform="translate(170.146458 232.688192)scale(0.1 -0.1)">
       <use xlink:href="#ArialMT-31"/>
       <use x="55.615234" xlink:href="#ArialMT-30"/>
      </g>
     </g>
    </g>
    <g id="ytick_20">
     <g id="line2d_35"/>
     <g id="text_35">
      <!-- 15 -->
      <g style="fill:#262626;" transform="translate(170.146458 191.982835)scale(0.1 -0.1)">
       <use xlink:href="#ArialMT-31"/>
       <use x="55.615234" xlink:href="#ArialMT-35"/>
      </g>
     </g>
    </g>
   </g>
   <g id="patch_95">
    <path clip-path="url(#p0af73a96a6)" d="M 183.313354 310.52 
L 189.133271 310.52 
L 189.133271 286.096786 
L 183.313354 286.096786 
z
" style="fill:#1f77b4;"/>
   </g>
   <g id="patch_96">
    <path clip-path="url(#p0af73a96a6)" d="M 189.133271 310.52 
L 194.953187 310.52 
L 194.953187 294.237857 
L 189.133271 294.237857 
z
" style="fill:#1f77b4;"/>
   </g>
   <g id="patch_97">
    <path clip-path="url(#p0af73a96a6)" d="M 194.953187 310.52 
L 200.773104 310.52 
L 200.773104 302.378929 
L 194.953187 302.378929 
z
" style="fill:#1f77b4;"/>
   </g>
   <g id="patch_98">
    <path clip-path="url(#p0af73a96a6)" d="M 200.773104 310.52 
L 206.593021 310.52 
L 206.593021 310.52 
L 200.773104 310.52 
z
" style="fill:#1f77b4;"/>
   </g>
   <g id="patch_99">
    <path clip-path="url(#p0af73a96a6)" d="M 206.593021 310.52 
L 212.412937 310.52 
L 212.412937 302.378929 
L 206.593021 302.378929 
z
" style="fill:#1f77b4;"/>
   </g>
   <g id="patch_100">
    <path clip-path="url(#p0af73a96a6)" d="M 212.412937 310.52 
L 218.232854 310.52 
L 218.232854 310.52 
L 212.412937 310.52 
z
" style="fill:#1f77b4;"/>
   </g>
   <g id="patch_101">
    <path clip-path="url(#p0af73a96a6)" d="M 218.232854 310.52 
L 224.052771 310.52 
L 224.052771 261.673571 
L 218.232854 261.673571 
z
" style="fill:#1f77b4;"/>
   </g>
   <g id="patch_102">
    <path clip-path="url(#p0af73a96a6)" d="M 224.052771 310.52 
L 229.872687 310.52 
L 229.872687 261.673571 
L 224.052771 261.673571 
z
" style="fill:#1f77b4;"/>
   </g>
   <g id="patch_103">
    <path clip-path="url(#p0af73a96a6)" d="M 229.872687 310.52 
L 235.692604 310.52 
L 235.692604 245.391429 
L 229.872687 245.391429 
z
" style="fill:#1f77b4;"/>
   </g>
   <g id="patch_104">
    <path clip-path="url(#p0af73a96a6)" d="M 235.692604 310.52 
L 241.512521 310.52 
L 241.512521 253.5325 
L 235.692604 253.5325 
z
" style="fill:#1f77b4;"/>
   </g>
   <g id="patch_105">
    <path clip-path="url(#p0af73a96a6)" d="M 241.512521 310.52 
L 247.332437 310.52 
L 247.332437 310.52 
L 241.512521 310.52 
z
" style="fill:#1f77b4;"/>
   </g>
   <g id="patch_106">
    <path clip-path="url(#p0af73a96a6)" d="M 247.332437 310.52 
L 253.152354 310.52 
L 253.152354 310.52 
L 247.332437 310.52 
z
" style="fill:#1f77b4;"/>
   </g>
   <g id="patch_107">
    <path clip-path="url(#p0af73a96a6)" d="M 253.152354 310.52 
L 258.972271 310.52 
L 258.972271 302.378929 
L 253.152354 302.378929 
z
" style="fill:#1f77b4;"/>
   </g>
   <g id="patch_108">
    <path clip-path="url(#p0af73a96a6)" d="M 258.972271 310.52 
L 264.792187 310.52 
L 264.792187 212.827143 
L 258.972271 212.827143 
z
" style="fill:#1f77b4;"/>
   </g>
   <g id="patch_109">
    <path clip-path="url(#p0af73a96a6)" d="M 264.792187 310.52 
L 270.612104 310.52 
L 270.612104 204.686071 
L 264.792187 204.686071 
z
" style="fill:#1f77b4;"/>
   </g>
   <g id="patch_110">
    <path clip-path="url(#p0af73a96a6)" d="M 270.612104 310.52 
L 276.432021 310.52 
L 276.432021 229.109286 
L 270.612104 229.109286 
z
" style="fill:#1f77b4;"/>
   </g>
   <g id="patch_111">
    <path clip-path="url(#p0af73a96a6)" d="M 276.432021 310.52 
L 282.251937 310.52 
L 282.251937 220.968214 
L 276.432021 220.968214 
z
" style="fill:#1f77b4;"/>
   </g>
   <g id="patch_112">
    <path clip-path="url(#p0af73a96a6)" d="M 282.251937 310.52 
L 288.071854 310.52 
L 288.071854 220.968214 
L 282.251937 220.968214 
z
" style="fill:#1f77b4;"/>
   </g>
   <g id="patch_113">
    <path clip-path="url(#p0af73a96a6)" d="M 288.071854 310.52 
L 293.891771 310.52 
L 293.891771 277.955714 
L 288.071854 277.955714 
z
" style="fill:#1f77b4;"/>
   </g>
   <g id="patch_114">
    <path clip-path="url(#p0af73a96a6)" d="M 293.891771 310.52 
L 299.711687 310.52 
L 299.711687 302.378929 
L 293.891771 302.378929 
z
" style="fill:#1f77b4;"/>
   </g>
   <g id="patch_115">
    <path d="M 184.768333 310.52 
L 184.768333 173.75 
" style="fill:none;stroke:#262626;stroke-linecap:square;stroke-linejoin:miter;stroke-width:1.25;"/>
   </g>
   <g id="patch_116">
    <path d="M 184.768333 310.52 
L 301.166667 310.52 
" style="fill:none;stroke:#262626;stroke-linecap:square;stroke-linejoin:miter;stroke-width:1.25;"/>
   </g>
  </g>
  <g id="axes_6">
   <g id="patch_117">
    <path d="M 326.626667 310.52 
L 443.025 310.52 
L 443.025 173.75 
L 326.626667 173.75 
z
" style="fill:#ffffff;"/>
   </g>
   <g id="matplotlib.axis_11">
    <g id="xtick_16">
     <g id="line2d_36"/>
     <g id="text_36">
      <!-- 2.5 -->
      <g style="fill:#262626;" transform="translate(331.821477 321.177812)scale(0.1 -0.1)">
       <use xlink:href="#ArialMT-32"/>
       <use x="55.615234" xlink:href="#ArialMT-2e"/>
       <use x="83.398438" xlink:href="#ArialMT-35"/>
      </g>
     </g>
    </g>
    <g id="xtick_17">
     <g id="line2d_37"/>
     <g id="text_37">
      <!-- 5.0 -->
      <g style="fill:#262626;" transform="translate(367.990382 321.177812)scale(0.1 -0.1)">
       <use xlink:href="#ArialMT-35"/>
       <use x="55.615234" xlink:href="#ArialMT-2e"/>
       <use x="83.398438" xlink:href="#ArialMT-30"/>
      </g>
     </g>
    </g>
    <g id="xtick_18">
     <g id="line2d_38"/>
     <g id="text_38">
      <!-- 7.5 -->
      <g style="fill:#262626;" transform="translate(404.159288 321.177812)scale(0.1 -0.1)">
       <use xlink:href="#ArialMT-37"/>
       <use x="55.615234" xlink:href="#ArialMT-2e"/>
       <use x="83.398438" xlink:href="#ArialMT-35"/>
      </g>
     </g>
    </g>
   </g>
   <g id="matplotlib.axis_12">
    <g id="ytick_21">
     <g id="line2d_39"/>
     <g id="text_39">
      <!-- 0 -->
      <g style="fill:#262626;" transform="translate(317.565729 314.098906)scale(0.1 -0.1)">
       <use xlink:href="#ArialMT-30"/>
      </g>
     </g>
    </g>
    <g id="ytick_22">
     <g id="line2d_40"/>
     <g id="text_40">
      <!-- 5 -->
      <g style="fill:#262626;" transform="translate(317.565729 273.393549)scale(0.1 -0.1)">
       <use xlink:href="#ArialMT-35"/>
      </g>
     </g>
    </g>
    <g id="ytick_23">
     <g id="line2d_41"/>
     <g id="text_41">
      <!-- 10 -->
      <g style="fill:#262626;" transform="translate(312.004792 232.688192)scale(0.1 -0.1)">
       <use xlink:href="#ArialMT-31"/>
       <use x="55.615234" xlink:href="#ArialMT-30"/>
      </g>
     </g>
    </g>
    <g id="ytick_24">
     <g id="line2d_42"/>
     <g id="text_42">
      <!-- 15 -->
      <g style="fill:#262626;" transform="translate(312.004792 191.982835)scale(0.1 -0.1)">
       <use xlink:href="#ArialMT-31"/>
       <use x="55.615234" xlink:href="#ArialMT-35"/>
      </g>
     </g>
    </g>
   </g>
   <g id="patch_118">
    <path clip-path="url(#pcb9b8bec2c)" d="M 326.626667 310.52 
L 332.446583 310.52 
L 332.446583 277.955714 
L 326.626667 277.955714 
z
" style="fill:#1f77b4;"/>
   </g>
   <g id="patch_119">
    <path clip-path="url(#pcb9b8bec2c)" d="M 332.446583 310.52 
L 338.2665 310.52 
L 338.2665 302.378929 
L 332.446583 302.378929 
z
" style="fill:#1f77b4;"/>
   </g>
   <g id="patch_120">
    <path clip-path="url(#pcb9b8bec2c)" d="M 338.2665 310.52 
L 344.086417 310.52 
L 344.086417 302.378929 
L 338.2665 302.378929 
z
" style="fill:#1f77b4;"/>
   </g>
   <g id="patch_121">
    <path clip-path="url(#pcb9b8bec2c)" d="M 344.086417 310.52 
L 349.906333 310.52 
L 349.906333 310.52 
L 344.086417 310.52 
z
" style="fill:#1f77b4;"/>
   </g>
   <g id="patch_122">
    <path clip-path="url(#pcb9b8bec2c)" d="M 349.906333 310.52 
L 355.72625 310.52 
L 355.72625 302.378929 
L 349.906333 302.378929 
z
" style="fill:#1f77b4;"/>
   </g>
   <g id="patch_123">
    <path clip-path="url(#pcb9b8bec2c)" d="M 355.72625 310.52 
L 361.546167 310.52 
L 361.546167 302.378929 
L 355.72625 302.378929 
z
" style="fill:#1f77b4;"/>
   </g>
   <g id="patch_124">
    <path clip-path="url(#pcb9b8bec2c)" d="M 361.546167 310.52 
L 367.366083 310.52 
L 367.366083 261.673571 
L 361.546167 261.673571 
z
" style="fill:#1f77b4;"/>
   </g>
   <g id="patch_125">
    <path clip-path="url(#pcb9b8bec2c)" d="M 367.366083 310.52 
L 373.186 310.52 
L 373.186 253.5325 
L 367.366083 253.5325 
z
" style="fill:#1f77b4;"/>
   </g>
   <g id="patch_126">
    <path clip-path="url(#pcb9b8bec2c)" d="M 373.186 310.52 
L 379.005917 310.52 
L 379.005917 245.391429 
L 373.186 245.391429 
z
" style="fill:#1f77b4;"/>
   </g>
   <g id="patch_127">
    <path clip-path="url(#pcb9b8bec2c)" d="M 379.005917 310.52 
L 384.825833 310.52 
L 384.825833 269.814643 
L 379.005917 269.814643 
z
" style="fill:#1f77b4;"/>
   </g>
   <g id="patch_128">
    <path clip-path="url(#pcb9b8bec2c)" d="M 384.825833 310.52 
L 390.64575 310.52 
L 390.64575 310.52 
L 384.825833 310.52 
z
" style="fill:#1f77b4;"/>
   </g>
   <g id="patch_129">
    <path clip-path="url(#pcb9b8bec2c)" d="M 390.64575 310.52 
L 396.465667 310.52 
L 396.465667 310.52 
L 390.64575 310.52 
z
" style="fill:#1f77b4;"/>
   </g>
   <g id="patch_130">
    <path clip-path="url(#pcb9b8bec2c)" d="M 396.465667 310.52 
L 402.285583 310.52 
L 402.285583 277.955714 
L 396.465667 277.955714 
z
" style="fill:#1f77b4;"/>
   </g>
   <g id="patch_131">
    <path clip-path="url(#pcb9b8bec2c)" d="M 402.285583 310.52 
L 408.1055 310.52 
L 408.1055 196.545 
L 402.285583 196.545 
z
" style="fill:#1f77b4;"/>
   </g>
   <g id="patch_132">
    <path clip-path="url(#pcb9b8bec2c)" d="M 408.1055 310.52 
L 413.925417 310.52 
L 413.925417 245.391429 
L 408.1055 245.391429 
z
" style="fill:#1f77b4;"/>
   </g>
   <g id="patch_133">
    <path clip-path="url(#pcb9b8bec2c)" d="M 413.925417 310.52 
L 419.745333 310.52 
L 419.745333 204.686071 
L 413.925417 204.686071 
z
" style="fill:#1f77b4;"/>
   </g>
   <g id="patch_134">
    <path clip-path="url(#pcb9b8bec2c)" d="M 419.745333 310.52 
L 425.56525 310.52 
L 425.56525 212.827143 
L 419.745333 212.827143 
z
" style="fill:#1f77b4;"/>
   </g>
   <g id="patch_135">
    <path clip-path="url(#pcb9b8bec2c)" d="M 425.56525 310.52 
L 431.385167 310.52 
L 431.385167 237.250357 
L 425.56525 237.250357 
z
" style="fill:#1f77b4;"/>
   </g>
   <g id="patch_136">
    <path clip-path="url(#pcb9b8bec2c)" d="M 431.385167 310.52 
L 437.205083 310.52 
L 437.205083 286.096786 
L 431.385167 286.096786 
z
" style="fill:#1f77b4;"/>
   </g>
   <g id="patch_137">
    <path clip-path="url(#pcb9b8bec2c)" d="M 437.205083 310.52 
L 443.025 310.52 
L 443.025 310.52 
L 437.205083 310.52 
z
" style="fill:#1f77b4;"/>
   </g>
   <g id="patch_138">
    <path d="M 326.626667 310.52 
L 326.626667 173.75 
" style="fill:none;stroke:#262626;stroke-linecap:square;stroke-linejoin:miter;stroke-width:1.25;"/>
   </g>
   <g id="patch_139">
    <path d="M 326.626667 310.52 
L 443.025 310.52 
" style="fill:none;stroke:#262626;stroke-linecap:square;stroke-linejoin:miter;stroke-width:1.25;"/>
   </g>
  </g>
  <g id="axes_7">
   <g id="matplotlib.axis_13">
    <g id="xtick_19">
     <g id="line2d_43"/>
     <g id="text_43">
      <!-- 0.0 -->
      <g style="fill:#262626;opacity:0;" transform="translate(35.96 321.177812)scale(0.1 -0.1)">
       <use xlink:href="#ArialMT-30"/>
       <use x="55.615234" xlink:href="#ArialMT-2e"/>
       <use x="83.398438" xlink:href="#ArialMT-30"/>
      </g>
     </g>
    </g>
    <g id="xtick_20">
     <g id="line2d_44"/>
     <g id="text_44">
      <!-- 0.2 -->
      <g style="fill:#262626;opacity:0;" transform="translate(115.983 321.177812)scale(0.1 -0.1)">
       <use xlink:href="#ArialMT-30"/>
       <use x="55.615234" xlink:href="#ArialMT-2e"/>
       <use x="83.398438" xlink:href="#ArialMT-32"/>
      </g>
     </g>
    </g>
    <g id="xtick_21">
     <g id="line2d_45"/>
     <g id="text_45">
      <!-- 0.4 -->
      <defs>
       <path d="M 32.328125 0 
L 32.328125 17.140625 
L 1.265625 17.140625 
L 1.265625 25.203125 
L 33.9375 71.578125 
L 41.109375 71.578125 
L 41.109375 25.203125 
L 50.78125 25.203125 
L 50.78125 17.140625 
L 41.109375 17.140625 
L 41.109375 0 
z
M 32.328125 25.203125 
L 32.328125 57.46875 
L 9.90625 25.203125 
z
" id="ArialMT-34"/>
      </defs>
      <g style="fill:#262626;opacity:0;" transform="translate(196.006 321.177812)scale(0.1 -0.1)">
       <use xlink:href="#ArialMT-30"/>
       <use x="55.615234" xlink:href="#ArialMT-2e"/>
       <use x="83.398438" xlink:href="#ArialMT-34"/>
      </g>
     </g>
    </g>
    <g id="xtick_22">
     <g id="line2d_46"/>
     <g id="text_46">
      <!-- 0.6 -->
      <defs>
       <path d="M 49.75 54.046875 
L 41.015625 53.375 
Q 39.84375 58.546875 37.703125 60.890625 
Q 34.125 64.65625 28.90625 64.65625 
Q 24.703125 64.65625 21.53125 62.3125 
Q 17.390625 59.28125 14.984375 53.46875 
Q 12.59375 47.65625 12.5 36.921875 
Q 15.671875 41.75 20.265625 44.09375 
Q 24.859375 46.4375 29.890625 46.4375 
Q 38.671875 46.4375 44.84375 39.96875 
Q 51.03125 33.5 51.03125 23.25 
Q 51.03125 16.5 48.125 10.71875 
Q 45.21875 4.9375 40.140625 1.859375 
Q 35.0625 -1.21875 28.609375 -1.21875 
Q 17.625 -1.21875 10.6875 6.859375 
Q 3.765625 14.9375 3.765625 33.5 
Q 3.765625 54.25 11.421875 63.671875 
Q 18.109375 71.875 29.4375 71.875 
Q 37.890625 71.875 43.28125 67.140625 
Q 48.6875 62.40625 49.75 54.046875 
z
M 13.875 23.1875 
Q 13.875 18.65625 15.796875 14.5 
Q 17.71875 10.359375 21.1875 8.171875 
Q 24.65625 6 28.46875 6 
Q 34.03125 6 38.03125 10.484375 
Q 42.046875 14.984375 42.046875 22.703125 
Q 42.046875 30.125 38.078125 34.390625 
Q 34.125 38.671875 28.125 38.671875 
Q 22.171875 38.671875 18.015625 34.390625 
Q 13.875 30.125 13.875 23.1875 
z
" id="ArialMT-36"/>
      </defs>
      <g style="fill:#262626;opacity:0;" transform="translate(276.029 321.177812)scale(0.1 -0.1)">
       <use xlink:href="#ArialMT-30"/>
       <use x="55.615234" xlink:href="#ArialMT-2e"/>
       <use x="83.398438" xlink:href="#ArialMT-36"/>
      </g>
     </g>
    </g>
    <g id="xtick_23">
     <g id="line2d_47"/>
     <g id="text_47">
      <!-- 0.8 -->
      <defs>
       <path d="M 17.671875 38.8125 
Q 12.203125 40.828125 9.5625 44.53125 
Q 6.9375 48.25 6.9375 53.421875 
Q 6.9375 61.234375 12.546875 66.546875 
Q 18.171875 71.875 27.484375 71.875 
Q 36.859375 71.875 42.578125 66.421875 
Q 48.296875 60.984375 48.296875 53.171875 
Q 48.296875 48.1875 45.671875 44.5 
Q 43.0625 40.828125 37.75 38.8125 
Q 44.34375 36.671875 47.78125 31.875 
Q 51.21875 27.09375 51.21875 20.453125 
Q 51.21875 11.28125 44.71875 5.03125 
Q 38.234375 -1.21875 27.640625 -1.21875 
Q 17.046875 -1.21875 10.546875 5.046875 
Q 4.046875 11.328125 4.046875 20.703125 
Q 4.046875 27.6875 7.59375 32.390625 
Q 11.140625 37.109375 17.671875 38.8125 
z
M 15.921875 53.71875 
Q 15.921875 48.640625 19.1875 45.40625 
Q 22.46875 42.1875 27.6875 42.1875 
Q 32.765625 42.1875 36.015625 45.375 
Q 39.265625 48.578125 39.265625 53.21875 
Q 39.265625 58.0625 35.90625 61.359375 
Q 32.5625 64.65625 27.59375 64.65625 
Q 22.5625 64.65625 19.234375 61.421875 
Q 15.921875 58.203125 15.921875 53.71875 
z
M 13.09375 20.65625 
Q 13.09375 16.890625 14.875 13.375 
Q 16.65625 9.859375 20.171875 7.921875 
Q 23.6875 6 27.734375 6 
Q 34.03125 6 38.125 10.046875 
Q 42.234375 14.109375 42.234375 20.359375 
Q 42.234375 26.703125 38.015625 30.859375 
Q 33.796875 35.015625 27.4375 35.015625 
Q 21.234375 35.015625 17.15625 30.90625 
Q 13.09375 26.8125 13.09375 20.65625 
z
" id="ArialMT-38"/>
      </defs>
      <g style="fill:#262626;opacity:0;" transform="translate(356.052 321.177812)scale(0.1 -0.1)">
       <use xlink:href="#ArialMT-30"/>
       <use x="55.615234" xlink:href="#ArialMT-2e"/>
       <use x="83.398438" xlink:href="#ArialMT-38"/>
      </g>
     </g>
    </g>
    <g id="xtick_24">
     <g id="line2d_48"/>
     <g id="text_48">
      <!-- 1.0 -->
      <g style="fill:#262626;opacity:0;" transform="translate(436.075 321.177812)scale(0.1 -0.1)">
       <use xlink:href="#ArialMT-31"/>
       <use x="55.615234" xlink:href="#ArialMT-2e"/>
       <use x="83.398438" xlink:href="#ArialMT-30"/>
      </g>
     </g>
    </g>
    <g id="text_49">
     <!-- $x$ -->
     <defs>
      <path d="M 60.015625 54.6875 
L 34.90625 27.875 
L 50.296875 0 
L 39.984375 0 
L 28.421875 21.6875 
L 8.296875 0 
L -2.59375 0 
L 24.3125 28.8125 
L 10.015625 54.6875 
L 20.3125 54.6875 
L 30.8125 34.90625 
L 49.125 54.6875 
z
" id="DejaVuSans-Oblique-78"/>
     </defs>
     <g style="fill:#262626;" transform="translate(239.9675 334.323125)scale(0.1 -0.1)">
      <use transform="translate(0 0.3125)" xlink:href="#DejaVuSans-Oblique-78"/>
     </g>
    </g>
   </g>
   <g id="matplotlib.axis_14">
    <g id="ytick_25">
     <g id="line2d_49"/>
     <g id="text_50">
      <!-- 0.0 -->
      <g style="fill:#262626;opacity:0;" transform="translate(25.51 314.098906)scale(0.1 -0.1)">
       <use xlink:href="#ArialMT-30"/>
       <use x="55.615234" xlink:href="#ArialMT-2e"/>
       <use x="83.398438" xlink:href="#ArialMT-30"/>
      </g>
     </g>
    </g>
    <g id="ytick_26">
     <g id="line2d_50"/>
     <g id="text_51">
      <!-- 0.2 -->
      <g style="fill:#262626;opacity:0;" transform="translate(25.51 254.802906)scale(0.1 -0.1)">
       <use xlink:href="#ArialMT-30"/>
       <use x="55.615234" xlink:href="#ArialMT-2e"/>
       <use x="83.398438" xlink:href="#ArialMT-32"/>
      </g>
     </g>
    </g>
    <g id="ytick_27">
     <g id="line2d_51"/>
     <g id="text_52">
      <!-- 0.4 -->
      <g style="fill:#262626;opacity:0;" transform="translate(25.51 195.506906)scale(0.1 -0.1)">
       <use xlink:href="#ArialMT-30"/>
       <use x="55.615234" xlink:href="#ArialMT-2e"/>
       <use x="83.398438" xlink:href="#ArialMT-34"/>
      </g>
     </g>
    </g>
    <g id="ytick_28">
     <g id="line2d_52"/>
     <g id="text_53">
      <!-- 0.6 -->
      <g style="fill:#262626;opacity:0;" transform="translate(25.51 136.210906)scale(0.1 -0.1)">
       <use xlink:href="#ArialMT-30"/>
       <use x="55.615234" xlink:href="#ArialMT-2e"/>
       <use x="83.398438" xlink:href="#ArialMT-36"/>
      </g>
     </g>
    </g>
    <g id="ytick_29">
     <g id="line2d_53"/>
     <g id="text_54">
      <!-- 0.8 -->
      <g style="fill:#262626;opacity:0;" transform="translate(25.51 76.914906)scale(0.1 -0.1)">
       <use xlink:href="#ArialMT-30"/>
       <use x="55.615234" xlink:href="#ArialMT-2e"/>
       <use x="83.398438" xlink:href="#ArialMT-38"/>
      </g>
     </g>
    </g>
    <g id="ytick_30">
     <g id="line2d_54"/>
     <g id="text_55">
      <!-- 1.0 -->
      <g style="fill:#262626;opacity:0;" transform="translate(25.51 17.618906)scale(0.1 -0.1)">
       <use xlink:href="#ArialMT-31"/>
       <use x="55.615234" xlink:href="#ArialMT-2e"/>
       <use x="83.398438" xlink:href="#ArialMT-30"/>
      </g>
     </g>
    </g>
    <g id="text_56">
     <!-- Count -->
     <defs>
      <path d="M 58.796875 25.09375 
L 68.265625 22.703125 
Q 65.28125 11.03125 57.546875 4.90625 
Q 49.8125 -1.21875 38.625 -1.21875 
Q 27.046875 -1.21875 19.796875 3.484375 
Q 12.546875 8.203125 8.765625 17.140625 
Q 4.984375 26.078125 4.984375 36.328125 
Q 4.984375 47.515625 9.25 55.828125 
Q 13.53125 64.15625 21.40625 68.46875 
Q 29.296875 72.796875 38.765625 72.796875 
Q 49.515625 72.796875 56.828125 67.328125 
Q 64.15625 61.859375 67.046875 51.953125 
L 57.71875 49.75 
Q 55.21875 57.5625 50.484375 61.125 
Q 45.75 64.703125 38.578125 64.703125 
Q 30.328125 64.703125 24.78125 60.734375 
Q 19.234375 56.78125 16.984375 50.109375 
Q 14.75 43.453125 14.75 36.375 
Q 14.75 27.25 17.40625 20.4375 
Q 20.0625 13.625 25.671875 10.25 
Q 31.296875 6.890625 37.84375 6.890625 
Q 45.796875 6.890625 51.3125 11.46875 
Q 56.84375 16.0625 58.796875 25.09375 
z
" id="ArialMT-43"/>
      <path d="M 3.328125 25.921875 
Q 3.328125 40.328125 11.328125 47.265625 
Q 18.015625 53.03125 27.640625 53.03125 
Q 38.328125 53.03125 45.109375 46.015625 
Q 51.90625 39.015625 51.90625 26.65625 
Q 51.90625 16.65625 48.90625 10.90625 
Q 45.90625 5.171875 40.15625 2 
Q 34.421875 -1.171875 27.640625 -1.171875 
Q 16.75 -1.171875 10.03125 5.8125 
Q 3.328125 12.796875 3.328125 25.921875 
z
M 12.359375 25.921875 
Q 12.359375 15.96875 16.703125 11.015625 
Q 21.046875 6.0625 27.640625 6.0625 
Q 34.1875 6.0625 38.53125 11.03125 
Q 42.875 16.015625 42.875 26.21875 
Q 42.875 35.84375 38.5 40.796875 
Q 34.125 45.75 27.640625 45.75 
Q 21.046875 45.75 16.703125 40.8125 
Q 12.359375 35.890625 12.359375 25.921875 
z
" id="ArialMT-6f"/>
      <path d="M 40.578125 0 
L 40.578125 7.625 
Q 34.515625 -1.171875 24.125 -1.171875 
Q 19.53125 -1.171875 15.546875 0.578125 
Q 11.578125 2.34375 9.640625 5 
Q 7.71875 7.671875 6.9375 11.53125 
Q 6.390625 14.109375 6.390625 19.734375 
L 6.390625 51.859375 
L 15.1875 51.859375 
L 15.1875 23.09375 
Q 15.1875 16.21875 15.71875 13.8125 
Q 16.546875 10.359375 19.234375 8.375 
Q 21.921875 6.390625 25.875 6.390625 
Q 29.828125 6.390625 33.296875 8.421875 
Q 36.765625 10.453125 38.203125 13.9375 
Q 39.65625 17.4375 39.65625 24.078125 
L 39.65625 51.859375 
L 48.4375 51.859375 
L 48.4375 0 
z
" id="ArialMT-75"/>
      <path d="M 6.59375 0 
L 6.59375 51.859375 
L 14.5 51.859375 
L 14.5 44.484375 
Q 20.21875 53.03125 31 53.03125 
Q 35.6875 53.03125 39.625 51.34375 
Q 43.5625 49.65625 45.515625 46.921875 
Q 47.46875 44.1875 48.25 40.4375 
Q 48.734375 37.984375 48.734375 31.890625 
L 48.734375 0 
L 39.9375 0 
L 39.9375 31.546875 
Q 39.9375 36.921875 38.90625 39.578125 
Q 37.890625 42.234375 35.28125 43.8125 
Q 32.671875 45.40625 29.15625 45.40625 
Q 23.53125 45.40625 19.453125 41.84375 
Q 15.375 38.28125 15.375 28.328125 
L 15.375 0 
z
" id="ArialMT-6e"/>
      <path d="M 25.78125 7.859375 
L 27.046875 0.09375 
Q 23.34375 -0.6875 20.40625 -0.6875 
Q 15.625 -0.6875 12.984375 0.828125 
Q 10.359375 2.34375 9.28125 4.8125 
Q 8.203125 7.28125 8.203125 15.1875 
L 8.203125 45.015625 
L 1.765625 45.015625 
L 1.765625 51.859375 
L 8.203125 51.859375 
L 8.203125 64.703125 
L 16.9375 69.96875 
L 16.9375 51.859375 
L 25.78125 51.859375 
L 25.78125 45.015625 
L 16.9375 45.015625 
L 16.9375 14.703125 
Q 16.9375 10.9375 17.40625 9.859375 
Q 17.875 8.796875 18.921875 8.15625 
Q 19.96875 7.515625 21.921875 7.515625 
Q 23.390625 7.515625 25.78125 7.859375 
z
" id="ArialMT-74"/>
     </defs>
     <g style="fill:#262626;" transform="translate(19.5225 175.621406)rotate(-90)scale(0.1 -0.1)">
      <use xlink:href="#ArialMT-43"/>
      <use x="72.216797" xlink:href="#ArialMT-6f"/>
      <use x="127.832031" xlink:href="#ArialMT-75"/>
      <use x="183.447266" xlink:href="#ArialMT-6e"/>
      <use x="239.0625" xlink:href="#ArialMT-74"/>
     </g>
    </g>
   </g>
  </g>
 </g>
 <defs>
  <clipPath id="pdd81e69097">
   <rect height="136.77" width="116.398333" x="42.91" y="14.04"/>
  </clipPath>
  <clipPath id="p8d1ed02574">
   <rect height="136.77" width="116.398333" x="184.768333" y="14.04"/>
  </clipPath>
  <clipPath id="pa34b1d12d2">
   <rect height="136.77" width="116.398333" x="326.626667" y="14.04"/>
  </clipPath>
  <clipPath id="pa3cb4accdd">
   <rect height="136.77" width="116.398333" x="42.91" y="173.75"/>
  </clipPath>
  <clipPath id="p0af73a96a6">
   <rect height="136.77" width="116.398333" x="184.768333" y="173.75"/>
  </clipPath>
  <clipPath id="pcb9b8bec2c">
   <rect height="136.77" width="116.398333" x="326.626667" y="173.75"/>
  </clipPath>
 </defs>
</svg>
