<?xml version="1.0" encoding="utf-8" standalone="no"?>
<!DOCTYPE svg PUBLIC "-//W3C//DTD SVG 1.1//EN"
  "http://www.w3.org/Graphics/SVG/1.1/DTD/svg11.dtd">
<!-- Created with matplotlib (http://matplotlib.org/) -->
<svg height="345pt" version="1.1" viewBox="0 0 460 345" width="460pt" xmlns="http://www.w3.org/2000/svg" xmlns:xlink="http://www.w3.org/1999/xlink">
 <defs>
  <style type="text/css">
*{stroke-linecap:butt;stroke-linejoin:round;}
  </style>
 </defs>
 <g id="figure_1">
  <g id="patch_1">
   <path d="M 0 345.6 
L 460.8 345.6 
L 460.8 0 
L 0 0 
z
" style="fill:#ffffff;"/>
  </g>
  <g id="axes_1">
   <g id="patch_2">
    <path d="M 42.91 310.52 
L 443.025 310.52 
L 443.025 14.04 
L 42.91 14.04 
z
" style="fill:#ffffff;"/>
   </g>
   <g id="matplotlib.axis_1">
    <g id="xtick_1">
     <g id="line2d_1"/>
     <g id="text_1">
      <!-- 0 -->
      <defs>
       <path d="M 4.15625 35.296875 
Q 4.15625 48 6.765625 55.734375 
Q 9.375 63.484375 14.515625 67.671875 
Q 19.671875 71.875 27.484375 71.875 
Q 33.25 71.875 37.59375 69.546875 
Q 41.9375 67.234375 44.765625 62.859375 
Q 47.609375 58.5 49.21875 52.21875 
Q 50.828125 45.953125 50.828125 35.296875 
Q 50.828125 22.703125 48.234375 14.96875 
Q 45.65625 7.234375 40.5 3 
Q 35.359375 -1.21875 27.484375 -1.21875 
Q 17.140625 -1.21875 11.234375 6.203125 
Q 4.15625 15.140625 4.15625 35.296875 
z
M 13.1875 35.296875 
Q 13.1875 17.671875 17.3125 11.828125 
Q 21.4375 6 27.484375 6 
Q 33.546875 6 37.671875 11.859375 
Q 41.796875 17.71875 41.796875 35.296875 
Q 41.796875 52.984375 37.671875 58.78125 
Q 33.546875 64.59375 27.390625 64.59375 
Q 21.34375 64.59375 17.71875 59.46875 
Q 13.1875 52.9375 13.1875 35.296875 
z
" id="ArialMT-30"/>
      </defs>
      <g style="fill:#262626;" transform="translate(58.316577 321.177812)scale(0.1 -0.1)">
       <use xlink:href="#ArialMT-30"/>
      </g>
     </g>
    </g>
    <g id="xtick_2">
     <g id="line2d_2"/>
     <g id="text_2">
      <!-- 2 -->
      <defs>
       <path d="M 50.34375 8.453125 
L 50.34375 0 
L 3.03125 0 
Q 2.9375 3.171875 4.046875 6.109375 
Q 5.859375 10.9375 9.828125 15.625 
Q 13.8125 20.3125 21.34375 26.46875 
Q 33.015625 36.03125 37.109375 41.625 
Q 41.21875 47.21875 41.21875 52.203125 
Q 41.21875 57.421875 37.46875 61 
Q 33.734375 64.59375 27.734375 64.59375 
Q 21.390625 64.59375 17.578125 60.78125 
Q 13.765625 56.984375 13.71875 50.25 
L 4.6875 51.171875 
Q 5.609375 61.28125 11.65625 66.578125 
Q 17.71875 71.875 27.9375 71.875 
Q 38.234375 71.875 44.234375 66.15625 
Q 50.25 60.453125 50.25 52 
Q 50.25 47.703125 48.484375 43.546875 
Q 46.734375 39.40625 42.65625 34.8125 
Q 38.578125 30.21875 29.109375 22.21875 
Q 21.1875 15.578125 18.9375 13.203125 
Q 16.703125 10.84375 15.234375 8.453125 
z
" id="ArialMT-32"/>
      </defs>
      <g style="fill:#262626;" transform="translate(135.504795 321.177812)scale(0.1 -0.1)">
       <use xlink:href="#ArialMT-32"/>
      </g>
     </g>
    </g>
    <g id="xtick_3">
     <g id="line2d_3"/>
     <g id="text_3">
      <!-- 4 -->
      <defs>
       <path d="M 32.328125 0 
L 32.328125 17.140625 
L 1.265625 17.140625 
L 1.265625 25.203125 
L 33.9375 71.578125 
L 41.109375 71.578125 
L 41.109375 25.203125 
L 50.78125 25.203125 
L 50.78125 17.140625 
L 41.109375 17.140625 
L 41.109375 0 
z
M 32.328125 25.203125 
L 32.328125 57.46875 
L 9.90625 25.203125 
z
" id="ArialMT-34"/>
      </defs>
      <g style="fill:#262626;" transform="translate(212.693013 321.177812)scale(0.1 -0.1)">
       <use xlink:href="#ArialMT-34"/>
      </g>
     </g>
    </g>
    <g id="xtick_4">
     <g id="line2d_4"/>
     <g id="text_4">
      <!-- 6 -->
      <defs>
       <path d="M 49.75 54.046875 
L 41.015625 53.375 
Q 39.84375 58.546875 37.703125 60.890625 
Q 34.125 64.65625 28.90625 64.65625 
Q 24.703125 64.65625 21.53125 62.3125 
Q 17.390625 59.28125 14.984375 53.46875 
Q 12.59375 47.65625 12.5 36.921875 
Q 15.671875 41.75 20.265625 44.09375 
Q 24.859375 46.4375 29.890625 46.4375 
Q 38.671875 46.4375 44.84375 39.96875 
Q 51.03125 33.5 51.03125 23.25 
Q 51.03125 16.5 48.125 10.71875 
Q 45.21875 4.9375 40.140625 1.859375 
Q 35.0625 -1.21875 28.609375 -1.21875 
Q 17.625 -1.21875 10.6875 6.859375 
Q 3.765625 14.9375 3.765625 33.5 
Q 3.765625 54.25 11.421875 63.671875 
Q 18.109375 71.875 29.4375 71.875 
Q 37.890625 71.875 43.28125 67.140625 
Q 48.6875 62.40625 49.75 54.046875 
z
M 13.875 23.1875 
Q 13.875 18.65625 15.796875 14.5 
Q 17.71875 10.359375 21.1875 8.171875 
Q 24.65625 6 28.46875 6 
Q 34.03125 6 38.03125 10.484375 
Q 42.046875 14.984375 42.046875 22.703125 
Q 42.046875 30.125 38.078125 34.390625 
Q 34.125 38.671875 28.125 38.671875 
Q 22.171875 38.671875 18.015625 34.390625 
Q 13.875 30.125 13.875 23.1875 
z
" id="ArialMT-36"/>
      </defs>
      <g style="fill:#262626;" transform="translate(289.881231 321.177812)scale(0.1 -0.1)">
       <use xlink:href="#ArialMT-36"/>
      </g>
     </g>
    </g>
    <g id="xtick_5">
     <g id="line2d_5"/>
     <g id="text_5">
      <!-- 8 -->
      <defs>
       <path d="M 17.671875 38.8125 
Q 12.203125 40.828125 9.5625 44.53125 
Q 6.9375 48.25 6.9375 53.421875 
Q 6.9375 61.234375 12.546875 66.546875 
Q 18.171875 71.875 27.484375 71.875 
Q 36.859375 71.875 42.578125 66.421875 
Q 48.296875 60.984375 48.296875 53.171875 
Q 48.296875 48.1875 45.671875 44.5 
Q 43.0625 40.828125 37.75 38.8125 
Q 44.34375 36.671875 47.78125 31.875 
Q 51.21875 27.09375 51.21875 20.453125 
Q 51.21875 11.28125 44.71875 5.03125 
Q 38.234375 -1.21875 27.640625 -1.21875 
Q 17.046875 -1.21875 10.546875 5.046875 
Q 4.046875 11.328125 4.046875 20.703125 
Q 4.046875 27.6875 7.59375 32.390625 
Q 11.140625 37.109375 17.671875 38.8125 
z
M 15.921875 53.71875 
Q 15.921875 48.640625 19.1875 45.40625 
Q 22.46875 42.1875 27.6875 42.1875 
Q 32.765625 42.1875 36.015625 45.375 
Q 39.265625 48.578125 39.265625 53.21875 
Q 39.265625 58.0625 35.90625 61.359375 
Q 32.5625 64.65625 27.59375 64.65625 
Q 22.5625 64.65625 19.234375 61.421875 
Q 15.921875 58.203125 15.921875 53.71875 
z
M 13.09375 20.65625 
Q 13.09375 16.890625 14.875 13.375 
Q 16.65625 9.859375 20.171875 7.921875 
Q 23.6875 6 27.734375 6 
Q 34.03125 6 38.125 10.046875 
Q 42.234375 14.109375 42.234375 20.359375 
Q 42.234375 26.703125 38.015625 30.859375 
Q 33.796875 35.015625 27.4375 35.015625 
Q 21.234375 35.015625 17.15625 30.90625 
Q 13.09375 26.8125 13.09375 20.65625 
z
" id="ArialMT-38"/>
      </defs>
      <g style="fill:#262626;" transform="translate(367.06945 321.177812)scale(0.1 -0.1)">
       <use xlink:href="#ArialMT-38"/>
      </g>
     </g>
    </g>
    <g id="text_6">
     <!-- $x$ -->
     <defs>
      <path d="M 60.015625 54.6875 
L 34.90625 27.875 
L 50.296875 0 
L 39.984375 0 
L 28.421875 21.6875 
L 8.296875 0 
L -2.59375 0 
L 24.3125 28.8125 
L 10.015625 54.6875 
L 20.3125 54.6875 
L 30.8125 34.90625 
L 49.125 54.6875 
z
" id="DejaVuSans-Oblique-78"/>
     </defs>
     <g style="fill:#262626;" transform="translate(239.9675 334.323125)scale(0.1 -0.1)">
      <use transform="translate(0 0.3125)" xlink:href="#DejaVuSans-Oblique-78"/>
     </g>
    </g>
   </g>
   <g id="matplotlib.axis_2">
    <g id="ytick_1">
     <g id="line2d_6"/>
     <g id="text_7">
      <!-- 0.00 -->
      <defs>
       <path d="M 9.078125 0 
L 9.078125 10.015625 
L 19.09375 10.015625 
L 19.09375 0 
z
" id="ArialMT-2e"/>
      </defs>
      <g style="fill:#262626;" transform="translate(19.949063 300.622543)scale(0.1 -0.1)">
       <use xlink:href="#ArialMT-30"/>
       <use x="55.615234" xlink:href="#ArialMT-2e"/>
       <use x="83.398438" xlink:href="#ArialMT-30"/>
       <use x="139.013672" xlink:href="#ArialMT-30"/>
      </g>
     </g>
    </g>
    <g id="ytick_2">
     <g id="line2d_7"/>
     <g id="text_8">
      <!-- 0.05 -->
      <defs>
       <path d="M 4.15625 18.75 
L 13.375 19.53125 
Q 14.40625 12.796875 18.140625 9.390625 
Q 21.875 6 27.15625 6 
Q 33.5 6 37.890625 10.78125 
Q 42.28125 15.578125 42.28125 23.484375 
Q 42.28125 31 38.0625 35.34375 
Q 33.84375 39.703125 27 39.703125 
Q 22.75 39.703125 19.328125 37.765625 
Q 15.921875 35.84375 13.96875 32.765625 
L 5.71875 33.84375 
L 12.640625 70.609375 
L 48.25 70.609375 
L 48.25 62.203125 
L 19.671875 62.203125 
L 15.828125 42.96875 
Q 22.265625 47.46875 29.34375 47.46875 
Q 38.71875 47.46875 45.15625 40.96875 
Q 51.609375 34.46875 51.609375 24.265625 
Q 51.609375 14.546875 45.953125 7.46875 
Q 39.0625 -1.21875 27.15625 -1.21875 
Q 17.390625 -1.21875 11.203125 4.25 
Q 5.03125 9.71875 4.15625 18.75 
z
" id="ArialMT-35"/>
      </defs>
      <g style="fill:#262626;" transform="translate(19.949063 262.671689)scale(0.1 -0.1)">
       <use xlink:href="#ArialMT-30"/>
       <use x="55.615234" xlink:href="#ArialMT-2e"/>
       <use x="83.398438" xlink:href="#ArialMT-30"/>
       <use x="139.013672" xlink:href="#ArialMT-35"/>
      </g>
     </g>
    </g>
    <g id="ytick_3">
     <g id="line2d_8"/>
     <g id="text_9">
      <!-- 0.10 -->
      <defs>
       <path d="M 37.25 0 
L 28.46875 0 
L 28.46875 56 
Q 25.296875 52.984375 20.140625 49.953125 
Q 14.984375 46.921875 10.890625 45.40625 
L 10.890625 53.90625 
Q 18.265625 57.375 23.78125 62.296875 
Q 29.296875 67.234375 31.59375 71.875 
L 37.25 71.875 
z
" id="ArialMT-31"/>
      </defs>
      <g style="fill:#262626;" transform="translate(19.949063 224.720836)scale(0.1 -0.1)">
       <use xlink:href="#ArialMT-30"/>
       <use x="55.615234" xlink:href="#ArialMT-2e"/>
       <use x="83.398438" xlink:href="#ArialMT-31"/>
       <use x="139.013672" xlink:href="#ArialMT-30"/>
      </g>
     </g>
    </g>
    <g id="ytick_4">
     <g id="line2d_9"/>
     <g id="text_10">
      <!-- 0.15 -->
      <g style="fill:#262626;" transform="translate(19.949063 186.769983)scale(0.1 -0.1)">
       <use xlink:href="#ArialMT-30"/>
       <use x="55.615234" xlink:href="#ArialMT-2e"/>
       <use x="83.398438" xlink:href="#ArialMT-31"/>
       <use x="139.013672" xlink:href="#ArialMT-35"/>
      </g>
     </g>
    </g>
    <g id="ytick_5">
     <g id="line2d_10"/>
     <g id="text_11">
      <!-- 0.20 -->
      <g style="fill:#262626;" transform="translate(19.949063 148.819129)scale(0.1 -0.1)">
       <use xlink:href="#ArialMT-30"/>
       <use x="55.615234" xlink:href="#ArialMT-2e"/>
       <use x="83.398438" xlink:href="#ArialMT-32"/>
       <use x="139.013672" xlink:href="#ArialMT-30"/>
      </g>
     </g>
    </g>
    <g id="ytick_6">
     <g id="line2d_11"/>
     <g id="text_12">
      <!-- 0.25 -->
      <g style="fill:#262626;" transform="translate(19.949063 110.868276)scale(0.1 -0.1)">
       <use xlink:href="#ArialMT-30"/>
       <use x="55.615234" xlink:href="#ArialMT-2e"/>
       <use x="83.398438" xlink:href="#ArialMT-32"/>
       <use x="139.013672" xlink:href="#ArialMT-35"/>
      </g>
     </g>
    </g>
    <g id="ytick_7">
     <g id="line2d_12"/>
     <g id="text_13">
      <!-- 0.30 -->
      <defs>
       <path d="M 4.203125 18.890625 
L 12.984375 20.0625 
Q 14.5 12.59375 18.140625 9.296875 
Q 21.78125 6 27 6 
Q 33.203125 6 37.46875 10.296875 
Q 41.75 14.59375 41.75 20.953125 
Q 41.75 27 37.796875 30.921875 
Q 33.84375 34.859375 27.734375 34.859375 
Q 25.25 34.859375 21.53125 33.890625 
L 22.515625 41.609375 
Q 23.390625 41.5 23.921875 41.5 
Q 29.546875 41.5 34.03125 44.421875 
Q 38.53125 47.359375 38.53125 53.46875 
Q 38.53125 58.296875 35.25 61.46875 
Q 31.984375 64.65625 26.8125 64.65625 
Q 21.6875 64.65625 18.265625 61.421875 
Q 14.84375 58.203125 13.875 51.765625 
L 5.078125 53.328125 
Q 6.6875 62.15625 12.390625 67.015625 
Q 18.109375 71.875 26.609375 71.875 
Q 32.46875 71.875 37.390625 69.359375 
Q 42.328125 66.84375 44.9375 62.5 
Q 47.5625 58.15625 47.5625 53.265625 
Q 47.5625 48.640625 45.0625 44.828125 
Q 42.578125 41.015625 37.703125 38.765625 
Q 44.046875 37.3125 47.5625 32.6875 
Q 51.078125 28.078125 51.078125 21.140625 
Q 51.078125 11.765625 44.234375 5.25 
Q 37.40625 -1.265625 26.953125 -1.265625 
Q 17.53125 -1.265625 11.296875 4.34375 
Q 5.078125 9.96875 4.203125 18.890625 
z
" id="ArialMT-33"/>
      </defs>
      <g style="fill:#262626;" transform="translate(19.949063 72.917423)scale(0.1 -0.1)">
       <use xlink:href="#ArialMT-30"/>
       <use x="55.615234" xlink:href="#ArialMT-2e"/>
       <use x="83.398438" xlink:href="#ArialMT-33"/>
       <use x="139.013672" xlink:href="#ArialMT-30"/>
      </g>
     </g>
    </g>
    <g id="ytick_8">
     <g id="line2d_13"/>
     <g id="text_14">
      <!-- 0.35 -->
      <g style="fill:#262626;" transform="translate(19.949063 34.96657)scale(0.1 -0.1)">
       <use xlink:href="#ArialMT-30"/>
       <use x="55.615234" xlink:href="#ArialMT-2e"/>
       <use x="83.398438" xlink:href="#ArialMT-33"/>
       <use x="139.013672" xlink:href="#ArialMT-35"/>
      </g>
     </g>
    </g>
    <g id="text_15">
     <!-- $\rho(x)$ -->
     <defs>
      <path d="M 18.796875 44.921875 
Q 22.703125 49.90625 30.953125 54.296875 
Q 34.1875 56 43.0625 56 
Q 53.03125 56 57.71875 48.09375 
Q 62.40625 40.1875 59.90625 27.296875 
Q 57.375 14.40625 49.609375 6.484375 
Q 41.84375 -1.421875 31.890625 -1.421875 
Q 25.875 -1.421875 22.015625 0.984375 
Q 18.171875 3.328125 16.3125 8.203125 
L 10.640625 -20.796875 
L 1.609375 -20.796875 
L 10.890625 26.8125 
Q 13.09375 38.09375 18.796875 44.921875 
z
M 50.59375 27.296875 
Q 52.484375 37.203125 49.515625 42.875 
Q 46.53125 48.484375 39.40625 48.484375 
Q 32.28125 48.484375 27.09375 42.875 
Q 21.921875 37.203125 20.015625 27.296875 
Q 18.0625 17.390625 21.046875 11.71875 
Q 24.03125 6.109375 31.15625 6.109375 
Q 38.28125 6.109375 43.453125 11.71875 
Q 48.640625 17.390625 50.59375 27.296875 
z
" id="DejaVuSans-Oblique-3c1"/>
      <path d="M 31 75.875 
Q 24.46875 64.65625 21.28125 53.65625 
Q 18.109375 42.671875 18.109375 31.390625 
Q 18.109375 20.125 21.3125 9.0625 
Q 24.515625 -2 31 -13.1875 
L 23.1875 -13.1875 
Q 15.875 -1.703125 12.234375 9.375 
Q 8.59375 20.453125 8.59375 31.390625 
Q 8.59375 42.28125 12.203125 53.3125 
Q 15.828125 64.359375 23.1875 75.875 
z
" id="DejaVuSans-28"/>
      <path d="M 8.015625 75.875 
L 15.828125 75.875 
Q 23.140625 64.359375 26.78125 53.3125 
Q 30.421875 42.28125 30.421875 31.390625 
Q 30.421875 20.453125 26.78125 9.375 
Q 23.140625 -1.703125 15.828125 -13.1875 
L 8.015625 -13.1875 
Q 14.5 -2 17.703125 9.0625 
Q 20.90625 20.125 20.90625 31.390625 
Q 20.90625 42.671875 17.703125 53.65625 
Q 14.5 64.65625 8.015625 75.875 
z
" id="DejaVuSans-29"/>
     </defs>
     <g style="fill:#262626;" transform="translate(13.849063 172.33)rotate(-90)scale(0.1 -0.1)">
      <use transform="translate(0 0.125)" xlink:href="#DejaVuSans-Oblique-3c1"/>
      <use transform="translate(63.476562 0.125)" xlink:href="#DejaVuSans-28"/>
      <use transform="translate(102.490234 0.125)" xlink:href="#DejaVuSans-Oblique-78"/>
      <use transform="translate(161.669922 0.125)" xlink:href="#DejaVuSans-29"/>
     </g>
    </g>
   </g>
   <g id="line2d_14">
    <path clip-path="url(#p16110fcb53)" d="M 61.097045 297.043636 
L 66.558621 296.947418 
L 69.835566 296.653618 
L 72.384301 296.212727 
L 74.933036 295.535116 
L 77.117666 294.736068 
L 79.302296 293.714419 
L 81.486926 292.455238 
L 83.671556 290.948898 
L 85.856186 289.191376 
L 88.404922 286.82615 
L 90.953657 284.134596 
L 93.866497 280.689854 
L 96.779337 276.902252 
L 100.420387 271.791525 
L 106.246067 263.149656 
L 111.707642 255.171646 
L 114.984588 250.758713 
L 117.533323 247.648459 
L 120.082058 244.899323 
L 122.266688 242.881321 
L 124.087213 241.467691 
L 125.907738 240.318852 
L 127.728263 239.451969 
L 129.184683 238.971227 
L 130.641103 238.686151 
L 132.097523 238.60138 
L 133.553943 238.720164 
L 135.010363 239.044313 
L 136.466783 239.574147 
L 137.923203 240.308462 
L 139.743729 241.509571 
L 141.564254 243.01697 
L 143.384779 244.818048 
L 145.569409 247.343673 
L 147.754039 250.23313 
L 150.302774 254.006808 
L 153.215614 258.752374 
L 156.856664 265.131278 
L 165.95929 281.287359 
L 168.87213 285.878347 
L 171.05676 288.948972 
L 173.24139 291.620519 
L 175.061915 293.492801 
L 176.88244 295.003802 
L 178.33886 295.929424 
L 179.79528 296.585844 
L 181.2517 296.958419 
L 182.344015 297.043636 
L 183.43633 296.95687 
L 184.528645 296.693752 
L 185.62096 296.25049 
L 187.07738 295.373814 
L 188.5338 294.165408 
L 189.99022 292.621436 
L 191.446641 290.740143 
L 192.903061 288.52191 
L 194.723586 285.279394 
L 196.544111 281.524358 
L 198.364636 277.271971 
L 200.549266 271.541834 
L 202.733896 265.170655 
L 205.282631 257.00244 
L 208.195471 246.828755 
L 211.472416 234.536556 
L 216.205781 215.795388 
L 223.851987 185.465785 
L 227.128932 173.407272 
L 229.677667 164.759466 
L 232.226402 156.92671 
L 234.411032 150.974676 
L 236.231557 146.617635 
L 238.052082 142.856782 
L 239.508502 140.30438 
L 240.964922 138.177237 
L 242.421342 136.491058 
L 243.513658 135.523874 
L 244.605973 134.816885 
L 245.698288 134.373899 
L 246.790603 134.197863 
L 247.882918 134.290846 
L 248.975233 134.654018 
L 250.067548 135.28764 
L 251.159863 136.191055 
L 252.252178 137.362677 
L 253.708598 139.337564 
L 255.165018 141.776137 
L 256.621438 144.66692 
L 258.077858 147.995535 
L 259.898383 152.745489 
L 261.718908 158.112678 
L 263.903538 165.302453 
L 266.452273 174.606288 
L 269.365114 186.242103 
L 273.006164 201.880124 
L 285.021629 254.569351 
L 287.570364 264.423011 
L 289.754994 272.113356 
L 291.939624 278.970182 
L 293.760149 283.96082 
L 295.21657 287.433576 
L 296.67299 290.411685 
L 298.12941 292.86775 
L 299.221725 294.352286 
L 300.31404 295.51996 
L 301.406355 296.362446 
L 302.49867 296.872427 
L 303.590985 297.043636 
L 304.319195 296.966958 
L 305.047405 296.736115 
L 306.13972 296.098562 
L 307.232035 295.109246 
L 308.32435 293.76673 
L 309.416665 292.070738 
L 310.50898 290.022174 
L 311.9654 286.746076 
L 313.42182 282.85523 
L 314.87824 278.36158 
L 316.698765 271.921009 
L 318.51929 264.601826 
L 320.703921 254.726113 
L 322.888551 243.751001 
L 325.437286 229.7096 
L 328.350126 212.285412 
L 331.991176 188.951986 
L 338.180961 147.368025 
L 343.278431 113.741272 
L 346.555377 93.571471 
L 349.104112 79.119333 
L 351.288742 67.808853 
L 353.473372 57.652377 
L 355.293897 50.170085 
L 357.114422 43.657076 
L 358.570842 39.187757 
L 360.027262 35.408536 
L 361.483682 32.344359 
L 362.575997 30.528259 
L 363.668312 29.133611 
L 364.760627 28.166427 
L 365.488837 27.761468 
L 366.217047 27.549622 
L 366.945257 27.531645 
L 367.673467 27.708015 
L 368.401677 28.078929 
L 369.129887 28.644298 
L 370.222202 29.856066 
L 371.314517 31.502001 
L 372.406833 33.578202 
L 373.499148 36.079325 
L 374.955568 40.063231 
L 376.411988 44.770363 
L 377.868408 50.176331 
L 379.688933 57.872406 
L 381.509458 66.55008 
L 383.694088 78.152912 
L 386.242823 93.142597 
L 389.155663 111.866211 
L 392.796713 137.016897 
L 405.540389 226.925649 
L 408.089124 242.71141 
L 410.273754 255.057056 
L 412.458384 266.110411 
L 414.278909 274.209177 
L 416.099434 281.19912 
L 417.555854 285.93735 
L 419.012274 289.875955 
L 420.104589 292.285124 
L 421.196904 294.213589 
L 422.289219 295.6506 
L 423.017429 296.330963 
L 423.74564 296.786436 
L 424.47385 297.014994 
L 424.837955 297.043636 
L 424.837955 297.043636 
" style="fill:none;stroke:#1f77b4;stroke-linecap:round;stroke-width:1.5;"/>
   </g>
   <g id="line2d_15">
    <path clip-path="url(#p16110fcb53)" d="M 324.575825 310.52 
L 324.575825 295.696 
" style="fill:none;stroke:#1f77b4;stroke-linecap:round;"/>
   </g>
   <g id="line2d_16">
    <path clip-path="url(#p16110fcb53)" d="M 339.974426 310.52 
L 339.974426 295.696 
" style="fill:none;stroke:#1f77b4;stroke-linecap:round;"/>
   </g>
   <g id="line2d_17">
    <path clip-path="url(#p16110fcb53)" d="M 332.240993 310.52 
L 332.240993 295.696 
" style="fill:none;stroke:#1f77b4;stroke-linecap:round;"/>
   </g>
   <g id="line2d_18">
    <path clip-path="url(#p16110fcb53)" d="M 368.604912 310.52 
L 368.604912 295.696 
" style="fill:none;stroke:#1f77b4;stroke-linecap:round;"/>
   </g>
   <g id="line2d_19">
    <path clip-path="url(#p16110fcb53)" d="M 358.919228 310.52 
L 358.919228 295.696 
" style="fill:none;stroke:#1f77b4;stroke-linecap:round;"/>
   </g>
   <g id="line2d_20">
    <path clip-path="url(#p16110fcb53)" d="M 245.446198 310.52 
L 245.446198 295.696 
" style="fill:none;stroke:#1f77b4;stroke-linecap:round;"/>
   </g>
   <g id="line2d_21">
    <path clip-path="url(#p16110fcb53)" d="M 391.857676 310.52 
L 391.857676 295.696 
" style="fill:none;stroke:#1f77b4;stroke-linecap:round;"/>
   </g>
   <g id="line2d_22">
    <path clip-path="url(#p16110fcb53)" d="M 382.218654 310.52 
L 382.218654 295.696 
" style="fill:none;stroke:#1f77b4;stroke-linecap:round;"/>
   </g>
   <g id="line2d_23">
    <path clip-path="url(#p16110fcb53)" d="M 345.464838 310.52 
L 345.464838 295.696 
" style="fill:none;stroke:#1f77b4;stroke-linecap:round;"/>
   </g>
   <g id="line2d_24">
    <path clip-path="url(#p16110fcb53)" d="M 388.550874 310.52 
L 388.550874 295.696 
" style="fill:none;stroke:#1f77b4;stroke-linecap:round;"/>
   </g>
   <g id="line2d_25">
    <path clip-path="url(#p16110fcb53)" d="M 359.701769 310.52 
L 359.701769 295.696 
" style="fill:none;stroke:#1f77b4;stroke-linecap:round;"/>
   </g>
   <g id="line2d_26">
    <path clip-path="url(#p16110fcb53)" d="M 350.147204 310.52 
L 350.147204 295.696 
" style="fill:none;stroke:#1f77b4;stroke-linecap:round;"/>
   </g>
   <g id="line2d_27">
    <path clip-path="url(#p16110fcb53)" d="M 380.114327 310.52 
L 380.114327 295.696 
" style="fill:none;stroke:#1f77b4;stroke-linecap:round;"/>
   </g>
   <g id="line2d_28">
    <path clip-path="url(#p16110fcb53)" d="M 139.341523 310.52 
L 139.341523 295.696 
" style="fill:none;stroke:#1f77b4;stroke-linecap:round;"/>
   </g>
   <g id="line2d_29">
    <path clip-path="url(#p16110fcb53)" d="M 135.625827 310.52 
L 135.625827 295.696 
" style="fill:none;stroke:#1f77b4;stroke-linecap:round;"/>
   </g>
   <g id="line2d_30">
    <path clip-path="url(#p16110fcb53)" d="M 338.640948 310.52 
L 338.640948 295.696 
" style="fill:none;stroke:#1f77b4;stroke-linecap:round;"/>
   </g>
   <g id="line2d_31">
    <path clip-path="url(#p16110fcb53)" d="M 271.764688 310.52 
L 271.764688 295.696 
" style="fill:none;stroke:#1f77b4;stroke-linecap:round;"/>
   </g>
   <g id="line2d_32">
    <path clip-path="url(#p16110fcb53)" d="M 260.504877 310.52 
L 260.504877 295.696 
" style="fill:none;stroke:#1f77b4;stroke-linecap:round;"/>
   </g>
   <g id="line2d_33">
    <path clip-path="url(#p16110fcb53)" d="M 253.621512 310.52 
L 253.621512 295.696 
" style="fill:none;stroke:#1f77b4;stroke-linecap:round;"/>
   </g>
   <g id="line2d_34">
    <path clip-path="url(#p16110fcb53)" d="M 245.805251 310.52 
L 245.805251 295.696 
" style="fill:none;stroke:#1f77b4;stroke-linecap:round;"/>
   </g>
   <g id="line2d_35">
    <path clip-path="url(#p16110fcb53)" d="M 374.60942 310.52 
L 374.60942 295.696 
" style="fill:none;stroke:#1f77b4;stroke-linecap:round;"/>
   </g>
   <g id="line2d_36">
    <path clip-path="url(#p16110fcb53)" d="M 350.841275 310.52 
L 350.841275 295.696 
" style="fill:none;stroke:#1f77b4;stroke-linecap:round;"/>
   </g>
   <g id="line2d_37">
    <path clip-path="url(#p16110fcb53)" d="M 261.308188 310.52 
L 261.308188 295.696 
" style="fill:none;stroke:#1f77b4;stroke-linecap:round;"/>
   </g>
   <g id="line2d_38">
    <path clip-path="url(#p16110fcb53)" d="M 340.205855 310.52 
L 340.205855 295.696 
" style="fill:none;stroke:#1f77b4;stroke-linecap:round;"/>
   </g>
   <g id="line2d_39">
    <path clip-path="url(#p16110fcb53)" d="M 339.45094 310.52 
L 339.45094 295.696 
" style="fill:none;stroke:#1f77b4;stroke-linecap:round;"/>
   </g>
   <g id="line2d_40">
    <path clip-path="url(#p16110fcb53)" d="M 126.414523 310.52 
L 126.414523 295.696 
" style="fill:none;stroke:#1f77b4;stroke-linecap:round;"/>
   </g>
   <g id="line2d_41">
    <path clip-path="url(#p16110fcb53)" d="M 220.417396 310.52 
L 220.417396 295.696 
" style="fill:none;stroke:#1f77b4;stroke-linecap:round;"/>
   </g>
   <g id="line2d_42">
    <path clip-path="url(#p16110fcb53)" d="M 217.743859 310.52 
L 217.743859 295.696 
" style="fill:none;stroke:#1f77b4;stroke-linecap:round;"/>
   </g>
   <g id="line2d_43">
    <path clip-path="url(#p16110fcb53)" d="M 251.004086 310.52 
L 251.004086 295.696 
" style="fill:none;stroke:#1f77b4;stroke-linecap:round;"/>
   </g>
   <g id="line2d_44">
    <path clip-path="url(#p16110fcb53)" d="M 394.6071 310.52 
L 394.6071 295.696 
" style="fill:none;stroke:#1f77b4;stroke-linecap:round;"/>
   </g>
   <g id="line2d_45">
    <path clip-path="url(#p16110fcb53)" d="M 222.68082 310.52 
L 222.68082 295.696 
" style="fill:none;stroke:#1f77b4;stroke-linecap:round;"/>
   </g>
   <g id="line2d_46">
    <path clip-path="url(#p16110fcb53)" d="M 399.158435 310.52 
L 399.158435 295.696 
" style="fill:none;stroke:#1f77b4;stroke-linecap:round;"/>
   </g>
   <g id="line2d_47">
    <path clip-path="url(#p16110fcb53)" d="M 315.418493 310.52 
L 315.418493 295.696 
" style="fill:none;stroke:#1f77b4;stroke-linecap:round;"/>
   </g>
   <g id="line2d_48">
    <path clip-path="url(#p16110fcb53)" d="M 377.544444 310.52 
L 377.544444 295.696 
" style="fill:none;stroke:#1f77b4;stroke-linecap:round;"/>
   </g>
   <g id="line2d_49">
    <path clip-path="url(#p16110fcb53)" d="M 386.157884 310.52 
L 386.157884 295.696 
" style="fill:none;stroke:#1f77b4;stroke-linecap:round;"/>
   </g>
   <g id="line2d_50">
    <path clip-path="url(#p16110fcb53)" d="M 254.403249 310.52 
L 254.403249 295.696 
" style="fill:none;stroke:#1f77b4;stroke-linecap:round;"/>
   </g>
   <g id="line2d_51">
    <path clip-path="url(#p16110fcb53)" d="M 244.782225 310.52 
L 244.782225 295.696 
" style="fill:none;stroke:#1f77b4;stroke-linecap:round;"/>
   </g>
   <g id="line2d_52">
    <path clip-path="url(#p16110fcb53)" d="M 375.400092 310.52 
L 375.400092 295.696 
" style="fill:none;stroke:#1f77b4;stroke-linecap:round;"/>
   </g>
   <g id="line2d_53">
    <path clip-path="url(#p16110fcb53)" d="M 405.219346 310.52 
L 405.219346 295.696 
" style="fill:none;stroke:#1f77b4;stroke-linecap:round;"/>
   </g>
   <g id="line2d_54">
    <path clip-path="url(#p16110fcb53)" d="M 271.986316 310.52 
L 271.986316 295.696 
" style="fill:none;stroke:#1f77b4;stroke-linecap:round;"/>
   </g>
   <g id="line2d_55">
    <path clip-path="url(#p16110fcb53)" d="M 221.210091 310.52 
L 221.210091 295.696 
" style="fill:none;stroke:#1f77b4;stroke-linecap:round;"/>
   </g>
   <g id="line2d_56">
    <path clip-path="url(#p16110fcb53)" d="M 226.036436 310.52 
L 226.036436 295.696 
" style="fill:none;stroke:#1f77b4;stroke-linecap:round;"/>
   </g>
   <g id="line2d_57">
    <path clip-path="url(#p16110fcb53)" d="M 362.554373 310.52 
L 362.554373 295.696 
" style="fill:none;stroke:#1f77b4;stroke-linecap:round;"/>
   </g>
   <g id="line2d_58">
    <path clip-path="url(#p16110fcb53)" d="M 326.809185 310.52 
L 326.809185 295.696 
" style="fill:none;stroke:#1f77b4;stroke-linecap:round;"/>
   </g>
   <g id="line2d_59">
    <path clip-path="url(#p16110fcb53)" d="M 157.209534 310.52 
L 157.209534 295.696 
" style="fill:none;stroke:#1f77b4;stroke-linecap:round;"/>
   </g>
   <g id="line2d_60">
    <path clip-path="url(#p16110fcb53)" d="M 136.69184 310.52 
L 136.69184 295.696 
" style="fill:none;stroke:#1f77b4;stroke-linecap:round;"/>
   </g>
   <g id="line2d_61">
    <path clip-path="url(#p16110fcb53)" d="M 360.239529 310.52 
L 360.239529 295.696 
" style="fill:none;stroke:#1f77b4;stroke-linecap:round;"/>
   </g>
   <g id="line2d_62">
    <path clip-path="url(#p16110fcb53)" d="M 361.801175 310.52 
L 361.801175 295.696 
" style="fill:none;stroke:#1f77b4;stroke-linecap:round;"/>
   </g>
   <g id="line2d_63">
    <path clip-path="url(#p16110fcb53)" d="M 274.275893 310.52 
L 274.275893 295.696 
" style="fill:none;stroke:#1f77b4;stroke-linecap:round;"/>
   </g>
   <g id="line2d_64">
    <path clip-path="url(#p16110fcb53)" d="M 342.887184 310.52 
L 342.887184 295.696 
" style="fill:none;stroke:#1f77b4;stroke-linecap:round;"/>
   </g>
   <g id="line2d_65">
    <path clip-path="url(#p16110fcb53)" d="M 370.500534 310.52 
L 370.500534 295.696 
" style="fill:none;stroke:#1f77b4;stroke-linecap:round;"/>
   </g>
   <g id="line2d_66">
    <path clip-path="url(#p16110fcb53)" d="M 395.619622 310.52 
L 395.619622 295.696 
" style="fill:none;stroke:#1f77b4;stroke-linecap:round;"/>
   </g>
   <g id="line2d_67">
    <path clip-path="url(#p16110fcb53)" d="M 196.766645 310.52 
L 196.766645 295.696 
" style="fill:none;stroke:#1f77b4;stroke-linecap:round;"/>
   </g>
   <g id="line2d_68">
    <path clip-path="url(#p16110fcb53)" d="M 268.355595 310.52 
L 268.355595 295.696 
" style="fill:none;stroke:#1f77b4;stroke-linecap:round;"/>
   </g>
   <g id="line2d_69">
    <path clip-path="url(#p16110fcb53)" d="M 230.433364 310.52 
L 230.433364 295.696 
" style="fill:none;stroke:#1f77b4;stroke-linecap:round;"/>
   </g>
   <g id="line2d_70">
    <path clip-path="url(#p16110fcb53)" d="M 337.149573 310.52 
L 337.149573 295.696 
" style="fill:none;stroke:#1f77b4;stroke-linecap:round;"/>
   </g>
   <g id="line2d_71">
    <path clip-path="url(#p16110fcb53)" d="M 385.579863 310.52 
L 385.579863 295.696 
" style="fill:none;stroke:#1f77b4;stroke-linecap:round;"/>
   </g>
   <g id="line2d_72">
    <path clip-path="url(#p16110fcb53)" d="M 368.226382 310.52 
L 368.226382 295.696 
" style="fill:none;stroke:#1f77b4;stroke-linecap:round;"/>
   </g>
   <g id="line2d_73">
    <path clip-path="url(#p16110fcb53)" d="M 371.915585 310.52 
L 371.915585 295.696 
" style="fill:none;stroke:#1f77b4;stroke-linecap:round;"/>
   </g>
   <g id="line2d_74">
    <path clip-path="url(#p16110fcb53)" d="M 392.82868 310.52 
L 392.82868 295.696 
" style="fill:none;stroke:#1f77b4;stroke-linecap:round;"/>
   </g>
   <g id="line2d_75">
    <path clip-path="url(#p16110fcb53)" d="M 227.639708 310.52 
L 227.639708 295.696 
" style="fill:none;stroke:#1f77b4;stroke-linecap:round;"/>
   </g>
   <g id="line2d_76">
    <path clip-path="url(#p16110fcb53)" d="M 383.123433 310.52 
L 383.123433 295.696 
" style="fill:none;stroke:#1f77b4;stroke-linecap:round;"/>
   </g>
   <g id="line2d_77">
    <path clip-path="url(#p16110fcb53)" d="M 326.953795 310.52 
L 326.953795 295.696 
" style="fill:none;stroke:#1f77b4;stroke-linecap:round;"/>
   </g>
   <g id="line2d_78">
    <path clip-path="url(#p16110fcb53)" d="M 349.586289 310.52 
L 349.586289 295.696 
" style="fill:none;stroke:#1f77b4;stroke-linecap:round;"/>
   </g>
   <g id="line2d_79">
    <path clip-path="url(#p16110fcb53)" d="M 407.654124 310.52 
L 407.654124 295.696 
" style="fill:none;stroke:#1f77b4;stroke-linecap:round;"/>
   </g>
   <g id="line2d_80">
    <path clip-path="url(#p16110fcb53)" d="M 395.231978 310.52 
L 395.231978 295.696 
" style="fill:none;stroke:#1f77b4;stroke-linecap:round;"/>
   </g>
   <g id="line2d_81">
    <path clip-path="url(#p16110fcb53)" d="M 377.456165 310.52 
L 377.456165 295.696 
" style="fill:none;stroke:#1f77b4;stroke-linecap:round;"/>
   </g>
   <g id="line2d_82">
    <path clip-path="url(#p16110fcb53)" d="M 347.935489 310.52 
L 347.935489 295.696 
" style="fill:none;stroke:#1f77b4;stroke-linecap:round;"/>
   </g>
   <g id="line2d_83">
    <path clip-path="url(#p16110fcb53)" d="M 328.964303 310.52 
L 328.964303 295.696 
" style="fill:none;stroke:#1f77b4;stroke-linecap:round;"/>
   </g>
   <g id="line2d_84">
    <path clip-path="url(#p16110fcb53)" d="M 337.953869 310.52 
L 337.953869 295.696 
" style="fill:none;stroke:#1f77b4;stroke-linecap:round;"/>
   </g>
   <g id="line2d_85">
    <path clip-path="url(#p16110fcb53)" d="M 261.747991 310.52 
L 261.747991 295.696 
" style="fill:none;stroke:#1f77b4;stroke-linecap:round;"/>
   </g>
   <g id="line2d_86">
    <path clip-path="url(#p16110fcb53)" d="M 340.019833 310.52 
L 340.019833 295.696 
" style="fill:none;stroke:#1f77b4;stroke-linecap:round;"/>
   </g>
   <g id="line2d_87">
    <path clip-path="url(#p16110fcb53)" d="M 237.25356 310.52 
L 237.25356 295.696 
" style="fill:none;stroke:#1f77b4;stroke-linecap:round;"/>
   </g>
   <g id="line2d_88">
    <path clip-path="url(#p16110fcb53)" d="M 105.77772 310.52 
L 105.77772 295.696 
" style="fill:none;stroke:#1f77b4;stroke-linecap:round;"/>
   </g>
   <g id="line2d_89">
    <path clip-path="url(#p16110fcb53)" d="M 369.573847 310.52 
L 369.573847 295.696 
" style="fill:none;stroke:#1f77b4;stroke-linecap:round;"/>
   </g>
   <g id="line2d_90">
    <path clip-path="url(#p16110fcb53)" d="M 144.503841 310.52 
L 144.503841 295.696 
" style="fill:none;stroke:#1f77b4;stroke-linecap:round;"/>
   </g>
   <g id="line2d_91">
    <path clip-path="url(#p16110fcb53)" d="M 389.000316 310.52 
L 389.000316 295.696 
" style="fill:none;stroke:#1f77b4;stroke-linecap:round;"/>
   </g>
   <g id="line2d_92">
    <path clip-path="url(#p16110fcb53)" d="M 361.438896 310.52 
L 361.438896 295.696 
" style="fill:none;stroke:#1f77b4;stroke-linecap:round;"/>
   </g>
   <g id="line2d_93">
    <path clip-path="url(#p16110fcb53)" d="M 371.059725 310.52 
L 371.059725 295.696 
" style="fill:none;stroke:#1f77b4;stroke-linecap:round;"/>
   </g>
   <g id="line2d_94">
    <path clip-path="url(#p16110fcb53)" d="M 337.640123 310.52 
L 337.640123 295.696 
" style="fill:none;stroke:#1f77b4;stroke-linecap:round;"/>
   </g>
   <g id="line2d_95">
    <path clip-path="url(#p16110fcb53)" d="M 395.741578 310.52 
L 395.741578 295.696 
" style="fill:none;stroke:#1f77b4;stroke-linecap:round;"/>
   </g>
   <g id="line2d_96">
    <path clip-path="url(#p16110fcb53)" d="M 112.294198 310.52 
L 112.294198 295.696 
" style="fill:none;stroke:#1f77b4;stroke-linecap:round;"/>
   </g>
   <g id="line2d_97">
    <path clip-path="url(#p16110fcb53)" d="M 335.220495 310.52 
L 335.220495 295.696 
" style="fill:none;stroke:#1f77b4;stroke-linecap:round;"/>
   </g>
   <g id="line2d_98">
    <path clip-path="url(#p16110fcb53)" d="M 245.79806 310.52 
L 245.79806 295.696 
" style="fill:none;stroke:#1f77b4;stroke-linecap:round;"/>
   </g>
   <g id="line2d_99">
    <path clip-path="url(#p16110fcb53)" d="M 416.285455 310.52 
L 416.285455 295.696 
" style="fill:none;stroke:#1f77b4;stroke-linecap:round;"/>
   </g>
   <g id="line2d_100">
    <path clip-path="url(#p16110fcb53)" d="M 269.881489 310.52 
L 269.881489 295.696 
" style="fill:none;stroke:#1f77b4;stroke-linecap:round;"/>
   </g>
   <g id="line2d_101">
    <path clip-path="url(#p16110fcb53)" d="M 331.223458 310.52 
L 331.223458 295.696 
" style="fill:none;stroke:#1f77b4;stroke-linecap:round;"/>
   </g>
   <g id="line2d_102">
    <path clip-path="url(#p16110fcb53)" d="M 377.469581 310.52 
L 377.469581 295.696 
" style="fill:none;stroke:#1f77b4;stroke-linecap:round;"/>
   </g>
   <g id="line2d_103">
    <path clip-path="url(#p16110fcb53)" d="M 342.996953 310.52 
L 342.996953 295.696 
" style="fill:none;stroke:#1f77b4;stroke-linecap:round;"/>
   </g>
   <g id="line2d_104">
    <path clip-path="url(#p16110fcb53)" d="M 402.867874 310.52 
L 402.867874 295.696 
" style="fill:none;stroke:#1f77b4;stroke-linecap:round;"/>
   </g>
   <g id="line2d_105">
    <path clip-path="url(#p16110fcb53)" d="M 353.917586 310.52 
L 353.917586 295.696 
" style="fill:none;stroke:#1f77b4;stroke-linecap:round;"/>
   </g>
   <g id="line2d_106">
    <path clip-path="url(#p16110fcb53)" d="M 258.402921 310.52 
L 258.402921 295.696 
" style="fill:none;stroke:#1f77b4;stroke-linecap:round;"/>
   </g>
   <g id="line2d_107">
    <path clip-path="url(#p16110fcb53)" d="M 401.264529 310.52 
L 401.264529 295.696 
" style="fill:none;stroke:#1f77b4;stroke-linecap:round;"/>
   </g>
   <g id="line2d_108">
    <path clip-path="url(#p16110fcb53)" d="M 359.835973 310.52 
L 359.835973 295.696 
" style="fill:none;stroke:#1f77b4;stroke-linecap:round;"/>
   </g>
   <g id="line2d_109">
    <path clip-path="url(#p16110fcb53)" d="M 249.446348 310.52 
L 249.446348 295.696 
" style="fill:none;stroke:#1f77b4;stroke-linecap:round;"/>
   </g>
   <g id="line2d_110">
    <path clip-path="url(#p16110fcb53)" d="M 110.355214 310.52 
L 110.355214 295.696 
" style="fill:none;stroke:#1f77b4;stroke-linecap:round;"/>
   </g>
   <g id="line2d_111">
    <path clip-path="url(#p16110fcb53)" d="M 240.240666 310.52 
L 240.240666 295.696 
" style="fill:none;stroke:#1f77b4;stroke-linecap:round;"/>
   </g>
   <g id="line2d_112">
    <path clip-path="url(#p16110fcb53)" d="M 341.660031 310.52 
L 341.660031 295.696 
" style="fill:none;stroke:#1f77b4;stroke-linecap:round;"/>
   </g>
   <g id="line2d_113">
    <path clip-path="url(#p16110fcb53)" d="M 331.051624 310.52 
L 331.051624 295.696 
" style="fill:none;stroke:#1f77b4;stroke-linecap:round;"/>
   </g>
   <g id="line2d_114">
    <path clip-path="url(#p16110fcb53)" d="M 240.379616 310.52 
L 240.379616 295.696 
" style="fill:none;stroke:#1f77b4;stroke-linecap:round;"/>
   </g>
   <g id="patch_3">
    <path d="M 42.91 310.52 
L 42.91 14.04 
" style="fill:none;stroke:#262626;stroke-linecap:square;stroke-linejoin:miter;stroke-width:1.25;"/>
   </g>
   <g id="patch_4">
    <path d="M 42.91 310.52 
L 443.025 310.52 
" style="fill:none;stroke:#262626;stroke-linecap:square;stroke-linejoin:miter;stroke-width:1.25;"/>
   </g>
  </g>
 </g>
 <defs>
  <clipPath id="p16110fcb53">
   <rect height="296.48" width="400.115" x="42.91" y="14.04"/>
  </clipPath>
 </defs>
</svg>
